<?xml version="1.0" encoding="utf-8"?>
<!-- Generator: Adobe Illustrator 22.1.0, SVG Export Plug-In . SVG Version: 6.00 Build 0)  -->
<svg version="1.1" id="Layer_1" xmlns="http://www.w3.org/2000/svg" xmlns:xlink="http://www.w3.org/1999/xlink" x="0px" y="0px"
	 viewBox="0 0 176.32 23.87" style="enable-background:new 0 0 176.32 23.87;" xml:space="preserve">
<style type="text/css">
	.st0{fill:#D9F0FC;}
</style>
<path class="st0" d="M174.6,12.56c-1.65,2.81-3.29,5.64-4.93,8.46C144.3,7.02,116.23,0,88.15,0C59.98,0,31.81,7.05,6.38,21.14
	c-1.54-2.86-3.08-5.72-4.61-8.59L0,13.5c1.69,3.16,3.39,6.32,5.09,9.47l0.48,0.9l0.89-0.5C31.83,9.12,59.99,2,88.15,2
	c28.06,0,56.12,7.08,81.4,21.23l0.86,0.48l0.49-0.85c1.8-3.1,3.61-6.2,5.42-9.29L174.6,12.56z"/>
</svg>
