<?xml version="1.0" standalone="no"?>
<!DOCTYPE svg PUBLIC "-//W3C//DTD SVG 1.1//EN" "http://www.w3.org/Graphics/SVG/1.1/DTD/svg11.dtd" >
<svg xmlns="http://www.w3.org/2000/svg">
<metadata>Generated by IcoMoon</metadata>
<defs>
<font id="fs-icons" horiz-adv-x="1024">
<font-face units-per-em="1024" ascent="960" descent="-64" />
<missing-glyph horiz-adv-x="1024" />
<glyph unicode="&#x20;" horiz-adv-x="512" d="" />
<glyph unicode="&#x30;" glyph-name="runes-10" horiz-adv-x="256" d="M155.624 304.579l100.4-237.552v-131.123l-128.060 303.209-127.964-303.113v131.027l100.4 237.552-100.4 237.648 98.294 159.74-98.294 160.793v97.241l127.964-208.935 128.060 208.935v-97.241l-98.294-160.793 98.294-159.74-100.4-237.648zM127.964 370.14l70.634 167.971-70.634 115.713-70.634-115.713 70.634-167.971z" />
<glyph unicode="&#x31;" glyph-name="runes-01" horiz-adv-x="256" d="M51.205 87.509l-51.205-151.509v1024l256.024-256.024-204.819-204.819 204.819-205.872-204.819-205.776zM184.337 703.976l-133.132 132.080v-265.212l133.132 133.132zM51.205 160.248l133.132 133.132-133.132 132.080v-265.212z" />
<glyph unicode="&#x32;" glyph-name="runes-02" horiz-adv-x="256" d="M204.819 755.181v204.819l51.205-168.354v-855.646l-51.205 224.248v522.193l-204.819-204.723 76.664 149.403 128.156 128.060z" />
<glyph unicode="&#x33;" glyph-name="runes-03" horiz-adv-x="256" d="M256.024 886.303l-204.819-204.819v-745.484l-51.205 147.393v876.607l51.205-123.944v-80.875l101.357 101.357 103.462 29.766z" />
<glyph unicode="&#x34;" glyph-name="runes-04" horiz-adv-x="256" d="M159.644 587.21l-108.439-108.535v-364.272l-51.205-178.403v900.056l51.205 123.944v-203.766l102.41 101.931 102.41 31.201-204.819-206.925v-132.080l204.819 205.872-96.38-169.024zM127.964 960l25.555-25.555-25.555-25.555-25.555 25.555 25.555 25.555z" />
<glyph unicode="&#x35;" glyph-name="runes-05" horiz-adv-x="256" d="M51.205 499.157l204.819-205.872v-357.381l-51.205 63.647v272.295l-153.614 153.614v-313.354l-51.205-176.106v1024l256.024-256.024-204.819-204.819zM184.337 703.976l-133.132 132.080v-265.212l133.132 133.132z" />
<glyph unicode="&#x36;" glyph-name="runes-06" horiz-adv-x="256" d="M0 345.543l204.819 204.819v132.080l-154.667-151.317 70.825 142.608 83.746 81.449v204.819l51.205-156.39v-867.61l-51.205 142.608v400.067l-94.944-95.327-109.779-37.805z" />
<glyph unicode="&#x37;" glyph-name="runes-07" horiz-adv-x="256" d="M256.024 683.494l-204.819-204.819v-318.522l-51.205-224.153v843.683l51.205 180.317v-203.766l68.050 67.667 136.769 65.466-204.819-206.925v-132.080l111.885 112.363 92.934 20.769zM127.964 960l25.555-25.555-25.555-25.555-25.555 25.555 25.555 25.555z" />
<glyph unicode="&#x38;" glyph-name="runes-08" horiz-adv-x="256" d="M51.205 478.675v-441.797l-51.205-100.878v1024l51.205-66.423v-138.396l153.614-153.614v358.433l51.205-138.205v-885.795l-51.205 172.756v215.347l-153.614 154.571zM51.205 682.441v-132.080l153.614-153.614v131.123l-153.614 154.571z" />
<glyph unicode="&#x39;" glyph-name="runes-09" horiz-adv-x="256" d="M0 499.157l92.169 92.169-92.169 91.116v72.74l102.41-102.41v245.592l51.205 61.637v-307.229l102.41 102.41v-71.687l-91.116-92.169 91.116-92.169v-72.74l-102.41 102.41v-379.49l-51.205-213.433v593.018l-102.41-102.41v72.644z" />
<glyph unicode="&#x65;" glyph-name="runes-13" horiz-adv-x="256" d="M0 960l127.964-127.964 128.060 127.964v-1024l-51.205 139.258v608.236l-76.759 76.759-76.759-76.759v-546.121l-51.3-201.374v1024zM51.205 755.181l40.964 40.964-40.964 40.964v-81.928zM163.855 796.145l40.964-40.964v81.928l-40.964-40.964z" />
<glyph unicode="&#x71;" glyph-name="runes-11" horiz-adv-x="461" d="M256.024 212.41v-118.106l-51.205-158.4v409.638l-204.819 204.819 204.819 204.819v204.819l51.205-54.459v-283.397l204.819-204.819-204.819-204.915zM204.819 417.229v264.255l-131.123-131.123 131.123-133.132zM387.051 417.229l-131.123 131.123v-264.159l131.123 133.037z" />
<glyph unicode="&#x72;" glyph-name="runes-14" horiz-adv-x="256" d="M204.819 679.379l-153.614 155.72v-685.666l-51.205-213.433v1024l256.024-260.139v-763.956l-51.205 98.581v644.893zM127.964 473.602l25.555-25.65-25.555-25.555-25.555 25.555 25.555 25.65z" />
<glyph unicode="&#x74;" glyph-name="runes-15" horiz-adv-x="258" d="M157.406 483.77l99.143-200.292v-347.478l-51.1 184.341v150.911l-76.602 155.305-76.697-155.305v-200.96l-51.1-134.196v347.383l99.143 200.292-100.194 202.393 128.752 273.837 128.752-273.837-100.098-202.393zM128.752 540.982l71.54 145.085-71.54 153.299-71.54-153.204 71.54-145.18z" />
<glyph unicode="&#x77;" glyph-name="runes-12" horiz-adv-x="256" d="M256.024 56.116l-102.41 103.462-25.555-223.578-25.65 122.509v99.921l-102.41-102.314v72.74l102.41 102.41v553.586l-102.41 102.41v72.74l102.41-102.41 6.987 50.535 18.568 51.875 25.555-103.462 102.505 103.462v-72.74l-102.41-103.367v-551.672l102.41-103.462v-72.644z" />
<glyph unicode="&#xe900;" glyph-name="trap-explosive" d="M338.985 455.905l26.89-24.003c0 0 14.213-92.815 22.282-96.358 2.109-0.922 10.65-3.072 22.057-5.714v94.945l29.43-16.159 3.625-86.18c12.636-2.765 25.211-5.448 35.144-7.557l2.171 81.94h25.231l9.032-79.544 32.973 12.8-4.813 79.462 31.498 16.282v-85.402l23.695 9.196 14.643 86.815c0 0 40.325 38.81 72.704 77.967 27.464 33.219 54.518 91.464 25.334 129.475 0 0 0 0 0 0 1.393 13.025 2.15 26.317 2.15 39.834 0 160.481-101.99 251.638-227.799 251.638s-227.84-91.156-227.84-251.638c0-12.8 0.655-25.375 1.905-37.745-5.837-8.008-11.551-16.732-13.025-21.934-6.472-23.040 3.953-72.847 23.327-94.106 19.415-21.279 69.386-74.015 69.386-74.015zM497.971 476.283l-9.646-22.139-18.063 23.921-22.753-7.967 39.526 92.14 42.107-92.14-31.171 6.185zM587.1 712.090l72.315-50.504 10.097-69.1-42.045-37.212-82.412 17.715-16.814 46.080v79.974l58.86 13.046zM387.584 717.046l48.988-23.204 7.557-76.554-33.628-62.013h-47.084l-54.661 21.586 5.673 79.729 73.155 60.457zM256.799 282.931l45.036-68.403-89.129-173.384h91.894l40.694 107.356 68.321-103.772 29.020-72.131 21.811-7.926h72.499l5.837 61.42-212.255 321.065zM210.084 529.326c0 0-10.916 74.506-3.379 105.267 7.578 30.904 10.056 91.935-7.741 120.893-17.92 29.164-53.105 38.625-53.105 38.625l-36.454-7.516-16.056-76.165-68.362-34.386-4.506-84.992 81.080-72.294 86.016-130.642 82.289 50.831-59.781 90.378zM315.208 360.796h-7.434l-132.28 5.12 14.664-20.664 40.694-52.634zM318.915 375.091l-32.236 55.378-85.033-45.916 1.536-2.642zM796.549 426.824l-53.228 117.514-51.016-84.603 102.461-35.84zM818.36 426.762l25.436 51.589-79.647 55.378zM981.975 644.854l-44.36 15.34 9.503 46.879-42.783 55.419-45.937 27.259-34.857-36.639-14.254-108.257-50.688-84.009 85.545-64.532 36.434 59.904 74.465-11.94 48.476 65.516zM502.108 135.557l55.706-82.125 91.095 134.799 55.747-147.087h91.894l-111.309 200.847 42.353 62.648 65.29 107.356-102.441 35.82z" />
<glyph unicode="&#xe901;" glyph-name="berserker-enrage" d="M210.383 595.529l-0.634-8.363 0.853 3.608zM935.107 479.72l-3.389-4.998c2.804-16.75 4.876-33.573 6.144-50.469 2.609-35.401 2.097-71.095-2.853-106.277-2.414-17.579-5.778-35.060-10.508-52.175l-1.707-6.437-1.975-6.363c-1.365-4.218-2.584-8.485-4.047-12.654l-5.73-15.604-1.292-3.072-2.609-6.12c-3.267-8.241-7.436-16.067-11.264-24.040-2.097-3.901-4.291-7.729-6.437-11.605l-3.243-5.778-3.56-5.608-7.119-11.166-7.729-10.752c-0.439-0.61-0.902-1.243-1.341-1.853l22.699-37.205-151.552-147.407h263.997v510.586l-66.487 8.997zM430.373 533.602l-118.077 66.072c-58.685-124.709 118.077-66.072 118.077-66.072zM400.165 390.12c28.087 7.656 79.921 14.848 128.268 3.755-45.836-0.853-97.158-33.768-133.413-57.783l-5.437-57.1c100.986 36.474 266.289-4.218 266.289-4.218l-14.214 73.85c-17.725 14.726-47.055 27.965-78.653 42.935 24.454-3.413 53.467-7.899 73.435-15.823l-13.141 68.291c-48.226 27.331-146.481 32.183-217.283 7.168l-5.851-61.074zM189.757 176.689l-35.377 114.542-0.658 2.194 0.073 3.218 9.143 330.459-10.021 19.749-61.879-17.359 4.632-225.109-62.391 99.742-10.898-2.389v-541.55h260.779l-136.192 121.149zM210.603 590.775l-0.829-3.584-21.333-290.011 19.212-80.603 4.047 9.021 21.163 14.141 5.388-87.845 29.208 21.821 48.835-66.511 26.941 7.582 113.664-95.134 14.726 10.533 67.56-11.995 62.293 14.092 21.26-7.582 81.237 78.726 18.53-11.776 38.302 72.411 37.254 36.328 19.139-81.359c0 0 15.458 18.993 33.816 51.2l7.778-12.751 4.803 7.582 9.216 16.603 2.755 5.705c1.804 3.803 3.682 7.582 5.461 11.41 3.17 7.826 6.68 15.458 9.314 23.479l2.121 5.949 1.048 2.974 0.902 3.023 3.633 12.069c1.17 4.047 2.072 8.143 3.121 12.215l1.512 6.12 1.243 6.193c3.511 16.433 5.681 33.109 6.949 49.859 2.682 33.475 1.146 67.243-3.34 100.474-1.487 10.825-3.316 21.602-5.461 32.305-6.071 25.064-15.555 50.542-29.282 76.044-61.879 114.932-70.729 214.699-71.997 310.053l-226.060 71.997-197.851-83.554h-79.141l-75.922-112.006 2.828-64.975-14.043-60.221zM300.593 735.598l151.966-14.409c8.728 8.948 17.432 17.896 26.21 26.77l35.304 35.572 35.499 35.401 46.226 45.739 12.19-8.021c20.968-13.8 40.692-29.477 58.856-46.811 18.188-17.286 34.889-36.181 49.323-56.71 14.507-20.456 27.185-42.203 37.4-65.048 2.462-5.754 4.925-11.508 7.217-17.31l3.243-8.777 1.609-4.389 1.463-4.267 11.752-34.133 23.259-68.364 22.991-68.486c15.238-45.69 30.33-91.429 45.105-137.338-20.236 43.788-39.497 87.966-58.514 132.242l-28.184 66.536-27.672 66.731-15.36 37.644-1.731 3.998-3.438 7.973c-2.414 5.266-4.974 10.459-7.534 15.653-10.679 20.529-23.064 40.107-37.23 58.295-3.486 4.584-7.29 8.923-10.923 13.41-3.852 4.291-7.631 8.655-11.581 12.824-7.924 8.363-16.043 16.53-24.698 24.137-13.507 12.044-27.819 23.162-42.764 33.378l-24.674-25.137-35.255-35.621-33.28-33.378 97.67 35.547 80.823-82.091 17.408-74.045-108.666-66.609c0 0 102.863-33.256 122.051 9.728l51.541-219.063-17.091-100.864-138.508-90.502-50.517 60.197-36.962-26.478-39.424 31.744-51.59-68.827-153.649 99.767-45.836 136.192-1 243.054 66.974 124.148z" />
<glyph unicode="&#xe902;" glyph-name="berserker-frozen-wrath" d="M185.856 110.373l-3.413 6.607-6.802 13.19c-2.121 4.462-4.12 9.021-6.168 13.507-4.291 8.923-7.607 18.286-11.313 27.477-6.632 18.676-12.507 37.669-16.262 57.149-3.803 19.456-6.29 39.18-6.851 58.978-0.585 19.797 0.683 39.619 3.706 59.124 3.145 19.48 8.070 38.644 14.824 57.1 3.877 10.435 8.265 20.675 13.385 30.525-10.411 17.164-18.895 33.816-22.552 44.495-36.279-59.197-52.834-130.95-42.008-205.044 10.362-70.802 44.081-132.413 92.184-178.176l-5.022 8.606c-1.243 2.17-2.56 4.267-3.706 6.461zM255.707 131.974l8.192-13.385c2.633-4.51 5.681-8.777 8.631-13.093l4.437-6.461c1.463-2.17 2.95-4.315 4.584-6.363 6.363-8.29 12.532-16.725 19.48-24.576 3.413-3.95 6.656-8.046 10.216-11.874l10.728-11.435c9.728-10.216 19.87-20.017 30.33-29.477 31.793-5.705 65.048-6.461 98.767-1.512 14.507 2.121 28.623 5.242 42.325 9.265-111.128-0.268-211.602 62.44-261.632 158.452 4.876-12.19 10.411-24.113 16.457-35.718l7.485-13.824zM150.26 344.893c-4.023-37.888-0.634-76.166 8.119-112.957l3.584-13.726c1.317-4.535 2.828-9.045 4.218-13.556 0.731-2.243 1.365-4.535 2.146-6.754l2.462-6.656c1.682-4.437 3.194-8.923 4.998-13.288 3.803-8.68 7.217-17.506 11.581-25.941 2.097-4.242 4.12-8.533 6.29-12.751l6.875-12.459c4.413-8.387 9.655-16.335 14.507-24.478 2.389-4.096 5.193-7.948 7.826-11.898l7.997-11.8c5.583-7.704 11.362-15.262 17.018-22.894l1.585-1.95c20.992-12.507 43.52-22.552 67.145-29.794-2.633 2.926-5.266 5.827-7.851 8.802l-10.508 12.337c-3.486 4.12-6.656 8.509-9.996 12.776-6.778 8.411-12.776 17.432-18.92 26.283-1.585 2.194-3.023 4.486-4.413 6.778l-4.267 6.9c-2.828 4.608-5.778 9.118-8.265 13.922l-7.778 14.19-7.046 14.58c-9.070 19.578-16.677 39.814-22.382 60.562-5.047 18.432-8.509 37.278-10.435 56.247-1.219 5.851-2.292 11.752-3.17 17.725-7.241 49.493 1.804 80.506 8.85 102.034-12.434 11.166-27.185 30.988-39.741 50.956-3.633-8.85-6.705-17.92-9.435-27.063-5.339-18.408-9.118-37.181-10.996-56.125zM827.806 238.738c2.56 23.211 3.779 46.519 3.73 69.827 0.024 23.308-1.414 46.616-4.096 69.73-1.122 11.581-3.121 23.064-4.827 34.572-1.292 6.656-2.511 13.336-3.828 19.992-2.438-27.112-7.997-54.467-17.018-81.701-20.090-60.733-97.694-128.561-97.694-128.561s61.684-69.047 97.231-104.594c5.973 16.823 10.728 34.28 14.872 51.712 5.193 22.747 9.070 45.812 11.63 69.022zM911.628 328.558c-3.096 27.746-7.997 55.247-14.824 82.261-13.629 54.004-35.182 105.813-64.049 152.966-14.458 23.576-31.183 45.641-49.176 66.487l-13.897 15.287c-0.293 0.317-0.61 0.61-0.926 0.926 25.551-41.74 42.228-88.503 48.567-137.557l1.804-6.217 2.487-8.606c0.853-2.853 1.658-5.73 2.316-8.655l4.291-17.384c0.756-2.877 1.39-5.803 1.95-8.728l1.804-8.777c2.584-11.654 4.267-23.479 6.266-35.23 1.463-11.825 3.218-23.625 4.096-35.523 2.17-23.723 3.096-47.567 2.487-71.387-0.536-23.796-2.341-47.543-5.51-71.119s-7.656-46.933-13.507-69.973c-3.73-14.165-7.778-28.16-12.629-41.984 41.862 31.817 74.898 84.504 101.644 159.159-0.024 0.756-0.049 1.536-0.073 2.292-0.512 13.946-1.536 27.892-3.121 41.765zM756.785 692.565l7.948-7.363 7.509-7.826c4.949-5.242 10.094-10.338 14.897-15.701l14.068-16.457c18.164-22.382 34.889-45.958 49.176-70.949 28.501-49.981 49.054-104.155 61.318-159.963 6.144-27.892 10.289-56.174 12.581-84.578 0.39-4.535 0.683-9.070 0.951-13.605 58.319 201.728-59.709 407.357-269.312 463.872-12.556 3.389-25.161 6.095-37.79 8.265 43.91-21.992 85.382-49.030 122.709-81.018 5.388-4.803 10.63-9.777 15.945-14.677zM648.753 285.452l36.547-35.767c54.174 48.713 91.746 110.348 101.839 220.696-28.331-97.036-69.193-146.773-138.386-184.93zM229.254 360.034c-23.845-85.918 39.619-172.081 39.619-172.081-32.987 94.622-9.752 156.867-9.752 156.867l-29.867 15.214zM485.278 783.726l5.681-4.486c3.755-3.023 7.607-5.949 11.313-9.045 7.144-6.485 14.58-12.727 21.211-19.797 6.997-6.729 13.214-14.19 19.627-21.48 5.973-7.656 12.117-15.214 17.457-23.381 10.971-16.091 20.626-33.182 28.526-51.078 7.875-17.896 14.214-36.523 18.993-55.54s7.973-38.473 9.533-58.075c0.878-9.801 1.195-19.675 1.195-29.55 0-3.584-0.098-7.192-0.219-10.801 21.504-30.622 33.061-58.587 33.061-58.587s46.982 119.003-26.161 273.31l-30.281 1.804 4.852 40.619c-1.877 2.828-3.779 5.559-5.681 8.29-2.926 4.194-5.9 8.265-8.85 12.19-93.403 123.977-198.388 122.904-198.388 122.904 16.725-27.282 25.356-52.76 28.55-76.069 22.187-10.435 43.593-22.723 63.683-37.035 1.975-1.414 3.998-2.731 5.9-4.194zM335.994 698.758l-100.937 98.328 50.81-145.091 16.311 33.109zM421.278 474.99l-31.72-0.073c36.718-60.952 202.386-324.51 375.735-516.559h61.464c-44.617 46.811-87.503 95.183-128.926 144.725-99.206 118.711-190.318 243.785-276.553 371.907zM453.559 496.811l25.039 79.604c47.957 9.947 87.406-15.384 116.468-46.665 0 3.267-0.024 6.534-0.146 9.801-0.488 18.432-2.56 36.888-6.12 55.052s-8.606 36.059-15.189 53.443c-6.607 17.359-14.921 34.060-24.6 49.981-4.681 8.070-10.191 15.604-15.555 23.284-5.803 7.314-11.41 14.824-17.822 21.675-6.046 7.192-12.946 13.556-19.554 20.261-3.438 3.194-7.022 6.242-10.557 9.362l-5.291 4.681c-1.804 1.512-3.706 2.901-5.559 4.364-18.213 14.458-37.79 27.234-58.344 38.4 1.585-15.019 0.951-29.062-1.219-42.033-0.731-4.389-1.634-8.655-2.682-12.776-6.778-26.697-19.578-48.152-30.866-63.049l-11.508-1.56-59.855-24.137-29.696-60.294-7.412-17.067c-74.63-32.573-138.874 55.052-138.874 55.052 1.609-88.235 19.212-152.6 45.007-199.509 0.731-1.341 1.487-2.609 2.219-3.925 22.089-38.644 49.786-65.097 78.482-83.042l11.971-7.461 9.265-4.267c70.949-34.45 140.922-23.552 140.922-23.552-89.478 65.195-92.404 131.852-79.311 150.723l31.183-5.461 50.2 2.974 0.951-1.292c88.259-127.171 181.297-251.099 282.161-368.274 45.202-52.492 92.014-103.57 140.776-152.698h51.2c-125.684 113.981-297.058 294.473-445.684 538.405z" />
<glyph unicode="&#xe903;" glyph-name="berserker-ground-slam" d="M526.75 539.941l37.571 182.516 1.829 2.633 70.168 101.449 19.432 111.372h-357.839l-1.195-156.501 34.304-187.538-4.218-72.655 90.502-50.493zM373.321 350.769l133.486-82.676 121.588 115.273 5.925-89.429 61.83 27.477 4.803-33.914 11.41 11.727v106.033l-68.486 41.838-35.889 35.084 1.658 90.453 89.405 228.23 33.499 137.045h-56.686l-5.632-120.125-0.195-4.535-3.121-3.925-77.166-98.158-36.937-182.589-1.195-5.827-133.827-83.164-3.779 2.56-88.357 59.465-8.168-140.654 58.539-57.49zM817.469 341.041l-50.371-81.896-12.312 64.658-87.528-103.131 9.387 63.122-68.364-33.085 0.731 72.899-97.158-95.695-114.2 75.191 13.263-80.969-201.338 190.488 76.678-164.425-221.33 216.893 79.921-156.209h-51.566l131.511-130.731-87.625-4.096 121.734-57.173 136.997-20.358 287.159 1 126.805 26.088 114.956 89.088-70.875-16.018 107.618 275.31-119.247-168.716zM160.158 139.118c-56.856-14.043-90.648-31.622-90.648-50.664 0-46.129 197.973-83.529 442.197-83.529 68.267 0 132.901 2.926 190.61 8.143-59.782 0.756-119.589 2.365-179.346 5.559l-25.454 1.39-25.454 1.755c-8.485 0.634-16.969 1.122-25.429 1.877l-25.405 2.243c-8.46 0.683-16.945 1.585-25.381 2.511-8.46 0.926-16.92 1.755-25.356 2.779l-25.332 3.267c-8.436 1.048-16.847 2.511-25.259 3.73-33.621 5.364-67.17 11.898-99.938 21.918-16.286 5.242-32.475 11.24-47.592 19.797-7.436 4.437-14.848 9.24-20.846 15.97-1.414 1.755-2.853 3.486-4.12 5.388-1.146 1.999-2.365 3.925-3.096 6.193-0.195 0.536-0.439 1.073-0.61 1.634l-0.39 1.731-0.366 1.731-0.122 1.804c-0.098 1.877-0.024 3.657 0.536 5.608-0.073 0.488-0.122 1-0.122 1.487-0.024 6.168 5.925 12.093 16.92 17.676zM148.968 109.227c0.61-1.804 1.731-3.438 2.731-5.12 1.122-1.609 2.438-3.121 3.73-4.632 5.486-5.925 12.629-10.362 19.822-14.409 14.653-7.851 30.622-13.385 46.714-18.139 32.427-9.070 65.78-14.775 99.255-19.31 8.387-1.024 16.75-2.267 25.161-3.121l25.21-2.633c8.411-0.829 16.847-1.438 25.259-2.17s16.847-1.414 25.283-1.902l25.307-1.609c8.436-0.536 16.896-0.829 25.332-1.268l25.356-1.146 25.381-0.78c28.428-0.853 56.881-1.317 85.309-1.512 27.624 2.072 55.223 4.486 82.749 7.387 30.647 3.291 61.245 7.144 91.599 12.264 15.165 2.584 30.306 5.437 45.275 8.875s29.842 7.363 44.276 12.41c7.217 2.536 14.312 5.364 21.090 8.753 6.754 3.365 13.336 7.266 18.627 12.312 2.609 2.536 4.949 5.339 6.339 8.509 1.414 3.145 1.877 6.558 1.097 9.874-1.024 4.462-3.877 8.533-7.387 11.947-13.507 5.461-30.037 10.606-49.201 15.336 10.996-5.583 16.945-11.508 16.945-17.676 0-32.475-164.986-58.782-368.494-58.782-183.077 0-334.921 21.309-363.593 49.201l0.317-1.317c0.122-0.463 0.341-0.902 0.512-1.341zM923.55 99.889c-1.658-4.072-4.34-7.461-7.217-10.411-5.851-5.876-12.702-10.167-19.675-13.922-6.997-3.755-14.238-6.875-21.553-9.704-14.653-5.632-29.623-10.069-44.715-14.019-15.067-3.95-30.257-7.29-45.495-10.362-17.627-3.535-35.328-6.607-53.053-9.411 40.277 0.634 80.579 1.78 120.832 3.194 63.244 14.458 101.23 32.987 101.23 53.199 0 11.118-11.532 21.723-32.402 31.427 1.341-2.097 2.438-4.389 3.072-6.924 1.17-4.291 0.658-9.045-1.024-13.068z" />
<glyph unicode="&#xe904;" glyph-name="berserker-hack" d="M914.432 485.717c-33.085-95.134-86.601-184.247-152.869-269.605l-4.34 58.222c-26.965-40.155-61.586-75.313-104.814-104.814-42.252-6.632-88.82-9.509-138.654-9.509-109.007 0-233.789 13.775-363.959 32.232l339.042-126.976-466.456-106.886h979.237v646.461l-93.574-300.154 6.388 181.029zM305.323 590.36c-47.543-19.432-154.843-66.389-282.941-129.829v-46.226l282.551 140.898 0.39 35.157zM681.131 408.966l-6.827-6.168c-4.584-4.096-9.070-8.29-13.726-12.288-9.655-7.607-19.042-15.628-29.306-22.43-9.923-7.339-20.578-13.58-31.086-20.090-10.874-5.876-21.65-11.995-33.012-16.945-22.479-10.362-45.934-18.846-69.998-24.99-24.088-6.095-48.713-10.118-73.509-12.069-24.795-1.975-49.786-1.902-74.63 0.268-12.434 0.975-24.82 2.658-37.205 4.706-5.242 0.878-10.484 1.902-15.75 3.023-41.399-19.627-77.019-27.965-77.019-27.965s138.654-82.749 345.722-23.040l9.118 18.432 48.908 4.559c199.753 90.99 221.915 236.008 221.915 236.008-35.352-14.458-67.267-20.236-95.72-20.187-18.164-26.453-38.546-51.468-61.391-74.313-2.17-2.146-4.267-4.413-6.485-6.51zM421.839 462.165c2.584-60.66-35.547-104.155-79.433-133.949 3.34-0.512 6.705-1 10.069-1.39 22.967-3.023 46.251-4.072 69.461-3.243s46.373 3.584 69.169 8.314c22.772 4.779 45.080 11.776 66.682 20.626 10.898 4.194 21.309 9.557 31.842 14.653 10.191 5.73 20.578 11.191 30.281 17.774 10.069 6.046 19.31 13.336 28.867 20.187 4.632 3.608 9.094 7.461 13.653 11.191l6.802 5.632c2.219 1.926 4.315 3.998 6.51 5.998 20.797 19.066 39.863 40.082 57.295 62.513-64.268 5.193-109.227 40.058-134.778 66.974l0.561 20.48-16.75 74.459-45.080 32.134-45.032 28.94c-25.381 99.572 96.817 161.768 96.817 161.768-206.117 29.867-319.732-26.941-382.366-98.231l14.165-30.306-33.109 6.266c-57.344-81.359-58.002-170.715-58.002-170.715 83.456 89.088 187.368 87.991 208.213 67.852l-3.096-7.266-18.725-91.624-0.658-3.194-2.389-1.146-290.426-139.922v-41.228c91.77 49.664 193.609 98.548 305.42 143.848l94.037-47.397zM601.917 614.229l0.926 0.341 143.409 106.008-193.048-34.109 38.644-27.575z" />
<glyph unicode="&#xe905;" glyph-name="berserker-heroic-leap" d="M225.109 292.766l-43.618 30.501 24.625-50.42-20.017-31.5 38.985 16.774 42.862-25.064-18.066 43.032 18.895 39.619zM841.899 459.24l7.656 28.379 30.988 6.68-31.988 9.679-5.656 21.504-8.46-23.82-28.306-8.558 26.112-9.557zM22.382 780.556c220.282-31.793 390.461-190.586 423.107-390.949l22.967-9.85c-0.634 8.485-1.463 17.018-2.536 25.502-2.267 17.871-5.437 35.669-9.509 53.297-8.046 35.255-19.675 69.754-34.645 102.766-29.842 66.072-74.362 125.684-130.243 172.788-13.97 11.752-28.501 22.918-43.715 33.134-15.238 10.167-30.866 19.822-47.080 28.477-16.213 8.606-32.744 16.774-49.762 23.845-8.411 3.755-17.091 6.924-25.673 10.313-4.291 1.658-8.68 3.121-13.019 4.681-4.364 1.512-8.68 3.17-13.093 4.51-9.899 3.243-19.895 6.266-29.94 9.094-15.409 1.536-31.037 2.779-46.86 3.706v-71.314zM483.499 631.467c10.557-14.702 20.724-29.72 29.867-45.373l3.511-5.827 3.316-5.925 6.632-11.874c4.12-8.070 8.509-16.018 12.312-24.235 8.070-16.262 14.994-33.036 21.723-49.859 6.363-16.969 12.483-34.060 17.603-51.468 8.46-27.989 15.287-56.466 20.699-85.187l24.308 13.166c-47.494 217.502-154.063 347.185-301.544 417.768 32.061-20.358 62.318-43.642 90.039-69.851 26.307-24.722 50.225-52.053 71.534-81.335zM155.16 830.025c17.603-6.51 34.792-14.141 51.736-22.284 16.945-8.192 33.378-17.432 49.469-27.258 16.067-9.874 31.525-20.797 46.494-32.378 3.682-2.95 7.485-5.803 11.093-8.85l10.85-9.167 10.557-9.533c3.535-3.17 6.851-6.534 10.289-9.801 13.556-13.263 26.405-27.307 38.424-42.008 24.064-29.428 44.837-61.659 61.952-95.72s30.818-69.876 40.814-106.764c5.047-18.432 9.167-37.132 12.337-56.052 1.585-9.46 2.926-18.968 3.998-28.574 0.512-4.803 1-9.606 1.365-14.482 0.195-2.438 0.341-4.876 0.488-7.339l0.171-3.73 0.098-4.047-1.707-30.696-125.245 76.654-88.405 32.402 259.316-340.797 216.21 318.147-56.71-23.089-44.837-18.822-85.211-62.196-5.315 23.089c-4.437 34.767-10.996 69.242-19.968 103.083-4.34 16.969-9.679 33.646-15.238 50.249-5.949 16.457-12.069 32.89-19.285 48.811-3.389 8.070-7.363 15.872-11.069 23.82l-5.998 11.678-3.023 5.827-3.194 5.73c-8.314 15.409-17.627 30.281-27.355 44.861-19.627 29.062-41.911 56.393-66.682 81.384-41.96 42.545-90.868 78.312-143.872 106.691-42.594 14.677-87.942 25.405-135.704 32.719 2.219-0.683 4.437-1.39 6.656-2.121 8.85-3.121 17.774-5.973 26.502-9.435zM792.186 311.272l-33.012-25.941 35.499-5.022 8.948-25.795 17.676 21.382h49.347l-35.986 20.041 17.701 32.451-38.936-8.265-21.236 25.356zM925.818 259.17l-156.94-114.859-99.913-104.472 42.935 162.84-165.742-184.588-178.688 195.486 21.065-113.981-190.44 83.554 114.566-179.419-251.051 15.311 191.147-60.66h608.914l100.718 60.66-194.316-13.458zM636.83 561.274l34.011-114.322 12.776 349.501zM239.616 516.51l-110.421 84.821 123.88-138.679z" />
<glyph unicode="&#xe906;" glyph-name="berserker-slash" d="M346.21 401.896c11.337 31.988 24.722 63.22 39.302 93.94l11.215 22.918 11.971 22.528c2.024 3.73 3.95 7.558 6.046 11.24l6.363 11.045c4.291 7.363 8.436 14.799 12.849 22.089l13.507 21.699c2.267 3.608 4.462 7.266 6.802 10.825l11.971 17.822c-31.988-24.308-62.586-49.201-91.502-74.484l4.023 47.738c-49.396-44.739-108.812-122.027-133.705-177.054-0.634-0.731-1.268-1.463-1.877-2.219-7.948-18.261-15.628-36.645-22.894-55.174-10.898-28.014-20.87-56.393-29.55-85.138-8.655-28.745-15.97-57.905-21.138-87.454-1.243-7.387-2.365-14.799-3.389-22.211-0.829-7.436-1.877-14.872-2.365-22.333-1.365-14.921-1.658-29.891-1.195-44.812s2.097-29.818 5.12-44.398c2.999-14.58 7.387-28.891 13.556-42.423 12.093-27.16 32.256-50.59 57.466-66.487l1.877-1.17h35.84l-0.805 0.926c134.583 8.094 287.598 152.795 287.598 152.795s-229.254-130.731-261.242-50.761c-17.262 43.179-15.701 93.818 0.268 148.797 2.974 31.695 8.387 63.171 15.458 94.281 7.509 32.963 17.115 65.512 28.428 97.475zM546.011 693.443c-11.337-13.141-22.43-26.478-33.231-40.058l-15.482-19.627-22.235-30.184c-2.438-3.365-4.73-6.851-7.119-10.264l-14.141-20.602c-4.608-6.924-8.997-14.019-13.507-21.041l-6.729-10.533c-2.219-3.535-4.267-7.168-6.412-10.728l-12.702-21.528-11.995-21.943c-15.628-29.428-30.135-59.514-42.667-90.429-12.507-30.915-23.381-62.513-32.28-94.671-5.169-18.798-9.704-37.766-13.458-56.905 43.959 114.615 143.019 244.37 260.267 363.52l165.303 125.562-42.423-10.094c78.409 68.267 159.086 128.975 232.984 175.86-132.51-53.224-265.167-125.074-384.171-206.336zM197.144-18.383c-10.898 11.605-19.846 25.039-26.965 39.253-7.119 14.238-12.361 29.355-16.091 44.69-3.755 15.36-6.046 31.013-7.095 46.616-1.073 15.628-1.317 31.281-0.463 46.811 0.219 7.802 1.024 15.506 1.609 23.259 0.78 7.704 1.658 15.409 2.658 23.089 4.218 30.671 10.63 60.904 18.408 90.648 5.461 20.846 11.605 41.496 18.237 61.928-22.406-32.427-40.789-64.585-54.565-96.037v73.118c-59.465-62.44-87.552-101.742-110.47-146.846v-229.839h201.606c-9.752 6.754-18.749 14.604-26.868 23.308zM315.904 160.841c41.862 103.18 71.948 145.189 134.656 242.517-142.75-111.080-134.656-242.517-134.656-242.517z" />
<glyph unicode="&#xe907;" glyph-name="amazon-fire-arrow" d="M802.499 427.106c28.794 115.517-31.768 157.233-32.963 245.467l-45.154-34.962c1.243-9.801 2.365-19.602 3.34-29.452 2.755-28.282 4.364-56.71 4.437-85.187 0.049-28.477-1.317-57.003-4.827-85.382-3.608-28.355-9.167-56.613-18.164-84.041-9.021-27.355-21.406-54.004-38.741-77.678-17.237-23.698-39.96-43.861-66.194-57.661-13.093-6.875-26.941-12.483-41.204-16.238-14.263-3.803-28.818-6.412-43.422-7.631-27.624-2.316-55.247-0.561-82.334 3.462l-9.094-1.609c12.702-10.459 26.161-19.944 40.302-28.306 25.307-14.994 52.614-26.502 80.872-34.865 28.258-8.314 57.417-13.653 86.821-16.165 14.702-1.292 29.452-1.853 44.154-1.755 7.363 0.049 14.702 0.268 21.992 0.683 0.805 0.049 1.609 0.122 2.414 0.171 48.64 25.137 89.478 60.245 115.249 104.131 56.588 96.354 36.401 268.264 36.401 268.264s-19.749-37.937-53.882-61.245zM557.056 219.112l-25.186-4.486c8.485 1.024 16.92 2.511 25.186 4.486zM541.94 109.592c-29.647 9.923-58.27 23.211-84.651 40.131-19.115 12.239-36.962 26.405-53.199 42.179l-1.999-0.366-70.632-74.484c86.455-51.834 204.142-58.539 305.493-28.282-1.243 0.146-2.487 0.268-3.706 0.414-30.988 3.779-61.635 10.508-91.307 20.407zM357.961 247.735c-8.533 12.995-16.311 26.453-22.991 40.448-6.754 13.922-12.776 28.184-17.774 42.789-2.682 7.241-4.803 14.653-7.119 21.992-1.122 3.682-2.024 7.412-3.048 11.118-0.975 3.706-2.048 7.412-2.853 11.166-11.166 46.909-15.604 94.891-15.677 142.726-19.432 30.964-46.885 84.773-46.885 84.773s-54.93-133.876-42.008-278.382c5.339-59.563 32.622-118.321 76.483-163.401l85.967 80.774c-1.365 1.975-2.755 3.974-4.096 5.998zM315.392 378.149c0.902-3.633 2.072-7.192 3.17-10.776 1.122-3.584 2.146-7.192 3.34-10.728 2.511-7.046 4.803-14.19 7.656-21.090 5.339-13.97 11.654-27.502 18.603-40.643 5.876-11.24 12.532-22.040 19.651-32.475l15.994 124.172 0.878 6.754 299.861 135.29-13.263-29.379-29.525-65.463-73.63-211.7c9.752 2.95 19.237 6.656 28.306 11.264 24.186 11.995 45.397 29.818 62.025 51.541 16.701 21.675 29.135 46.714 38.473 72.85 9.314 26.21 15.409 53.638 19.602 81.335 4.12 27.746 6.144 55.857 6.778 83.992 0.61 28.16-0.293 56.369-2.365 84.529-1.048 13.678-2.316 27.355-3.901 41.009-13.093 35.279-51.688 131.682-90.941 156.501 0 0 26.526-136.68-81.018-128.366s-45.227 207.458-45.227 207.458-175.348-118.613-205.214-353.865c0.439-21.26 1.707-42.496 4.023-63.586 3.34-30.013 8.753-59.709 16.725-88.625zM406.479 222.671l134.485 17.335 119.223 264.265-264.265-119.223-18.798-145.896-297.472-279.528h63.756l263.070 263.046zM613.766 457.85l-211.651-211.651 15.896 123.319 195.755 88.332z" />
<glyph unicode="&#xe908;" glyph-name="amazon-fire-storm" d="M165.62 405.236c9.63-133.437 131.145-194.706 71.826-199.948-47.567-4.194-55.272 45.641-136.558 37.254 78.019-53.638 95.963-157.257 51.2-177.981-67.901-31.403-96.841 105.131-96.841 105.131-13.58-25.576-23.845-50.615-31.622-74.728v-135.387h715.288c-181.662 262.875-477.94 282.941-573.294 445.659zM1000.399 269.775c-23.186 36.718-50.664 72.826-83.675 108.178 0 0 65.048-197.51 8.216-208.53-67.755-13.141-98.743 230.4-287.549 317.708 0 0 126.513-203.678 86.406-236.032s-158.306 128.878-158.306 128.878c67.486-249.685 151.698-286.549 232.594-420.376h202.313v310.174zM316.294 388.218c85.553-163.474 275.87-207.823 275.87-207.823-89.137 149.163-55.686 296.741-156.184 395.288 0 0 37.059-103.083-29.184-104.716-88.113-2.17-72.094 231.253-72.094 231.253-44.032-58.173-44.032-0.366-37.888 115.493-0.024-0.024-64.585-268.898 19.48-429.495zM668.745 531.602c-13.336 75.557-25.064 140.117-69.778 206.824-44.715 66.731-112.030 117.833-185.588 161.134 28.184-34.085 11.288-40.936 77.58-82.846 28.989-18.334 42.155-61.806 36.766-90.502-5.559-29.623 1.512-60.318 20.187-83.968 35.23-44.666 77.336-84.261 120.832-110.641zM786.798 509.001c18.31-54.077 57.149-88.966 57.149-88.966 26.258 118.248-77.922 267.118-77.922 267.118 23.43-90.746 1.707-121.807 20.773-178.152zM155.697 453.778c32.256-3.023-19.749 64.414-22.114 140.507 0 0-36.888-123.343 22.114-140.507z" />
<glyph unicode="&#xe909;" glyph-name="amazon-heartseeker" d="M842.971 250.246c2.804 5.681 5.778 11.24 8.436 16.969 2.536 5.778 5.291 11.435 7.656 17.262l3.462 8.777c1.122 2.926 2.414 5.778 3.389 8.777 15.896 43.569 24.308 89.356 25.454 135.266 4.364 0.683 8.704 1.512 13.068 1.95l13.97 1.487 13.97 1.804c9.314 1.341 18.627 2.658 27.916 4.389v2.194c-9.314 1.731-18.627 3.048-27.916 4.389l-13.97 1.804-13.97 1.487c-4.364 0.414-8.728 1.243-13.068 1.95-1.195 46.299-9.728 92.428-25.771 136.363-0.951 2.999-2.267 5.851-3.389 8.777l-3.462 8.753c-2.365 5.827-5.12 11.459-7.656 17.237-2.633 5.73-5.608 11.288-8.436 16.945-2.95 5.583-6.193 11.020-9.289 16.555-10.386 17.481-22.187 34.255-35.279 50.030 0.049 0.049 0.098 0.122 0.146 0.171l34.328 37.839 33.938 38.205c22.479 25.649 44.983 51.249 66.999 77.336l-2.584 2.584c-26.088-22.016-51.688-44.52-77.336-66.999l-38.229-33.938-36.84-33.451c-32.524 33.329-71.729 60.709-115.054 79.189-45.397 19.529-94.988 29.355-144.238 29.086l-1.755 17.31c-1.341 11.849-2.658 23.698-4.389 35.547h-2.194c-1.731-11.849-3.048-23.698-4.389-35.547l-1.804-17.774v-0.024c-4.023-0.219-8.021-0.414-12.020-0.658-6.412-0.61-12.824-1.39-19.237-2.072-6.388-0.853-12.727-1.999-19.066-2.999-6.339-1.122-12.605-2.633-18.871-3.998-24.966-6.046-49.25-14.531-72.338-25.283-0.414-0.195-0.829-0.39-1.243-0.585-24.649 24.869-54.662 50.615-93.184 73.411 0 0 18.773-48.933 31.573-109.3-17.603-12.434-34.182-26.185-49.64-41.033-1.243 1.122-2.511 2.243-3.779 3.389l-37.912 34.426-38.351 34.060c-25.722 22.552-51.395 45.129-77.556 67.218l-2.584-2.584c22.089-26.185 44.69-51.858 67.218-77.58l34.060-38.327 34.45-37.937c1.243-1.365 2.462-2.731 3.682-4.096-30.257-33.499-55.125-71.753-73.070-113.25l-3.608-8.728c-1.195-2.926-2.511-5.778-3.511-8.753-2.097-5.949-4.413-11.8-6.315-17.822-1.829-6.022-3.925-11.995-5.559-18.091-1.536-6.12-3.316-12.19-4.657-18.359-4.974-22.187-8.314-44.812-9.582-67.657l-11.191-1.024-16.238-1.804c-10.825-1.341-21.626-2.658-32.451-4.389v-2.194c10.825-1.731 21.626-3.048 32.451-4.389l16.238-1.804 10.606-0.975c-0.293-22.504 1.317-45.129 4.925-67.511 0.975-6.339 2.341-12.605 3.511-18.92 1.268-6.29 2.974-12.507 4.462-18.773 1.609-6.242 3.682-12.337 5.534-18.505 1.926-6.144 4.291-12.142 6.437-18.237 16.677-43.715 41.911-84.261 73.411-119.223-1.585-1.804-3.17-3.608-4.779-5.364l-32.037-35.523-31.646-35.913c-20.943-24.113-41.911-48.152-62.391-72.728l2.584-2.584c24.552 20.48 48.616 41.448 72.728 62.391l35.913 31.646 35.523 32.037c1.682 1.512 3.365 2.999 5.071 4.51 15.092-14.385 31.305-27.624 48.494-39.473 21.48-14.75 44.446-27.404 68.486-37.669 45.861-19.797 95.793-30.062 145.701-30.769l1.56-14.799c1.341-11.532 2.658-23.064 4.389-34.597h2.194c1.731 11.532 3.048 23.064 4.389 34.597l1.56 14.872c49.883 1.268 99.596 12.044 145.091 32.134 3.023 1.195 5.925 2.706 8.85 4.12l8.777 4.267c5.803 2.901 11.435 6.193 17.14 9.265 2.072 1.195 4.096 2.462 6.144 3.73 29.208-36.279 46.763-70.339 46.763-70.339 6.266 33.816 6.046 70.339 3.34 106.74 7.826 6.802 15.36 13.946 22.577 21.333 3.413-2.974 6.802-5.949 10.142-8.997l35.255-31.768 35.645-31.378c23.918-20.748 47.811-41.545 72.192-61.854l2.584 2.584c-20.285 24.381-41.082 48.274-61.854 72.192l-31.378 35.645-31.768 35.255c-3.389 3.755-6.729 7.558-10.045 11.386 13.068 15.823 24.82 32.646 35.206 50.152 3.121 5.51 6.339 10.947 9.289 16.555zM441.198 804.425l8.826 1.17c2.95 0.366 5.851 0.926 8.826 1.146 5.925 0.488 11.8 1.146 17.701 1.512 5.925 0.195 11.825 0.512 17.725 0.658 2.341-0.024 4.681-0.024 7.046-0.049-0.073-0.463-0.122-0.951-0.195-1.414-0.707-5.925-0.756-11.849-0.098-17.774 0.634-5.925 1.682-11.849 3.218-17.774 0.61-2.267 1.292-4.559 2.048-6.827 1.219-3.657 2.658-7.29 4.608-10.947h2.194c1.926 3.657 3.389 7.29 4.608 10.947 0.756 2.267 1.438 4.559 2.048 6.827 1.536 5.925 2.584 11.849 3.218 17.774 0.658 5.925 0.61 11.849-0.098 17.774-0.049 0.293-0.073 0.61-0.122 0.902 85.382-4.632 168.034-36.864 234.715-91.819-6.144-5.291-12.312-10.581-18.432-15.872-12.873-11.191-24.966-23.162-36.206-35.962-10.459-11.874-20.48-24.162-30.062-36.937-67.852-2.072-126.074-18.237-126.318 99.864-6.095-5.656-11.874-10.411-17.359-14.434 1-10.167 0.926-20.309-0.171-30.476-1.097-10.191-2.56-20.382-3.243-30.574l-2.316-30.574-2.828-30.574c-2.097-20.382-4.12-40.765-6.827-61.147h-3.413c-2.706 20.382-4.73 40.765-6.827 61.147l-2.828 30.574-2.316 30.574c-0.683 10.191-2.146 20.382-3.243 30.574-0.512 4.827-0.805 9.655-0.853 14.507-39.205-5.534-66.17 38.839-115.127 92.136 20.309 6.802 41.106 11.874 62.098 15.067zM527.75 448.61l-15.97-15.97-15.97 15.97 15.97 15.97 15.97-15.97zM303.884 753.371c4.706-25.746 7.997-52.834 8.070-78.604-8.387 8.826-17.189 17.237-26.405 25.259-8.143 7.046-16.36 14.043-24.478 21.138 13.41 11.898 27.77 22.65 42.813 32.207zM247.832 209.432c-0.39-0.463-0.78-0.902-1.17-1.365-28.087 29.964-51.102 64.756-68.047 102.473-2.267 5.437-4.803 10.801-6.9 16.335-1.999 5.559-4.267 11.045-6.095 16.677-1.755 5.656-3.803 11.24-5.388 16.945-1.512 5.73-3.243 11.435-4.584 17.237-4.632 19.383-7.656 39.229-9.094 59.246 4.827-0.512 9.655-0.512 14.507 0.073 5.413 0.634 10.825 1.682 16.238 3.218 3.877 1.122 7.753 2.462 11.63 4.291 1.536 0.707 3.048 1.487 4.584 2.365v2.194c-1.536 0.878-3.048 1.658-4.584 2.365-3.877 1.804-7.753 3.145-11.63 4.291-5.413 1.536-10.825 2.584-16.238 3.218-5.12 0.61-10.264 0.585-15.384-0.024-0.171 20.578 1.243 41.228 4.73 61.611 0.951 5.949 2.292 11.849 3.438 17.774 1.219 5.925 2.877 11.727 4.315 17.627 1.56 5.851 3.56 11.557 5.315 17.359 1.829 5.778 4.12 11.386 6.217 17.067 15.823 40.107 39.326 77.312 68.852 108.837 7.192-8.216 14.287-16.53 21.431-24.795 11.24-12.898 23.235-25.039 36.059-36.328 3.852-3.413 7.778-6.754 11.727-10.069-9.557-46.836-36.937-81.189-97.061-80.579 29.086-28.843 45.3-56.515 53.077-82.042 1.902-0.146 3.828-0.293 5.73-0.512 9.338-1.097 18.7-2.56 28.038-3.243l28.038-2.292 28.038-2.828c18.7-2.097 37.376-4.12 56.076-6.827v-3.413c-18.7-2.706-37.376-4.73-56.076-6.827l-28.038-2.828-28.038-2.292c-9.314-0.683-18.627-2.146-27.941-3.243 2.389-67.17-48.542-112.664-48.542-112.664 51.322-23.333 87.893-26.673 118.174-31.403-6.924-4.364-13.605-8.972-20.187-13.702-13.068-9.46-25.551-19.48-37.571-29.989s-23.211-21.845-33.646-33.938zM648.753 118.418c-21.821-8.387-44.349-14.848-67.267-19.042-19.188-3.438-38.619-5.486-58.124-5.949 0.098 3.34-0.024 6.705-0.414 10.045-0.634 5.754-1.682 11.532-3.218 17.286-0.244 0.902-0.512 1.804-0.78 2.706-1.438 4.852-3.218 9.728-5.876 14.58h-2.194c-2.658-4.852-4.413-9.728-5.876-14.58-0.268-0.902-0.536-1.804-0.78-2.706-1.536-5.754-2.584-11.532-3.218-17.286-0.366-3.291-0.488-6.607-0.414-9.899-42.74 1.56-85.041 10.508-124.782 26.307-21.626 8.631-42.423 19.407-62.001 32.134-14.458 9.362-28.258 19.749-41.277 31.086 0.293 0.244 0.585 0.488 0.853 0.731 12.093 10.435 23.43 21.626 33.914 33.646 10.508 12.020 20.529 24.503 29.989 37.571 6.656 9.289 13.068 18.822 18.944 28.891 42.106-9.143 73.752-30.769 123.197-136.802 5.51 5.364 10.971 10.118 16.433 14.336-0.366 2.706-0.707 5.388-1 8.094-1.024 9.728-0.926 19.432 0.171 29.16s2.56 19.432 3.243 29.16l2.316 29.16 2.828 29.16c2.097 19.432 4.12 38.863 6.827 58.319h3.413c2.706-19.432 4.73-38.863 6.827-58.319l2.828-29.16 2.316-29.16c0.683-9.728 2.146-19.432 3.243-29.16 0.658-5.9 0.926-11.8 0.805-17.701 57.149 22.382 109.812-9.484 149.504-49.371-9.947-4.827-20.114-9.265-30.427-13.239zM817.957 244.2c-11.045-14.653-23.235-28.331-36.254-41.033-1.39 1.634-2.779 3.291-4.194 4.925-10.338 11.995-21.431 23.235-33.378 33.646-0.098 0.073-0.195 0.171-0.293 0.244-9.606 83.724-10.947 149.577 57.612 153.356-15.384 11.483-27.965 23.186-38.181 34.914-5.364-0.024-10.703 0.244-16.067 0.853-9.826 1.097-19.651 2.56-29.452 3.243l-29.452 2.292-29.452 2.828c-19.651 2.097-39.278 4.12-58.929 6.827v3.413c19.651 2.706 39.278 4.73 58.929 6.827l29.452 2.828 29.452 2.292c7.412 0.512 14.799 1.463 22.211 2.389-41.935 80.238 9.094 152.917 9.094 152.917-11.581 4.803-23.406 7.631-35.23 9.216 5.022 4.145 9.996 8.363 14.872 12.654 12.8 11.264 24.771 23.357 35.962 36.206 5.681 6.583 11.337 13.214 17.042 19.797 13.166-12.849 25.454-26.722 36.62-41.545 3.511-4.901 7.168-9.728 10.557-14.75 3.267-5.096 6.705-10.094 9.85-15.287 2.999-5.266 6.168-10.459 9.021-15.848 2.731-5.437 5.681-10.776 8.192-16.335 19.212-40.984 29.94-86.235 31.305-131.828-3.56 0.317-7.144 0.219-10.703-0.268-4.657-0.634-9.314-1.682-13.97-3.218-4.657-1.585-9.314-3.511-13.97-6.656v-2.194c4.657-3.145 9.314-5.096 13.97-6.656 4.657-1.536 9.314-2.584 13.97-3.218 3.535-0.488 7.070-0.585 10.606-0.293-1.682-45.154-12.459-89.893-31.525-130.438-2.511-5.559-5.461-10.898-8.192-16.311-2.828-5.364-6.022-10.557-9.021-15.823-3.145-5.193-6.583-10.191-9.85-15.262-3.438-4.974-7.095-9.801-10.606-14.702z" />
<glyph unicode="&#xe90a;" glyph-name="amazon-bow-strike" d="M849.554 206.434l-7.412-9.070 12.507-15.799-13.58 14.482-96.256-117.638c-32.817 2.658-34.938 31.256-21.821 72.753l-186.734 129c-23.040-27.429-46.153-44.934-69.461-44.251l-91.16-19.212 0.195 19.505c0.585 60.27 8.411 120.393 23.942 178.225 15.384 57.49 38.327 112.591 67.413 163.84l-21.309 159.793-5.851 16.043c-33.451-45.105-83.188-137.167-103.887-219.209l-13.239 30.891c-23.259-60.44-38.644-123.197-44.495-188.782l-35.523 20.017 36.108-249.612 71.558-55.881 170.203 98.475 149.553-83.188-17.164-115.688 142.58 15.994c0 0 11.63 174.568 149.845 155.672l-23.284 43.642h-72.728zM474.722 576.951l-0.536-1.097c-25.332-52.955-44.008-108.812-54.979-165.912-10.142-52.517-13.751-105.96-11.483-159.013l37.4-4.584c0.366 29.867 5.73 206.848 82.895 262.705l12.776 6.997-20.041 21.358 17.457 43.642 35.523-44.861 73.582 292.913-71.022-46.153-6.071 46.153c-29.184-22.357-91.989-80.482-112.908-121.539l17.262-129.536 0.146-1.073zM204.41 225.182c-0.122 0.512-0.268 1-0.39 1.512-5.998 23.454-11.459 47.031-16.482 70.729-4.974 23.698-9.435 47.494-13.361 71.387s-7.339 47.884-9.972 71.973c-2.633 24.088-4.803 48.25-5.851 72.485-1.073 24.235-1.609 48.494-0.683 72.777 0.073 6.071 0.463 12.142 0.829 18.213 0.39 6.071 0.585 12.142 1.243 18.188l1.682 18.164 2.365 18.091c1.56 10.679 3.413 21.309 5.583 31.89 8.826 50.883 23.308 103.765 42.228 158.184 0 0-167.302-157.55-138.216-467.432l35.645 49.079c-0.707-26.551 2.194-78.555 14.531-113.932l-17.822 11.874 12.41-66.194c-7.582 7.607-28.306 33.402-44.763 67.145 0 0 8.899-87.479 55.272-180.322 20.309-40.643 20.919-58.149 11.654-60.855 47.323-45.812 113.859-87.796 154.551-111.518-25.234 35.206-76.581 120.71-90.453 248.564zM180.273 638.464l-1.975-17.603c-0.756-5.851-1.048-11.776-1.56-17.676-0.463-5.9-0.951-11.8-1.146-17.749-1.365-23.698-1.292-47.543-0.707-71.412s2.267-47.738 4.413-71.582c2.146-23.845 5.071-47.665 8.509-71.412s7.412-47.445 11.922-71.046c0.39-1.975 0.78-3.95 1.17-5.949 0.122 24.186 1.634 49.542 4.876 76.069 4.535 37.035 14.848 74.825 29.233 112.372l1.317 10.825 1.755 14.312c0.561 4.779 1.122 9.557 1.999 14.263l4.803 28.428 2.414 14.214 3.048 14.092 6.095 28.209c2.194 9.362 4.827 18.627 7.217 27.965l3.682 13.97c1.17 4.681 2.779 9.216 4.145 13.848l8.558 27.599c12.459 36.474 26.746 72.411 43.764 107.13l6.437 12.995c2.146 4.34 4.559 8.533 6.827 12.824 2.316 4.242 4.559 8.533 6.949 12.751l7.363 12.556c2.389 4.218 4.998 8.314 7.607 12.434 2.316 3.657 4.584 7.314 7.022 10.898l5.583 30.744-109.836-135.387-12.166 31.281c-22.138-35.352-42.569-73.679-61.391-114.761-1.999-9.192-3.779-18.432-5.339-27.746l-2.584-17.457zM367.226 838.802l-7.412-12.044c-2.414-4.047-4.681-8.192-7.046-12.288-2.292-4.12-4.754-8.168-6.924-12.361l-6.558-12.556c-17.384-33.597-32.207-68.559-45.251-104.18l-9.021-26.99c-1.438-4.51-3.145-8.972-4.389-13.556l-3.925-13.702c-2.56-9.143-5.364-18.237-7.729-27.429l-6.632-27.721-3.316-13.873-2.682-13.995-5.266-27.404c97.109 213.65 308.224 409.502 308.224 409.502-71.631-27.404-133.388-43.593-178.42-70.558-2.048-2.95-4.023-5.973-6.022-8.972-2.609-3.901-5.218-7.826-7.631-11.874zM113.225 98.67c-16.628 11.8-36.425 31.793-51.468 53.199 0 0 2.511-70.217 67.657-119.369 64.585-48.738 141.946-67.072 169.374-72.338-44.471 25.21-133.461 79.653-185.563 138.508zM520.753 537.405l20.041-21.382 313.832-334.458-316.416 399.482z" />
<glyph unicode="&#xe90b;" glyph-name="amazon-double-jump" d="M124.757 387.023l7.997 10.118c10.85 13.336 22.187 26.38 35.011 38.132 12.727 11.776 26.575 22.601 42.155 31.037 3.779 2.267 7.948 3.925 11.971 5.803 1.999 1 4.145 1.658 6.242 2.414 2.121 0.731 4.218 1.512 6.339 2.219l9.801 2.487 3.34 0.536 6.705 1.024 6.802 0.39c9.070 0.244 18.261-0.536 27.038-2.926l3.316-0.805 3.218-1.073c2.146-0.756 4.315-1.39 6.412-2.243 4.145-1.804 8.338-3.535 12.239-5.778 4.047-1.999 7.704-4.559 11.532-6.924l5.413-3.925c1.829-1.268 3.56-2.658 5.266-4.096 6.973-5.51 13.214-11.776 19.285-18.139 11.874-12.946 22.406-26.965 31.671-41.643 9.314-14.653 17.652-29.867 25.186-45.397 7.558-15.531 14.36-31.403 20.553-47.47 5.925-15.433 11.288-30.866 15.994-46.982 1.707 9.923 2.462 19.895 2.804 29.915 0.146 5.339 0.219 10.679 0.049 16.018l-0.244 8.021-0.536 8.021c-1.634 21.406-5.291 42.91-11.8 64.341-6.632 21.358-15.799 42.862-30.135 63.269-7.119 10.191-15.628 20.066-25.722 29.111-5.047 4.51-10.533 8.802-16.384 12.751-5.925 3.852-12.093 7.607-18.749 10.654-13.19 6.29-27.746 10.533-42.374 12.507-3.657 0.39-7.339 0.878-10.971 1l-5.461 0.268-5.413 0.024c-3.657 0.073-7.144-0.317-10.728-0.512-3.608-0.293-7.656-0.731-11.386-1.365-7.607-1.17-14.97-3.194-22.065-5.51-7.070-2.341-13.726-5.339-20.090-8.509-12.702-6.461-23.723-14.336-33.573-22.723-19.554-16.945-34.060-36.011-46.397-55.198-8.655-13.531-16.189-27.209-23.162-40.911 0.414 0.561 0.829 1.146 1.243 1.707l7.607 10.362zM49.225 51.858c7.095 18.773 14.409 37.425 21.992 55.906 15.189 36.962 31.134 73.435 48.738 108.666 17.457 35.23 36.303 69.534 57.734 100.596 10.825 15.409 22.552 29.842 34.743 42.618 12.19 12.702 24.82 23.82 36.669 32.207 11.898 8.436 22.504 13.848 31.5 16.482 1.195 0.39 2.146 0.658 3.535 0.951 1.438 0.219 2.926 0.561 4.34 0.731l2.121 0.341 2.072 0.219c1.414 0.219 2.731 0.195 4.12 0.293 5.413 0.195 10.703-0.146 16.213-1.365 10.947-2.292 23.211-8.631 35.474-18.603 12.288-9.899 24.283-23.089 35.645-37.742 7.387-9.557 14.555-19.773 21.553-30.427-2.658 6.29-5.388 12.532-8.265 18.725-7.046 15.214-14.872 30.037-23.601 44.251-8.655 14.238-18.456 27.721-29.403 40.034-5.583 6.022-11.288 11.947-17.603 17.091-1.536 1.341-3.096 2.658-4.73 3.828l-4.852 3.657c-3.389 2.17-6.68 4.559-10.24 6.388-3.462 2.072-7.119 3.633-10.752 5.315-1.829 0.78-3.73 1.365-5.608 2.048l-2.804 1-2.877 0.731c-7.631 2.219-15.579 2.999-23.479 2.926l-5.949-0.219-5.925-0.805-2.974-0.414-2.926-0.707-5.851-1.39-5.754-1.902c-1.902-0.658-3.852-1.219-5.681-2.097-3.706-1.682-7.534-3.072-11.069-5.144-14.531-7.558-27.892-17.603-40.302-28.721-12.483-11.069-23.771-23.601-34.597-36.474l-7.997-9.777-7.656-10.069c-5.193-6.656-9.899-13.678-14.799-20.553-6.461-9.362-12.678-18.895-18.725-28.526-11.435-27.087-21.285-54.345-30.135-81.725-6.339-19.724-12.020-39.546-17.408-59.392-5.339-19.846-10.338-39.717-14.824-59.66-2.243-9.947-4.437-19.895-6.534-29.867v-113.225c1.999 5.754 3.998 11.508 6.046 17.237 6.729 18.944 13.653 37.815 20.821 56.564zM867.45 823.15c6.485-6.997 12.605-14.336 18.31-22.016 2.511-3.413 4.901-6.827 7.241-10.338l1.073 15.165c-1.341 1.999-2.706 3.974-4.169 5.925-7.144 9.752-15.677 18.968-25.356 27.355-9.777 8.265-20.773 15.628-32.646 21.333-5.925 2.877-12.044 5.315-18.237 7.461-2.633 0.878-5.266 1.658-7.924 2.389 6.242-3.17 12.312-6.656 18.188-10.459 15.945-10.338 30.525-22.845 43.52-36.815zM754.249 802.402c-8.948 5.022-18.773 8.265-28.965 9.533s-20.699 0.561-31.013-1.658c-10.313-2.219-20.407-5.876-30.135-10.435-19.48-9.167-37.571-21.626-54.565-35.328-7.241-5.9-14.287-12.117-21.187-18.456-7.046-13.726-13.361-27.55-19.115-41.423-14.824-35.913-26.624-72.046-36.547-108.373-9.85-36.352-18.164-72.753-25.015-109.349-6.973-36.547-12.605-73.192-17.31-109.885-4.535-36.718-8.363-73.46-10.386-110.299 9.972 35.499 20.651 70.632 31.963 105.496 11.24 34.865 23.259 69.413 35.938 103.497 12.849 34.036 26.258 67.706 41.106 100.401 14.824 32.67 30.647 64.61 48.616 94.281 8.972 14.824 18.383 29.086 28.379 42.301 4.998 6.607 10.167 12.922 15.384 18.895 5.242 5.998 10.606 11.557 15.97 16.725 2.706 2.536 5.413 4.998 8.143 7.241 2.682 2.316 5.364 4.486 8.070 6.437 2.658 2.024 5.388 3.73 7.973 5.413s5.169 3.096 7.68 4.34c2.511 1.292 4.974 2.243 7.314 3.17 2.341 0.878 4.632 1.634 6.827 2.121 2.243 0.512 4.34 0.805 6.558 1.073 3.218 0.317 6.412 0.585 9.484 0.658 9.289 0.171 17.603-0.683 25.234-2.731-1.999 2.438-4.023 4.827-6.193 7.095-7.217 7.582-15.262 14.263-24.21 19.261zM902.924 812.446l-0.975-38.083-0.488-18.846-9.094 16.872c-3.852 7.948-8.728 16.043-13.848 23.65-5.144 7.656-10.752 15.043-16.75 22.089-11.995 14.092-25.6 26.892-40.716 37.669-9.85 7.022-20.382 13.141-31.403 18.237-10.874 1.877-21.675 2.536-32.158 2.365-6.095-0.073-12.044-0.512-17.944-1.073-6.875-0.731-13.824-2.097-20.48-3.828-13.312-3.535-25.746-8.802-36.693-15.287-11.020-6.388-20.821-13.702-29.477-21.528-8.753-7.753-16.408-15.994-23.381-24.43-6.973-8.411-13.239-17.018-18.944-25.746-3.998-6.071-7.753-12.215-11.313-18.383 1.707 1.536 3.365 3.096 5.096 4.584 16.945 14.507 35.109 27.916 55.345 38.229 10.118 5.12 20.797 9.411 32.037 12.19 11.215 2.779 23.016 3.998 34.816 2.901 11.776-1.073 23.406-4.535 33.914-9.996 10.533-5.461 19.895-12.776 28.111-20.992 8.314-8.192 15.287-17.432 21.626-26.965 1.487-2.17 2.877-4.389 4.242-6.632 1.682-1.512 3.365-3.072 5.022-4.779 6.437-6.656 12.556-14.775 18.164-23.918l-54.15-4.901 167.936-117.76c18.042 142.726-6.949 234.082-30.086 285.452l-18.408-81.091zM300.617 208.896h175.153l8.533 30.671h-88.235zM464.408 30.744l2.365-0.536 20.017 73.387c6.778 24.43 13.678 48.811 20.821 73.118 7.022 24.332 14.214 48.616 21.699 72.802 3.682 12.093 7.314 24.235 11.166 36.279 3.828 12.069 7.558 24.137 11.557 36.133 7.778 24.064 16.286 47.884 24.942 71.607 8.582 23.771 16.847 47.592 24.649 71.607l11.703 36.035c3.974 11.995 7.753 24.064 11.581 36.133 3.95 12.020 7.607 24.162 11.362 36.303 3.779 12.117 7.582 24.259 10.85 36.645l-2.243 0.975c-6.656-10.947-12.751-22.138-18.92-33.353-5.827-11.337-11.581-22.747-17.115-34.231-5.461-11.532-10.581-23.186-15.726-34.865-5.071-11.703-9.728-23.552-14.482-35.377-9.216-23.747-17.457-47.884-24.649-72.314-7.144-24.454-13.848-49.006-20.675-73.509-3.486-12.239-6.705-24.527-10.021-36.791-3.34-12.264-6.461-24.576-9.63-36.888-6.217-24.649-12.142-49.347-17.871-74.094-5.656-24.771-11.045-49.566-16.311-74.411l-7.753-37.278-7.314-37.376zM171.374 241.786c-7.436-12.361-14.165-25.112-20.163-38.229-5.949-13.141-11.752-26.38-17.822-39.473-6.046-13.093-12.044-26.21-17.871-39.4-2.901-6.607-5.73-13.239-8.509-19.895-2.828-6.632-5.583-13.312-8.314-19.992-10.752-26.795-20.992-53.833-29.208-81.506l2.292-0.829c11.776 26.234 24.576 51.858 37.961 77.214 3.291 6.363 6.632 12.702 10.069 18.993 3.389 6.315 6.778 12.629 10.264 18.895 6.778 12.629 13.702 25.186 20.699 37.693 6.949 12.532 14.434 24.795 21.797 37.108s14.141 24.942 20.261 37.912c6.168 12.971 11.971 26.136 17.359 39.546 5.364 13.434 10.386 27.038 14.287 41.301l-2.121 1.17c-10.021-10.874-18.846-22.43-27.282-34.231-8.363-11.849-16.262-23.942-23.698-36.279z" />
<glyph unicode="&#xe90c;" glyph-name="amazon-fearless-scream" d="M931.279 405.772l-74.484 56.808 10.362 34.011-22.552 33.524c-56.539 17.506-128.098 2.194-162.28-37.986l-40.57-231.010-154.088 76.239-100.303-53.906-3.901 1.341-125.172 42.618-70.339 24.186c-55.784 14.092-99.279 32.89-121.783 59.709-2.804-26.356-0.244-52.322 7.631-77.922 2.194-3.34 4.413-6.68 6.68-9.972 21.553-31.525 45.787-60.879 74.094-85.041 28.184-24.186 60.855-42.618 96.866-51.566 8.997-2.17 18.164-3.925 27.477-5.047 2.316-0.293 4.657-0.463 6.997-0.707l3.511-0.317 3.535-0.195c2.365-0.122 4.73-0.317 7.095-0.366l7.119-0.098c19.066-0.171 38.302 1.975 57.807 4.974-2.219-1.048-4.462-2.072-6.729-3.072s-4.51-2.048-6.827-2.901c-4.608-1.755-9.265-3.535-14.019-4.998-9.46-3.17-19.237-5.388-29.135-7.144-9.923-1.707-20.041-2.536-30.232-2.779-10.191-0.146-20.431 0.561-30.598 1.95-10.191 1.414-20.236 3.779-30.11 6.802-9.899 2.926-19.48 6.851-28.794 11.313-9.289 4.462-18.237 9.63-26.843 15.238-8.533 5.73-16.701 11.947-24.503 18.53-31.11 26.624-55.589 59.514-74.654 94.501-3.096 5.705-5.973 11.483-8.777 17.31-10.533 0.707-20.992 1.999-31.354 3.901v-375.32h587.849c-1.414 1.877-2.804 3.755-4.145 5.632 40.204 1.902 68.535 26.551 88.82 66.609-40.472-15.409-84.041-18.7-111.762 9.24 2.609 4.462 6.558 8.338 12.215 11.483 31.451 17.481 142.409 53.394 181.199 51.736s68.364 2.926 68.364 2.926l20.821 7.461-0.341 41.155 13.922 45.909-33.329 16.896 2.487 52.931c6.754 20.48 28.965 36.45 28.965 36.45l30.866 4.706 4.681 33.256-15.238 8.802 39.619 38.595-6.12 13.605zM262.144 339.944l122.904-34.572 106.203 61.757 36.133 87.845 18.822 45.666 14.385 34.377-59.197 64.341c-11.142 12.069-22.504 23.942-33.768 35.889-6.046 6.388-12.093 12.751-18.164 19.139-4.754-3.218-9.509-6.437-14.287-9.582-10.654-6.997-21.333-13.946-32.158-20.675-10.801-6.778-21.699-13.41-32.646-19.944-6.583-3.925-13.214-7.826-19.846-11.678l2.926-21.236c1.658-12.8 3.413-25.6 4.925-38.424 1.609-12.824 3.096-25.649 4.535-38.498 0.122-1.073 0.219-2.121 0.341-3.194 2.755 3.34 5.51 6.705 8.29 10.045l8.314 9.826 8.436 9.728c5.608 6.51 11.362 12.922 17.213 19.261l4.291-2.804c-3.438-7.924-6.973-15.774-10.654-23.528l-5.486-11.654-5.608-11.581c-7.582-15.384-15.336-30.647-23.284-45.763l-17.579-33.451-10.338 39.058c-3.316 12.507-6.607 25.015-9.752 37.547-3.17 12.532-6.29 25.064-9.314 37.62-3.096 12.532-5.973 25.137-8.923 37.693l-8.558 37.766-3.365 14.872 14.165 9.923c10.459 7.314 20.87 14.677 31.403 21.894 10.508 7.217 21.090 14.336 31.768 21.309 10.654 7.022 21.431 13.824 32.232 20.578 10.825 6.729 21.772 13.263 32.744 19.797l19.797 11.8 13.312-16.628c10.264-12.824 20.334-25.819 30.525-38.693 10.191-12.898 20.309-25.844 30.622-38.619l69.73-85.894-4.779-9.972-21.358-44.52-21.602-44.422-42.618-87.552 108.593-53.736 35.572 202.508 2.097 2.658c40.936 51.761 128.098 71.314 196.827 48.421-4.12 79.726-26.575 99.109-74.167 154.965l-41.204-25.112c-19.358 8.802-43.544 18.7-66.828 25.283l-69.998 124.66-238.080 29.964-211.432-131.608-73.338-230.4 66.901-130.243 3.218-1.317 111.104-30.891z" />
<glyph unicode="&#xe90d;" glyph-name="point-mana-pool" d="M512.073 949.736c0 0-398.336-289.694-389.803-651.069 5.144-218.112 174.519-352.402 389.803-352.402s389.803 134.242 389.803 352.402c0 371.371-389.803 651.069-389.803 651.069z" />
<glyph unicode="&#xe90e;" glyph-name="point-health-pool" d="M939.081 693.029h-185.71v185.71c-17.457 17.457-27.234 27.234-44.69 44.69h-393.362c-17.457-17.457-27.234-27.234-44.69-44.69v-185.71h-185.71c-17.457-17.457-27.234-27.234-44.69-44.69v-393.338c17.457-17.457 27.234-27.234 44.69-44.69h185.71v-185.71c17.457-17.457 27.234-27.234 44.69-44.69h393.338c17.457 17.457 27.234 27.234 44.69 44.69v185.685h185.71c17.457 17.457 27.234 27.234 44.69 44.69v393.362c-17.432 17.457-27.209 27.234-44.666 44.69z" />
<glyph unicode="&#xe90f;" glyph-name="point-tower" d="M772.73 933.035l-34.085-153.917h-58.027l-34.085 153.917h-269.093l-34.085-153.917h-58.027l-34.060 153.917h-134.997l-30.793-345.088c31.549-28.453 95.646-91.038 118.491-111.64l-80.311-362.106 379.441-151.235 379.441 151.235-60.075 364.3c21.821 19.675 85.626 82.018 116.053 109.446l-30.793 345.088h-134.997z" />
<glyph unicode="&#xe910;" glyph-name="celt-inspire" d="M475.453 402.456l37.498-2.097c-54.686 40.692-166.814 160.841-232.18 266.825-74.094 120.149 71.997 65.487 71.997 65.487-114.225 115.249-262.217 104.497-252.172 22.114 7.168-58.929 35.206-126.61 145.481-249.368 70.851-8.241 89.454-94.818 151.845-153.819 254.123-210.676 574.44-259.633 574.44-259.633l-72.802 58.587c-130.365-10.971-424.107 251.904-424.107 251.904zM611.060 368.713c45.105 34.133 87.016 70.851 123.709 104.521 0.098 26.624 32.11 81.603 74.021 76.264 155.234 166.181 110.275 223.11 76.849 225.938-33.597 2.853-124.757-3.438-176.274-73.362 0 0 122.344 35.157 84.114-31.134-19.188-33.28-81.896-138.484-242.054-265.801l59.636-36.425zM234.496 141.434c-66.511-26.258-120.466-93.184-177.225-145.359 0 0 209.457 124.489 399.336 261.559l-46.568 31.378c-43.861-40.253-81.481-60.465-132.315-108.373 0.195-14.312-11.459-26.673-43.227-39.205zM518.534 920.917c-19.212-70.558-10.313-121.783-40.229-144.628l-21.699-168.082 49.128-49.957 36.303 44.398-23.503 318.269zM498.712 193.731l-31.427-42.569 51.249-179.493 23.479 179.493zM736.354 401.993l-51.249-36.742 50.956-14.238c43.642 21.358 106.837 23.162 181.467 30.281l-181.175 20.699zM139.069 362.545l-82.993-26.575 224.232-7.412 19.212 18.505-42.715 21.65zM821.76 232.57l-55.515 51.81h-34.182zM584.728 658.164l66.194 144.335-66.194-86.967z" />
<glyph unicode="&#xe911;" glyph-name="celt-jump-attack" d="M406.65 825.027c33.036-39.96 63.439-82.31 89.21-127.561 25.795-45.202 46.787-93.306 62.050-143.238 15.311-49.932 24.917-101.522 29.842-153.502v-15.433l-197.754 107.252-6.388 2.487 233.204-317.562 174.275 308.565-11.605-5.534-133.047-90.917-1.804 19.237c-4.486 41.082-12.142 82.091-22.333 122.368-10.24 40.277-23.235 79.921-39.424 118.248-16.238 38.278-35.742 75.264-59.246 109.641-5.12 7.485-10.459 14.799-15.97 22.016-51.176 46.324-107.934 83.822-162.987 113.786 21.309-22.626 42.106-45.812 61.976-69.851zM640.195 536.113c10.045-34.304 18.237-69.12 24.308-104.448l21.528 16.994c-13.629 122.124-68.803 219.258-140.8 295.692 19.139-28.331 35.816-58.295 50.322-89.259 17.92-38.4 32.67-78.287 44.642-118.979zM568.856 415.939c-4.291 45.349-12.288 90.356-24.771 134.193-13.946 49.201-33.597 96.792-58.1 141.848-24.478 45.080-53.687 87.601-85.699 127.902-22.918 28.891-47.226 56.686-72.241 83.87-24.478 12.727-48.445 23.991-71.29 33.865h-170.203c344.259-157.208 408.527-373.736 417.231-484.303l65.073-37.376zM266.898 138.264c0.585-0.39 1.17-0.78 1.78-1.17 0 0 0.024 0 0.024-0.024v0c7.314-4.754 16.311-9.655 27.136-14.726 156.599-73.24 485.79-4.218 485.79-4.218-246.686-37.035-363.642 21.114-390.046 31.159-109.446 41.594 89.478 90.088 89.478 90.088-14.726 1.56-46.909-0.195-83.017-5.12l-44.105 41.106c0 0 18.53-37.547-4.364-29.282-26.795 9.679-40.253 67.462-40.253 67.462s-5.315-40.96-18.505-49.25c-38.571-24.21-11.654 164.718-11.654 164.718s-152.942-199.29-12.264-290.743zM938.862 301.495c-9.509 48.006-31.061 89.478-54.638 129.829 11.435-61.391 8.192-116.712-0.512-162.182-24.21 2.121-62.61 2.682-122.124-2.365 0 0 72.509-8.606 114.371-31.061-16.14-59.197-38.985-94.866-38.985-94.866 93.818 23.016 129.243 60.952 129.243 60.952 5.461 47.592 2.926 107.837-13.044 148.675l-14.312-48.981zM74.362 455.582l-29.867 28.258-5.632-70.388c-7.582-94.988 6.875-183.759 63.293-264.875l5.461-5.949-71.753 8.802 74.289-89.844 35.767-0.951c66.584-37.644 250.88-113.201 524.898-2.024 0 0-94.062-26.258-201.24-25.405l-123.124 40.765 31.939-32.5c-32.232 6.022-63.586 15.799-91.989 30.671-34.255 24.844-95.5 79.579-123.465 168.497-62.245 197.998 62.098 370.127 62.098 370.127-110.86-49.493-150.674-155.185-150.674-155.185zM666.478 179.59l57.661 20.212 57.661 143.97c0.024 0-111.957-162.499-115.322-164.181zM510.293 267.995l22.309-77.458 22.333 16.408z" />
<glyph unicode="&#xe912;" glyph-name="celt-rally" d="M531.358 180.126l-50.664 143.287 346.307 115.444-40.131 19.407-48.445 123.246-21.992 18.408 92.696 135.485-139.483-96.354-54.418 45.519-11.825 101.035-50.054 54.613c-54.54-10.191-86.942-35.547-101.986-72.826l-2.731-89.21-23.138-2.097-57.198 75.166 25.527-93.94-28.038-32.817 11.069-96.28-64.975-71.144-19.627 5.534-18.091-16.335-95.988 174.397-107.52 112.664 49.664-150.991 124.904-162.28-11.703-10.557 7.241-34.743 14.604 15.262 23.65-39.668 14.043 7.582 17.774-23.089 20.797 7.095-15.628 28.404 17.189 9.289 113.957 107.081 40.643-70.315v-24.576l-179.322-173.3-3.34-14.482-81.896-70.851 72.606 30.549-5.608-24.381 51.273-180.98h84.358c3.73 50.42 18.188 177.323 18.188 177.323l87.308 44.422zM467.066 723.602l-2.731 19.115 37.205-8.875 63.147 9.435v-17.627l-50.176-11.605-4.096-61.781h-12.288l-9.557 62.464-21.504 8.875zM575.488 192.707l26.405-63 13.117-31.622 6.51-15.945 3.243-8.119 1.341-3.486 227.718-72.265 63.537 228.45-81.237 197.071-306.493-122.539 45.861-108.544zM868.303 224.402l-32.695-141.58-55.32 110.982 88.015 30.598zM680.887 314.002l48.006-103.473-95.256-38.132-49.737 107.983 96.987 33.621zM803.011 585.362l30.988-7.144 107.252 73.070-127.829-24.478zM674.84 801.768l-2.999-39.546 46.104 10.508 78.507 137.094zM289.061 691.517l-3.243 35.767-153.6 159.281 118.662-195.852zM146.432 350.184l-79.701-37.888 123.587 22.040zM230.229 207.628l22.528 43.471-75.166 0.146-120.149-110.738zM184.222 18.603l47.543 41.448-6.095 34.133z" />
<glyph unicode="&#xe913;" glyph-name="celt-spear-throw" d="M551.278 135.558l146.139-39.448 0.146-137.728h78.068l41.472 201.484c-12.483 21.918-20.309 35.694-32.792 57.612l-156.745 54.199-0.39 21.772-68.462 6.193-7.436-164.084zM864.402 523.288c-137.63 63.854-256.341 56.052-256.341 56.052l-46.153-0.853 24.040 10.142c6.242 25.186-0.463 37.986 17.213 47.957l-18.286 21.943-11.41 30.208c6.12 17.115-4.73 35.718-22.674 38.644-53.931 8.777-77.97-8.411-88.308-21.797-23.357-5.656-46.080-18.213-49.493-45.422-48.518 8.728-77.044-11.727-92.55-30.793 3.779-0.244 7.558-0.536 11.313-0.951 11.8-1.268 23.503-3.486 34.914-6.68 5.705-1.634 11.313-3.535 16.823-5.73 5.486-2.219 10.825-4.803 15.97-7.656 5.144-2.901 10.021-6.217 14.653-9.826 4.584-3.682 8.802-7.753 12.678-12.117-4.242 3.998-8.753 7.656-13.58 10.874-4.852 3.145-9.899 5.949-15.141 8.338-5.266 2.341-10.63 4.364-16.116 6.071-5.51 1.634-11.069 2.999-16.701 4.096-11.264 2.097-22.699 3.243-34.133 3.486-5.705 0.122-11.435 0.049-17.115-0.219-0.341-0.024-0.658-0.049-1-0.049-0.219-0.366-0.439-0.707-0.658-1.048-10.654-0.512-22.114-2.341-34.718-5.925-9.314 68.681-42.91 86.040-39.546 132.559l26.063 17.652-0.926 5.022h329.826l32.768-26.136 144.725 43.934-148.602 55.564-48.469-43.52h-315.709l-2.853 15.336-63.171-3.511-4.315-11.825h-165.035v-29.842h155.648c7.704-88.088 6.802-170.74 29.72-223.159 6.388-6.9 11.288-12.166 17.701-19.066l51.541-13.458c-12.751-17.189-25.551-42.008-28.526-74.459-9.947-108.471-92.648-182.857-92.648-182.857s152.454-3.755 225.621 224.939c47.592-29.574 82.139-50.274 62.488-93.696-8.972-19.846-20.139-41.984-29.794-60.514l212.846-19.261-1.829 100.279c62.586 79.653 2.511 116.37 2.511 116.37 16.165-4.413 36.84-21.943 43.813-43.837 55.101 18.968 111.421 13.117 187.733 0.805l68.803-64.902-2.438 66.243-61.172 42.594zM112.884-41.618h147.724l53.711 37.693c-38.132 10.923-75.191 24.747-111.567 39.668l-89.868-77.361zM382.61 94.232c-24.478 5.925-48.567 12.922-72.338 20.724-10.776 3.535-21.48 7.266-32.134 11.142l-74.703-76.971c44.788-16.018 90.112-30.354 136.241-39.765 24.552-5.022 49.323-8.631 74.191-10.63 20.919-1.707 41.886-2.292 62.854-1.95l8.753 82.408c-9.411 0.195-18.725 0.78-27.916 1.755-25.527 2.633-50.444 7.436-74.947 13.288zM401.067 304.030c-24.869-25.99-49.713-51.712-74.874-77.263l-75.825-76.507 2.609-0.829 8.826-2.731c5.9-1.78 11.8-3.535 17.725-5.218 11.849-3.365 23.747-6.534 35.694-9.484 23.869-5.925 47.909-10.996 72.021-14.946 24.113-3.877 48.299-6.68 72.241-7.339 11.971-0.39 23.82-0.049 35.426 0.975 7.631 0.683 15.141 1.755 22.382 3.267l28.477 183.808-144.701 6.266z" />
<glyph unicode="&#xe914;" glyph-name="celt-spear-thrust" d="M879.835 440.466l-36.888-1c-24.576-0.488-49.176-0.463-73.752 0.073-24.576 0.634-49.176 1.146-73.752 1.634l-147.505 2.56c-49.176 1.146-98.328 2.048-147.505 3.413v1.707c49.176 1.365 98.328 2.267 147.505 3.413l147.505 2.56c24.576 0.463 49.176 1 73.752 1.634 24.576 0.536 49.176 0.585 73.752 0.073l36.888-1c12.288-0.512 24.576-0.853 36.888-1.536 19.578-0.951 39.156-2.121 58.734-3.779l-228.596 113.566c0 0-14.117-43.837-125.099-57.32s-158.403 43.837-158.403 43.837l-98.353-79.141h-342.626v-46.299h342.626l98.353-79.141c0 0 47.421 57.32 158.403 43.837s125.099-57.32 125.099-57.32l228.596 113.566c-19.578-1.658-39.156-2.853-58.734-3.779-12.312-0.707-24.6-1.048-36.888-1.56zM491.837 99.109l-29.477-125.513 140.312 218.258 58.758 166.327-62.074-6.9-221.233-85.748 102.814 19.944 68.267 15.433-60.562-102.424 100.401 77.239c-14.19-77.093-55.954-143.214-97.207-176.616zM442.27 220.233l-53.979-25.771-127-121.563 163.035 99.352zM337.701 683.983c0 0 243.883-150.040 249.612-150.040s57.271-4.023 57.271-4.023l-7.582 58.1-166.693 243.712-132.608 88.405c86.357-98.67 177.396-195.852 206.604-312.832l-206.604 76.678zM341.821 723.919l66.316-26.941-33.158 48.835-189.269 119.564zM22.382 398.043v-22.211l316.318 22.211z" />
<glyph unicode="&#xe915;" glyph-name="celt-call-to-arms" d="M263.022 521.874l1.317 1.487c9.947 11.264 21.333 21.382 33.938 29.72 12.605 8.363 26.405 14.921 40.741 19.578l2.633 0.853 2.511-1.097c15.067-6.51 29.989-13.848 44.056-22.942 14.043-9.070 27.331-20.041 37.937-33.719l1.17-1.487 0.293-1.877 15.311-102.254 32.037-15.97 28.818 29.306 3.438 44.544v1.317l1.219 2.194 30.574 54.833 7.997 105.984-47.811 49.469 12.8 95.817-61.050-62.44-14.458 5.437-19.797 108.056-55.272 32.987c-40.619-2.267-69.071-18.286-83.31-50.322v-92.379l-44.739-13.263-32.597-37.522-132.047 48.494 127.39-90.453 1.902-47.494-64.61-93.964-32.987 19.334-42.594-55.735 56.393-44.983 122.27 61.684 26.161 54.857 0.366 1.95zM336.677 765.147l59.392 18.139v-18.139l-43.325-28.77-7.826-58.685-22.284 59.392-22.26 16.482-6.607 29.696 42.91-18.115zM560.396 243.419l-176.494-36.62 35.206-248.418h242.761l-34.011 141.8zM957.489 309.687l-53.297 48.786-12.361 75.069-13.166 17.944 66.56 135.973-98.426-92.526-9.435 12.849-61.050 28.038-8.485 110.641-37.108 47.006-68.998 16.969c0 0-30.549-11.045-47.592-29.55l-15.628-51.907 1.682-102.473-42.862-17.31-35.694-44.52-7.363-95.208-0.829-10.825-83.87 41.813-0.561 3.755-15.579 104.009c-9.094 11.313-20.602 20.846-33.158 28.965-12.337 7.973-25.673 14.629-39.375 20.651-12.19-4.194-23.82-9.85-34.548-16.945-10.947-7.241-20.894-15.994-29.769-25.795l-8.802-45.129 7.509-74.289-79.189-33.816-32.183-53.858-95.208-13.141 78.97-26.331-11.849-56.174-39.473-48.64-3.901-156.184 52.005-16.677 21.675 36.523-18.676 26.478 51.273 114.761 50.59 51.468-8.655-167.619-34.694-94.159h174.787l-30.793 272.262 228.352 34.718 69.656-154.258 26.453-152.722h246.296c2.731 120.759-27.234 375.832-330.313 369.445 0 0 306.664 91.038 361.935-272.872l13.775 93.282-8.631 161.524zM386.17 457.679l-25.381-3.511-3.901-75.069h-12.361l-7.875 72.582-22.284 4.34-17.944 21.455h104.57l-14.824-19.797zM747.447 615.302l-17.627-12.069 5.534-80.75-19.163-0.244-10.021 74.825-47.592 6.217-20.626 28.038 76.483-4.291 33.914 11.166-0.902-22.894zM788.773 749.202l-8.509-50.469 44.3-1.292 134.168 157.867zM649.826 886.15l-70.315-76.337 17.067-38.424zM216.771 787.407l-126.171 119.003 89.429-142.75 30.72-8.631z" />
<glyph unicode="&#xe916;" glyph-name="knight-long-jump" d="M542.939 499.151c23.040-21.504 45.251-43.886 66.731-66.95l-7.534 51.736c-30.037 30.086-118.028 109.373-267.435 174.031 0.39-0.244 0.78-0.488 1.17-0.731 36.645-23.186 72.582-47.689 107.227-73.996 34.645-26.258 67.998-54.345 99.84-84.090zM261.754 683.715c-69.218 25.722-148.968 47.689-239.397 61.708v-8.899c9.728-4.559 19.432-9.192 29.086-13.897 73.46-35.718 145.115-75.41 213.699-120.149 68.535-44.739 134.168-94.33 194.316-150.406 30.037-28.038 58.685-57.71 85.211-89.307 13.263-15.799 25.966-32.158 37.937-49.103 5.973-8.485 11.752-17.14 17.286-25.99 2.755-4.437 5.461-8.923 8.070-13.507 1.292-2.292 2.584-4.608 3.852-6.949 1.292-2.414 2.438-4.608 3.779-7.436v0l7.436-16.408h-18.066l-259.365-4.998 527.116-232.667-271.019 762.197 36.279-380.635 5.925-40.594-26.283 31.33c-29.306 34.938-60.099 68.632-92.55 100.693s-66.56 62.44-102.181 91.063c-35.621 28.623-72.704 55.467-110.714 81.042-16.652 11.191-33.475 22.114-50.42 32.914zM514.17 266.313l47.397-1.097c-1.56 2.95-3.145 5.876-4.779 8.802-4.608 8.143-9.484 16.189-14.58 24.137-10.191 15.872-21.138 31.33-32.695 46.348-23.089 30.086-48.299 58.636-74.996 85.821-53.394 54.345-112.469 103.253-174.616 147.797-62.196 44.544-127.61 84.651-194.999 121.125-14.092 7.631-28.282 15.067-42.545 22.382v-132.315c179.102-56.393 335.458-164.425 491.813-322.999zM144.75-23.040l717.824 0.902c-143.067 23.454-281.21 67.828-415.573 128.268l64.61-76.605-79.311 8.509-287.549-61.074zM370.59 89.722l-51.761 42.984-214.723 63.098 157.867-90.941zM736.817 701.391l-88.405 162.914 53.053-202.069 48.933-69.339zM897.219 221.403l-21.211 225.743-76.459 321.585 0.853-305.615-68.998 47.421c61.099-145.92 109.349-192.634 165.79-455.948v-79.774h85.87v931.986h-85.845v-685.397z" />
<glyph unicode="&#xe917;" glyph-name="knight-retaliate" d="M590.19 195.511c-6.754 23.576-10.776 47.055-12.288 69.973-7.168-1.365-14.336-2.731-21.528-3.998l-17.091-2.487c-5.705-0.805-11.386-1.78-17.164-2.243-11.532-1.122-23.016-2.56-34.67-3.023-5.827-0.293-11.605-0.78-17.457-0.926l-17.554-0.293c-23.454 0.024-47.104 1.219-70.778 4.413-11.849 1.658-23.723 3.608-35.572 6.363-5.925 1.268-11.849 2.877-17.798 4.535-0.39 0.122-0.805 0.244-1.195 0.366 2.219-20.992-0.268-41.935-7.339-61.367l-17.335-47.689 139.947-72.753 170.667 50.493c-9.192 18.31-16.896 37.937-22.845 58.636zM65.219 613.449v-31.159l-28.648-33.67 28.623-21.894 31.159 31.037 24.405-11.678 109.446-135.558 88.869-19.773 7.973-50.932 10.801-58.051c0.317-0.122 0.658-0.268 0.951-0.39l3.535-1.317c2.341-0.902 4.876-1.634 7.29-2.462 4.974-1.487 9.972-2.999 15.092-4.169 10.191-2.584 20.651-4.462 31.134-6.095 21.041-3.145 42.472-4.462 63.951-4.632l16.14 0.146c5.388 0.073 10.752 0.512 16.14 0.756 10.776 0.366 21.504 1.658 32.256 2.658 5.388 0.414 10.728 1.317 16.091 2.048l16.067 2.292c7.387 1.292 14.775 2.682 22.162 4.072-3.218 107.496 48.713 200.485 134.071 224.402 1.048 0.293 2.097 0.561 3.145 0.829l-19.237 19.237-110.69 42.935-24.869-7.387-95.11-57.125 64.098 56.198-16.14 51.249 14.507 25.6-15.311 17.969-13.044 38.522-41.716 28.209-2.536 30.306-39.57 5.047c-14.604-28.623-33.134-48.201-58.051-65.682l-31.549-73.435-6.534-84.846-8.85 6.729h-54.979l-76.605 53.053-9.338 37.912 36.401-1.755 4.437 40.667-5.388 3.438 73.24 72.948c0 0 50.493 44.251 86.455 58.734 53.37 21.48 107.179 15.36 107.179 15.36s-14.287 33.207 40.448 67.779c44.666 28.209 84.163 32.402 84.163 32.402s-132.51 34.499-225.646-6.729c-98.889-43.788-213.016-196.169-213.016-196.169l-43.788 0.853 6.778-42.057-10.898-4.218-45.495-52.2zM508.44 601.356c0 0-17.31-58.587-29.769-19.529l29.769 19.529zM438.735 580.608c-23.723-39.058-56.734 19.529-56.734 19.529l56.734-19.529zM431.323 60.562l-5.973 3.828-47.006 30.037-72.046-136.046h258.633c-3.316 5.632-6.485 11.337-9.435 17.091-10.264 20.066-18.359 40.716-24.674 61.586-5.413 18.091-9.704 36.133-12.312 54.54l-87.186-31.037zM372.736 98.011l-59.148 37.815-99.084-177.445h70.022zM746.082 12.264c-52.395 19.651-98.572 60.977-127.537 114.907l-90.331-32.134c3.682-17.871 9.118-35.816 15.677-53.297 7.412-19.749 16.555-39.083 27.55-57.49 5.315-8.875 11.093-17.53 17.31-25.844h171.983l-14.653 53.858zM715.362 475.258c-98.499-27.087-149.845-148.846-114.664-271.921s143.555-200.899 242.078-173.812c98.499 27.087 149.845 148.846 114.664 271.921s-143.555 200.899-242.078 173.812zM808.667 406.967l-32.817 33.085c64.317-18.505 92.916-77.946 92.916-77.946-33.792 35.621-60.099 44.861-60.099 44.861zM892.879 90.648l-19.773 75.922c0 0 50.517 41.545 10.996 161.89-0.024 0 89.307-115.566 8.777-237.812z" />
<glyph unicode="&#xe918;" glyph-name="knight-shield-bash" d="M690.322 150.991c121.442 68.315 142.141 261.949 46.202 432.494s-272.165 253.44-393.606 185.125-142.141-261.949-46.202-432.494c95.939-170.545 272.165-253.44 393.606-185.125zM362.082 381.269c-74.435 132.34-58.392 282.6 35.864 335.604s230.985-11.288 305.42-143.628 58.392-282.6-35.864-335.604c-94.232-53.029-230.985 11.288-305.42 143.628zM428.13 924.77l-134.168-16.701-197.315-54.272 265.704 5.047-88.113-50.834c24.625 2.243 66.853-0.488 91.429 1.585 58.88 4.949 115.468 1.219 172.861-18.627 52.663-18.213 102.278-46.714 144.945-83.578 45.714-39.522 83.261-88.478 109.812-142.238 54.028-109.349 45.909-195.877 30.208-298.813-8.314-54.516-17.457-81.676-37.742-132.12 0 0 74.313 64.926 74.313 64.926 1.097-68.535-8.192-91.282-11.386-213.699l67.682 187.051 33.499 180.834c19.237 325.973-219.916 562.225-521.728 571.441zM63.512 242.59c44.934 76.41 104.277 155.112 144.847 179.395-14.531 46.104-20.529 116.151-6.778 180.126l-138.069-359.522zM266.728 168.034l43.788 60.611-55.881 103.18-191.122-340.968c74.898 99.694 218.722 313.442 203.215 177.176zM212.139-9.947l199.924 147.285c0 0-37.888 26.112-40.424 26.941l-159.5-174.226zM631.637 92.136c-59.075-17.993-100.523-13.678-144.823-5.047-25.99-32.134-73.387-77.653-130.267-126.708h81.14l193.95 131.755zM556.081 668.867l12.020-62.342c121.368-47.835 149.821-198.12 149.821-198.12-6.778 140.581-103.448 223.134-161.841 260.462zM512.122 692.955l40.497-70.461-10.606 54.979c-18.018 10.508-29.891 15.482-29.891 15.482zM391.802 386.926c0 0 66.292-108.3 136.387-128.195l-34.109 46.738c0 0-49.566 23.357-102.278 81.457z" />
<glyph unicode="&#xe919;" glyph-name="knight-crusader-strike" d="M36.888 670.793c0 0-1.048-6.802-1.707-19.066 3.852-19.7 8.948-39.107 14.799-58.246 12.288-39.741 28.16-78.287 47.665-114.907 19.383-36.523 41.862-71.412 67.291-104.18 25.429-32.646 53.662-63.22 83.919-91.892l23.064-21.114 24.113-20.066c4.072-3.291 7.973-6.778 12.166-9.923l25.161-18.92c4.242-3.121 8.29-6.437 12.727-9.314 17.53-11.727 34.572-24.137 52.907-34.865 9.045-5.51 18.018-11.166 27.16-16.579l27.965-15.458c74.971-40.936 155.282-74.386 238.616-101.62-84.114 25.332-165.522 56.978-242.005 96.354l-28.55 14.897c-9.338 5.218-18.505 10.703-27.77 16.043-18.749 10.386-36.254 22.43-54.272 33.865-4.559 2.804-8.728 6.046-13.093 9.094l-25.941 18.53c-4.315 3.096-8.363 6.51-12.556 9.728-8.29 6.583-16.677 13.093-24.917 19.724l-23.942 20.821c-31.427 28.282-60.928 58.636-87.723 91.258-26.746 32.646-50.664 67.706-71.509 104.594-14.677 25.868-27.55 52.809-38.693 80.579 26.6-153.868 144.36-411.599 639.854-537.161l-24.357-46.519 39.229-14.824 54.565 50.615 178.834-46.202 48.177 28.306-199.558 78.482 17.847 63.025-50.761 9.362-23.503-44.885c-70.729 24.869-413.525 156.136-378.392 359.619 0.024-0.024-204.629-27.258-306.81 220.843zM872.57 888.442c0 0-115.2-35.547-128.341-90.77-12.898-54.15 50.005 41.545 128.341 90.77zM862.33 560.811c35.377 18.944 37.522 81.164 37.522 81.164s-72.704-99.986-37.522-81.164zM664.625 594.7c-29.818-36.523-104.204-20.407-56.027 56.149 30.476 48.421 16.018 102.619 16.018 102.619s-54.053-126.976-102.107-51.395c-29.794 46.86 30.452 92.379 30.452 92.379s-49.128 22.26 6.461 32.158c112.664 20.066 198.022 121.198 198.022 121.198-1.804-2.146-117.809-34.743-205.678-46.958-10.654-1.487-21.333-2.853-32.037-4.242 4.51 7.339 11.971 15.555 22.626 24.747-38.619-10.679-65.195-16.043-91.014-30.184-15.701-8.606-32.866-26.136-32.866-26.136 3.365 10.191 8.29 20.212 17.944 29.72 0 0-100.742-38.644-141.897-73.118-19.48-16.335-41.667-30.696-67.34-31.842-70.412-3.145 29.086 113.493 29.086 113.493-87.796-38.644-173.934-152.137-173.934-152.137-7.070-117.15 100.328-204.995 151.479-201.752-2.926 36.084 16.798 76.117 16.798 76.117s-4.096-60.197 37.108-90.502c45.154-33.207 120.905-45.641 133.949-10.752 0 0 16.774-29.867 6.607-77.312-23.162-108.105 66.243-196.047 66.243-196.047-41.106 102.546 8.582 179.858 8.582 179.858s-2.243-89.502 26.697-144.091c55.71-105.082 144.213-149.894 192.634-138.63 53.882 12.532 80.872 67.828 93.477 112.591 3.95 14.068 6.973 28.306 9.46 42.642 1.219 7.095 2.365 14.214 3.145 21.333-8.46-12.727-13.336-18.749-17.384-22.552 0.366 11.752 0.561 23.503 1.682 35.352 2.024 21.406 3.803 42.789 6.729 64.293 3.56 26.088 7.704 52.322 12.8 78.507 0 0-16.238-8.802-36.962-55.247-15.141-33.938-23.479-91.234-51.81-119.296-17.384-17.237-39.692-8.655-50.883 7.899-11.191 16.579-13.873 37.79-8.558 57.466 6.144 22.796 21.918 33.816 38.741 50.347 9.679 9.509 18.993 19.358 27.892 29.574 14.458 16.579 27.867 34.085 39.79 52.443 7.778 11.947 14.97 24.259 21.211 36.962 1.731 3.56 3.267 10.679 6.095 13.629 0 0-31.354-32.597-63.707-21.309-18.091 6.29-28.233 33.646 20.309 111.86 49.298 79.433 206.312 173.275 206.312 173.275s-139.63-45.812-213.821-110.251c-48.079-41.765-70.875-74.338-102.327-112.859z" />
<glyph unicode="&#xe91a;" glyph-name="knight-fortify" d="M739.157 401.896l-20.846-32.232 26.405-128.195-46.446 74.776-24.478 15.287c-18.603-18.139-40.643-36.059-65.95-50.834-44.788-26.161-123.441-63.366-191.39-91.112l1.463-34.133-109.47-197.047h375.515l-95.988 204.629 26.941 96.817 50.517-15.165 70.875-75.678-22.723-9.679-3.779-37.254 30.574-28.306 32.061 13.141 30.598-148.529h49.152c3.145 47.372 6.607 137.265-5.413 208.896-17.14 102.132-107.618 234.618-107.618 234.618zM22.382 428.105c56.32 98.036 135.241 208.018 234.52 279.43 0 0-135.241-63.683-234.52-210.213v-69.218zM1001.618 492.568c-62.83 85.187-162.718 184.954-310.979 243.59 0 0 209.701-165.108 310.979-376.393v132.803zM36.523 560.372c0 0 172.203 203.093 352.744 224.475 10.021 1.195 19.822 2.17 29.403 2.974l54.808-14.604-13.019 17.115c43.764 1.512 81.774-0.707 113.274-4.413l14.019-26.6 6.924 23.796c54.345-8.192 84.212-19.992 84.212-19.992s179.322-58.1 296.35-209.652c0 0-27.331 103.717-134.997 188.514 39.497 28.014 76.507 82.334 113.128 140.678-52.59-51.59-103.79-94.379-150.284-107.764v44.837l-33.012-32.451c-43.642 22.821-96.085 41.545-158.915 52.492l12.605 43.325-39.205-39.205c-21.528 2.853-44.203 4.803-68.047 5.754-34.987 1.365-67.633-0.122-98.109-3.95l-38.376 50.469 2.511-56.247c-43.374-8.485-81.871-21.797-115.907-38.107-21.114 6.754-41.716 20.212-61.903 39.424 7.802-23.308 16.433-44.081 27.526-56.832-43.52-2.267-106.033 37.449-170.496 81.457 37.157-55.515 73.899-105.35 108.568-126.001-98.060-81.944-133.803-179.493-133.803-179.493zM263.851 117.955l26.112 29.038c0 0 223.963 91.77 313.198 148.187 58.466 36.962 98.499 90.892 119.15 123.685 10.874 17.286 16.384 28.696 16.384 28.696l-115.346-33.67c0 0-8.29-12.361-29.135-32.622l-23.918 14.946v51.346l13.483 24.405-16.847 16.628v28.648l-37.083 32.28 17.506 62.44c0 0-79.604 30.257-154.746-8.265s-188.123-137.411-179.907-346.405c0 0 38.034 143.994 82.091 184.393 30.306 27.794 37.888 8.85 37.888 8.85s85.187 83.992 168.741 88.015l-17.822-16.238-13.483-38.741-16.847-14.946 11.776-7.582v-42.106l-29.477 4.218-54.735-27.794-89.234-95.134-40.424-84.187-24.405-7.582-4.194-39.765-73.265-36.011-6.729-20.212 72.411 10.947 48.859-5.461zM332.044 244.663l73.24 34.426 8.265-21.065c-30.208-15.531-64.39-31.378-102.912-47.128l21.406 33.768z" />
<glyph unicode="&#xe91b;" glyph-name="knight-guard" d="M435.395 878.056l-5.9-61.464-35.352-37.035 23.576-35.352v-62.293l18.944-40.082c133.9-17.115 252.489-133.413 287.939-297.74 31.573-146.334-10.167-294.376-99.426-385.707h376.442v416.134l-85.382 13.775-2.292 2.536-135.753 150.406 1.219 6.363 17.262 89.454-48.933 2.706v75.776l-30.306 69.047 4.218 53.882-26.941 14.312-16.847 37.888-56.125 46.958h-139.557l-46.787-59.563zM452.73 729.941l68.218-32.792c-50.225-44.422-68.218 32.792-68.218 32.792zM668.258 764.27c0 0-3.828-124.977-89.893-59.928l89.893 59.928zM840.899 659.554l-41.155-113.079 126.366-140.020 75.508-12.19v214.235c-61.757 56.344-146.968 70.022-146.968 70.022l-13.751-18.968zM681.228 339.87c-28.111 192.561-180.102 315.88-343.089 280.113-166.254-36.45-288.207-225.646-268.824-427.666 9.362-97.646 49.713-179.346 107.959-233.935h369.445c100.035 85.821 155.965 234.52 134.51 381.489zM118.37 219.746c-15.628 156.331 78.531 304.055 208.165 332.971 127.634 28.501 246.272-68.194 267.215-218.795 21.455-154.331-66.974-309.662-199.875-343.942-135.070-34.84-259.486 69.461-275.505 229.766zM278.942 479.134c-246.345-203.313-20.504-430.982-20.504-430.982-68.949 185.149 20.504 430.982 20.504 430.982zM538.405 253.635c-1.975-45.544-53.492-76.19-53.492-76.19l-37.059-107.374c124.782 62.196 90.551 183.564 90.551 183.564zM524.581 384.366c-35.328 96.67-94.866 103.010-94.866 103.010l26.088-44.715c28.55-11.215 49.615-33.378 68.779-58.295zM832.146 709.461l90.917 20.212 78.555 113.908v21.016zM207.604 579.389l-119.418 60.83 84.382-88.674c9.192 11.264 20.968 20.456 35.035 27.843zM280.332 702.952c-41.765-13.726-164.376 123.563-164.376 123.563l137.996-217.381c29.379 16.311 63.561 25.137 99.718 30.842l-21.65 154.112c0-0.024-5.778-76.069-51.688-91.136zM806.839 751.372l64.926 140.995-70.729-88.283z" />
<glyph unicode="&#xe91c;" glyph-name="rune-damage" d="M853.553 876.983c-40.009-53.346-176.957-93.33-224.89-84.821l13.361 52.322-16.262 32.5h-227.523l-16.262-32.5 13.361-52.322c-47.957-8.509-184.881 31.5-224.89 84.821-118.15-113.81-113.762-372.834 0-494.738 46.056 57.563 188.733 117.37 250.929 88.625v-280.43l-32.5-17.018v-81.262l123.124-73.143 123.124 73.143v81.262l-32.5 17.018v280.43c62.196 28.745 204.873-31.061 250.929-88.625 113.786 121.905 118.174 380.928 0 494.738z" />
<glyph unicode="&#xe91d;" glyph-name="rune-health" d="M935.57 602.014l-220.136 49.42-49.42 220.136h-308.029l-49.42-220.136-220.136-49.42v-308.029l220.136-49.42 49.42-220.136h308.029l49.42 220.136 220.136 49.42z" />
<glyph unicode="&#xe91e;" glyph-name="rune-barrier" d="M512 31.305l-175.494 127.61c-143.092 104.034-227.742 270.263-227.742 447.195v150.089l125.562 108.471h555.398l125.562-108.471v-150.114c0-176.908-84.651-343.138-227.742-447.195l-175.543-127.586z" />
<glyph unicode="&#xe91f;" glyph-name="point-mana-pool-c" d="M512.073 949.736c0 0-398.336-289.694-389.803-651.069 5.144-218.112 174.519-352.402 389.803-352.402s389.803 134.242 389.803 352.402c0 371.371-389.803 651.069-389.803 651.069zM528.945 244.614c54.638 0 86.894 0.536 123.49 4.364l8.753-86.333c-38.254-13.117-73.216-18.042-132.242-18.042-125.147 0-171.032 51.371-171.032 195.096s45.909 195.096 171.032 195.096c59.026 0 86.333-4.364 124.050-14.75l-8.753-86.333c-38.254 0.536-63.39 1.097-115.298 1.097-37.157 0-46.446-18.578-46.446-95.086 0-76.532 9.289-95.11 46.446-95.11z" />
<glyph unicode="&#xe920;" glyph-name="point-mana-pool-d" d="M512.073 949.736c0 0-398.336-289.694-389.803-651.069 5.144-218.112 174.519-352.402 389.803-352.402s389.803 134.242 389.803 352.402c0 371.371-389.803 651.069-389.803 651.069zM679.765 339.7c0-153.015-46.446-193.999-175.957-193.999-62.854 0-113.664 2.194-161.207 5.461v377.076c48.079 2.731 96.719 5.461 161.207 5.461 129.512 0 175.957-40.984 175.957-193.999zM461.19 447.902v-215.845c13.117-0.536 27.867-0.536 42.618-0.536 40.448 0 50.81 20.773 50.81 108.203s-10.386 108.203-50.81 108.203h-42.618z" />
<glyph unicode="&#xe921;" glyph-name="point-mana-pool-e" d="M512.073 949.736c0 0-398.336-289.694-389.803-651.069 5.144-218.112 174.519-352.402 389.803-352.402s389.803 134.242 389.803 352.402c0 371.371-389.803 651.069-389.803 651.069zM628.126 383.415v-78.702h-140.995v-45.349c0-11.483 8.753-19.675 22.406-19.675h138.264l5.461-83.602c-54.638-7.095-131.145-7.095-196.169-7.095-51.907 0-88.527 34.987-88.527 85.797v209.847c0 50.834 36.62 85.797 88.527 85.797 65.024 0 141.531 0 196.169-7.095l-5.461-83.602h-138.264c-13.653 0-22.406-8.192-22.406-19.675v-36.62h140.995z" />
<glyph unicode="&#xe922;" glyph-name="point-tower-a" d="M772.73 933.035l-34.085-153.917h-58.027l-34.085 153.917h-269.093l-34.085-153.917h-58.027l-34.060 153.917h-134.997l-30.793-345.088c31.549-28.453 95.646-91.038 118.491-111.64l-80.311-362.106 379.441-151.235 379.441 151.235-60.075 364.3c21.821 19.675 85.626 82.018 116.053 109.446l-30.793 345.088h-134.997zM582.778 155.258l-19.115 81.432h-103.278l-19.115-81.432h-120.759l97.816 346.453c4.925 18.578 20.773 30.598 39.887 30.598h107.642c19.115 0 34.962-12.020 39.887-30.598l97.816-346.453h-120.783zM519.387 443.806h-14.75c-1.634-13.653-3.828-29.501-6.558-43.179l-18.578-80.872h65.024l-18.578 80.872c-2.731 13.653-5.461 29.501-6.558 43.179z" />
<glyph unicode="&#xe923;" glyph-name="point-tower-b" d="M512.829 315.928h-43.179v-84.699h43.715c32.792 0 39.887 7.656 39.887 42.082 0.024 34.962-7.095 42.618-40.424 42.618zM545.621 421.4c0 28.965-6.558 34.962-34.962 34.962h-40.984v-71.046h42.082c27.307 0 33.865 6.558 33.865 36.084zM772.73 933.035l-34.085-153.917h-58.027l-34.085 153.917h-269.093l-34.085-153.917h-58.027l-34.060 153.917h-134.997l-30.793-345.088c31.549-28.453 95.646-91.038 118.491-111.64l-80.311-362.106 379.441-151.235 379.441 151.235-60.075 364.3c21.821 19.675 85.626 82.018 116.053 109.446l-30.793 345.088h-134.997zM534.699 150.894c-81.432 0-127.317 0.536-180.882 4.364v377.076c48.64 3.828 90.722 4.364 162.84 4.364 104.911 0 142.092-20.773 142.092-98.353 0-54.101-19.115-81.432-68.852-85.797v-3.267c60.123-4.925 81.432-39.887 81.432-100.011-0.024-77.605-42.106-98.377-136.631-98.377z" />
<glyph unicode="&#xe924;" glyph-name="point-tower-c" d="M772.73 933.035l-34.085-153.917h-58.027l-34.085 153.917h-269.093l-34.085-153.917h-58.027l-34.060 153.917h-134.997l-30.793-345.088c31.549-28.453 95.646-91.038 118.491-111.64l-80.311-362.106 379.441-151.235 379.441 151.235-60.075 364.3c21.821 19.675 85.626 82.018 116.053 109.446l-30.793 345.088h-134.997zM528.945 148.699c-125.147 0-171.032 51.371-171.032 195.096s45.909 195.096 171.032 195.096c59.026 0 86.333-4.364 124.050-14.75l-8.753-86.333c-38.254 0.536-63.39 1.097-115.298 1.097-37.157 0-46.446-18.578-46.446-95.086s9.289-95.086 46.446-95.086c54.638 0 86.894 0.536 123.49 4.364l8.753-86.333c-38.254-13.141-73.216-18.066-132.242-18.066z" />
<glyph unicode="&#xe925;" glyph-name="point-tower-d" d="M772.73 933.035l-34.085-153.917h-58.027l-34.085 153.917h-269.093l-34.085-153.917h-58.027l-34.060 153.917h-134.997l-30.793-345.088c31.549-28.453 95.646-91.038 118.491-111.64l-80.311-362.106 379.441-151.235 379.441 151.235-60.075 364.3c21.821 19.675 85.626 82.018 116.053 109.446l-30.793 345.088h-134.997zM503.808 149.797c-62.854 0-113.664 2.194-161.207 5.461v377.076c48.079 2.731 96.719 5.461 161.207 5.461 129.512 0 175.957-40.984 175.957-193.999s-46.446-193.999-175.957-193.999zM503.808 451.998h-42.618v-215.845c13.117-0.536 27.867-0.536 42.618-0.536 40.448 0 50.81 20.773 50.81 108.203s-10.362 108.178-50.81 108.178z" />
<glyph unicode="&#xe926;" glyph-name="point-tower-e" d="M907.727 933.035h-134.997l-34.085-153.917h-58.027l-34.085 153.917h-269.093l-34.085-153.917h-58.027l-34.060 153.917h-134.997l-30.793-345.088c31.549-28.453 95.646-91.038 118.491-111.64l-80.311-362.106 379.441-151.235 379.441 151.235-60.075 364.3c21.821 19.675 85.626 82.018 116.053 109.446l-30.793 345.088zM628.126 387.511v-78.702h-140.995v-45.349c0-11.483 8.753-19.675 22.406-19.675h138.264l5.461-83.602c-54.638-7.095-131.145-7.095-196.169-7.095-51.907 0-88.527 34.962-88.527 85.797v209.847c0 50.81 36.62 85.797 88.527 85.797 65.024 0 141.531 0 196.169-7.095l-5.461-83.602h-138.264c-13.653 0-22.406-8.192-22.406-19.675v-36.62h140.995z" />
<glyph unicode="&#xe927;" glyph-name="point-health-pool-a" d="M525.946 567.198c-2.731 13.653-5.461 29.501-6.558 43.179h-14.75c-1.634-13.653-3.828-29.501-6.558-43.179l-18.578-80.872h65.024l-18.578 80.872zM512.366-19.724l427.983 463.531c102.473 110.982 98.84 287.183-8.119 393.509-51.98 51.688-118.784 77.361-185.515 77.361-70.558 0-141.019-28.721-193.707-85.772l-40.57-43.934-41.448 44.91c-52.687 57.076-123.148 85.821-193.755 85.821-66.682 0-133.486-25.673-185.466-77.312-106.984-106.325-110.665-282.502-8.192-393.509l428.788-464.603zM418.28 668.282c4.925 18.578 20.773 30.598 39.887 30.598h107.642c19.115 0 34.962-12.020 39.887-30.598l97.816-346.453h-120.759l-19.115 81.432h-103.278l-19.115-81.432h-120.759l97.792 346.453z" />
<glyph unicode="&#xe928;" glyph-name="point-health-pool-b" d="M746.715 914.7c-70.558 0-141.019-28.721-193.707-85.772l-40.57-43.934-41.448 44.91c-52.687 57.076-123.148 85.821-193.755 85.821-66.682 0-133.486-25.673-185.466-77.312-106.984-106.325-110.665-282.502-8.192-393.509l428.763-464.603 427.983 463.531c102.473 110.982 98.84 287.183-8.119 393.509-51.956 51.688-118.76 77.361-185.49 77.361zM534.699 317.464c-81.432 0-127.317 0.536-180.882 4.364v377.076c48.64 3.828 90.722 4.364 162.84 4.364 104.911 0 142.092-20.773 142.092-98.353 0-54.101-19.115-81.432-68.852-85.797v-3.267c60.123-4.925 81.432-39.887 81.432-100.011-0.024-77.605-42.106-98.377-136.631-98.377zM512.829 482.499h-43.179v-84.699h43.715c32.792 0 39.887 7.656 39.887 42.082 0.024 34.962-7.095 42.618-40.424 42.618zM545.621 587.971c0 28.965-6.558 34.962-34.962 34.962h-40.984v-71.046h42.082c27.307 0 33.865 6.558 33.865 36.084z" />
<glyph unicode="&#xe929;" glyph-name="point-health-pool-c" d="M746.715 912.262c-70.558 0-141.019-28.721-193.707-85.772l-40.57-43.934-41.448 44.91c-52.687 57.076-123.148 85.821-193.755 85.821-66.682 0-133.486-25.673-185.466-77.312-106.984-106.325-110.665-282.502-8.192-393.509l428.763-464.603 427.983 463.531c102.473 110.982 98.84 287.183-8.119 393.509-51.956 51.688-118.76 77.361-185.49 77.361zM528.945 312.832c-125.147 0-171.032 51.371-171.032 195.096s45.909 195.096 171.032 195.096c59.026 0 86.333-4.364 124.050-14.75l-8.753-86.333c-38.254 0.536-63.39 1.097-115.298 1.097-37.157 0-46.446-18.578-46.446-95.086s9.289-95.086 46.446-95.086c54.638 0 86.894 0.536 123.49 4.364l8.753-86.333c-38.254-13.141-73.216-18.066-132.242-18.066z" />
<glyph unicode="&#xe92a;" glyph-name="point-health-pool-d" d="M746.715 914.7c-70.558 0-141.019-28.721-193.707-85.772l-40.57-43.934-41.448 44.91c-52.687 57.076-123.148 85.821-193.755 85.821-66.682 0-133.486-25.673-185.466-77.312-106.984-106.325-110.665-282.502-8.192-393.509l428.763-464.603 427.983 463.531c102.473 110.982 98.84 287.183-8.119 393.509-51.956 51.688-118.76 77.361-185.49 77.361zM503.808 316.367c-62.854 0-113.664 2.194-161.207 5.461v377.076c48.079 2.731 96.719 5.461 161.207 5.461 129.512 0 175.957-40.984 175.957-193.999s-46.446-193.999-175.957-193.999zM503.808 618.569h-42.618v-215.845c13.117-0.536 27.867-0.536 42.618-0.536 40.448 0 50.81 20.773 50.81 108.203 0.024 87.406-10.362 108.178-50.81 108.178z" />
<glyph unicode="&#xe92b;" glyph-name="point-health-pool-e" d="M746.715 914.7c-70.558 0-141.019-28.721-193.707-85.772l-40.57-43.934-41.448 44.91c-52.687 57.076-123.148 85.821-193.755 85.821-66.682 0-133.486-25.673-185.466-77.312-106.984-106.325-110.665-282.502-8.192-393.509l428.763-464.603 427.983 463.531c102.473 110.982 98.84 287.183-8.119 393.509-51.956 51.688-118.76 77.361-185.49 77.361zM628.126 554.082v-78.702h-140.995v-45.349c0-11.483 8.753-19.675 22.406-19.675h138.264l5.461-83.602c-54.638-7.095-131.145-7.095-196.169-7.095-51.907 0-88.527 34.987-88.527 85.797v209.847c0 50.834 36.62 85.797 88.527 85.797 65.024 0 141.531 0 196.169-7.095l-5.461-83.602h-138.264c-13.653 0-22.406-8.192-22.406-19.675v-36.62h140.995z" />
<glyph unicode="&#xe92c;" glyph-name="point-mana-pool-a" d="M512.073 949.736c0 0-398.336-289.694-389.803-651.069 5.144-218.112 174.519-352.402 389.803-352.402s389.803 134.242 389.803 352.402c0 371.371-389.803 651.069-389.803 651.069zM582.778 151.162l-19.115 81.432h-103.278l-19.115-81.432h-120.759l97.816 346.453c4.925 18.578 20.773 30.598 39.887 30.598h107.642c19.115 0 34.962-12.020 39.887-30.598l97.816-346.453h-120.783zM519.387 439.71h-14.75c-1.634-13.653-3.828-29.501-6.558-43.179l-18.578-80.872h65.024l-18.578 80.872c-2.731 13.653-5.461 29.501-6.558 43.179z" />
<glyph unicode="&#xe92d;" glyph-name="point-mana-pool-b" d="M512.829 311.832h-43.179v-84.699h43.715c32.792 0 39.887 7.656 39.887 42.082 0.024 34.962-7.095 42.618-40.424 42.618zM469.65 452.267v-71.046h42.082c27.331 0 33.89 6.558 33.89 36.059 0 28.965-6.558 34.962-34.962 34.962h-41.009zM512.073 949.736c0 0-398.336-289.694-389.803-651.069 5.144-218.112 174.519-352.402 389.803-352.402s389.803 134.242 389.803 352.402c0 371.371-389.803 651.069-389.803 651.069zM658.725 434.225c0-54.101-19.115-81.432-68.852-85.797v-3.267c60.123-4.925 81.432-39.887 81.432-100.011 0-77.605-42.082-98.353-136.606-98.353-81.432 0-127.317 0.536-180.882 4.364v377.076c48.64 3.828 90.722 4.364 162.84 4.364 104.911 0 142.068-20.773 142.068-98.377z" />
<glyph unicode="&#xe92e;" glyph-name="misc-time" d="M512 860.038c-113.006 0-289.816-119.15-289.816-119.15s-122.222-178.322-122.222-292.888c0-108.422 110.324-280.625 110.324-280.625s182.565-131.413 301.714-131.413c117.248 0 298.106 127.586 298.106 127.586s113.932 174.153 113.932 284.453c0 78.555-60.148 214.455-60.148 214.455s-202.898 197.583-351.89 197.583zM673.768 373.931l-191.756-12.069-56.856 62.464 61.684 264.143 40.887 110.616 35.304-110.616-12.532-248.149h129.414l86.040-29.501-92.184-36.888z" />
<glyph unicode="&#xe92f;" glyph-name="misc-enemy" d="M952.515 727.625l-69.754 132.413c-14.824-99.742-38.595-153.234-70.046-182.418-52.322 92.306-159.403 150.089-300.715 141.848v0c-141.312 8.241-248.393-49.542-300.69-141.848-31.451 29.184-55.247 82.676-70.071 182.418l-69.754-132.413v-179.395l114.078-91.819c20.407-94.11 92.038-154.014 92.038-154.014l41.716-217.868 42.203-19.822 21.675 146.749 23.454 17.237 21.455-164.669 59.733-28.062 5.973 196.657 21.163 21.163 21.918-20.821 19.675-195.34 54.004 28.258c1.341 67.048 3.73 162.426 3.73 162.426l22.772-27.697 21.87-140.020 45.714 23.918 41.716 217.868c0 0 71.656 59.904 92.038 154.014l114.078 91.819v179.419zM265.118 475.599c4.267 4.267 62.659 55.54 62.659 55.54l139.532-116.76-133.851-15.677c0 0-72.606 72.631-68.34 76.898zM690.542 398.702l-133.851 15.677 139.532 116.76c0 0 58.368-51.273 62.659-55.54 4.267-4.267-68.34-76.898-68.34-76.898z" />
<glyph unicode="&#xe930;" glyph-name="misc-kills" d="M714.971 581.51c30.159 34.133 123.563 92.087 123.563 92.087s52.273 161.036 63.561 164.498c-84.382-25.868-188.026-63.269-188.026-63.269s-38.132-86.357-80.433-128.341l81.335-64.975zM307.2 314.49c-27.38-36.254-131.511-115.468-131.511-115.468s-46.178-135.436-53.784-141.117c89.771 67.243 191.049 79.019 191.049 79.019s27.038 71.778 65.609 109.934l-71.363 67.633zM394.289 644.169c-45.056 45.617-101.693 156.916-101.693 156.916s-53.589-4.413-170.691 37.010c11.24-3.974 69.169-191.366 69.169-191.366s81.31-32.037 108.13-70.046l95.086 67.486zM709.51 332.459l-77.775-84.87c39.912-29.94 103.034-140.581 103.034-140.581s65.341 29.769 167.326-49.103c-10.996 8.509-59.319 199.217-59.319 199.217s-107.154 42.277-133.266 75.337zM423.932 448.062l88.086 88.036 88.036-88.086-88.086-88.036-88.036 88.086z" />
<glyph unicode="&#xe931;" glyph-name="effects-inspire" d="M285.818 372.834l43.106-21.333-20.041-17.457-224.573 6.778 83.212 26.185 118.296 5.827zM658.749 194.438l-6.095 46.47 26.21-6.168 120.783-183.296-69.266 51.736-71.631 91.258zM562.664 664.064l-28.574-34.548-38.888 38.4 16.677 129c12.166 8.704 18.651 22.65 19.432 41.838s5.169 42.35 13.093 69.486l18.261-244.175zM279.771 233.643l57.295 7.266 0.683-67.901-131.901-103.375c-18.944 2.389-37.474-4.827-55.564-21.65s-43.032-34.206-74.801-52.2l204.288 237.861zM571.538 161.378l-23.064-173.617-52.126 173.617 32.085 41.716 43.106-41.716zM731.575 595.115l175.299 43.374-147.529-110.958-51.907 13.434 24.137 54.15zM614.668 709.388l66.17 83.407-66.17-139.678v56.271zM766.050 404.846l182.467-20.382c-37.449-3.243-71.68-6.29-102.766-9.216-31.086-2.901-57.661-9.533-79.701-19.895l-51.127 13.58 51.127 35.913zM762.051 290.402h34.085l56.149-49.469-90.234 49.469zM273.384 549.547l-173.324 161.938c41.691-25.502 79.872-48.713 114.664-69.632 34.767-20.943 67.925-34.523 99.426-40.741l42.082-53.589-82.846 2.024zM371.834 665.698l-35.499 26.283-17.725 94.842 53.224-121.125z" />
<glyph unicode="&#xe932;" glyph-name="effects-paralyze" d="M415.671 435.614l-14.848 42.569c-25.941 45.763-119.247 99.572-198.412 123.538-1.097-13.507 1.512-26.6 6.656-39.302-41.643 18.066-79.092 35.986-114.127 71.339 0 0 13.385-294.010 353.816-287.671l-31.988 88.527c-0.366 0.317-0.731 0.634-1.097 1zM800.5 601.722c-77.507-23.966-167.083-77.775-189.879-123.538l-11.898-42.569c-0.366-0.366-0.707-0.683-1.048-1.024l-25.868-88.527c340.894-6.315 333.946 287.671 333.946 287.671-32.597-35.352-68.803-53.272-109.178-71.339 4.267 12.702 5.973 25.819 3.925 39.326zM354.036 594.018l-22.284 142.702-28.599-11.874-153.502 179.468 92.794-184.296zM664.795 312.125l54.711-152.99 24.747 16.506 184.783-167.79-125.586 247.808zM880.664 908.8l-150.967-156.696-58.319-151.918 126.805 153.307zM97.914-12.8l124.099 160.5 15.97-25.941 79.482 193.463-144.213-80.213z" />
<glyph unicode="&#xe933;" glyph-name="effects-retaliate" d="M129.243 598.187l40.229 46.348 9.63 3.486-6.12 36.718 38.473-0.878 16.603 21.845c11.069 13.995 25.649 30.452 43.715 49.396s38.181 38.034 60.343 57.271c22.138 19.237 44.008 33.499 65.585 42.837 40.229 18.066 105.789 20.114 196.73 6.12-29.16-6.437-53.638-15.726-73.435-27.989-23.918-15.165-35.547-34.962-34.987-59.465-39.058 0.585-70.534-4.072-94.427-13.995-15.165-5.827-40.229-22.723-75.191-50.712l-63.829-63.829 4.364-3.486-3.511-34.962-32.354 0.878 8.753-33.231 66.438-46.348h48.079l7.875-5.242 6.12 74.313 27.112 63.829c11.069 7.558 20.675 15.872 28.843 24.917 8.143 9.021 15.433 19.968 21.845 32.792l34.987-4.364 1.731-27.112 36.718-24.478 11.362-33.231 13.117-15.75-12.239-22.723 13.995-44.593-55.954-48.957 83.066 49.835 21.845 6.12 97.061-37.595 16.603-16.628c-0.585 0-1.024-0.146-1.317-0.439s-0.731-0.414-1.292-0.414c-37.303-10.508-66.609-34.109-87.869-70.827-21.285-36.718-31.037-78.409-29.306-125.050-3.486-0.585-6.851-1.17-10.069-1.731-3.218-0.585-6.558-1.17-10.045-1.755l-13.995-2.609c-2.341 0-4.681-0.146-6.997-0.439-2.341-0.293-4.681-0.731-6.997-1.317-4.681 0-9.338-0.293-13.995-0.878-4.681-0.585-9.338-0.878-13.995-0.878-2.341-0.585-4.681-0.853-6.997-0.853s-4.681 0-6.997 0h-13.995c-9.338 0-18.651 0.293-27.989 0.853-9.338 0.585-18.651 1.463-27.989 2.633-4.681 1.17-9.338 2.024-13.995 2.609-4.681 0.585-9.045 1.463-13.117 2.633-2.341 0.585-4.681 1.146-6.997 1.731-2.341 0.585-4.364 1.463-6.12 2.633-1.17 0-2.341 0.146-3.486 0.439-1.17 0.293-2.341 0.731-3.486 1.292l-2.633 0.878-0.878 0.878-9.63 50.712-6.997 44.593-77.824 17.481-95.305 118.053-21.845 10.484-27.112-27.112-24.478 19.237 24.478 28.867v27.16zM321.585 25.478h-61.196l86.552 155.648 51.59-33.231-76.946-122.417zM588.264 233.57c2.901-9.314 5.973-18.213 9.192-26.673 3.194-8.46 6.851-16.75 10.923-24.917l-149.528-44.593-122.392 63.854 15.75 41.96c2.901 8.168 4.949 16.75 6.12 25.795 1.17 9.021 1.17 18.213 0 27.55h0.878c2.926-0.585 5.681-1.317 8.314-2.194s5.096-1.609 7.436-2.17c5.242-1.17 10.508-2.194 15.726-3.072 5.242-0.853 10.508-1.609 15.75-2.17 9.899-1.17 20.114-2.048 30.598-2.633 10.508-0.585 20.699-0.853 30.622-0.853h15.726c2.341 0 4.803 0.122 7.436 0.414s5.096 0.439 7.436 0.439c5.242 0 10.338 0.293 15.287 0.878s10.069 1.17 15.311 1.755c2.341 0 4.803 0.146 7.436 0.439s5.096 0.731 7.436 1.292l14.872 1.755c3.486 0.585 6.827 1.17 10.045 1.755 3.218 0.561 6.266 1.146 9.192 1.731 0.585-9.923 1.755-19.968 3.511-30.159 1.682-10.216 4.023-20.285 6.924-30.184zM449.268 115.541l76.946 27.112c0.585-8.168 1.877-16.165 3.925-24.040 2.024-7.875 4.218-15.896 6.558-24.040 2.926-9.338 6.12-18.359 9.63-27.112s7.29-17.774 11.362-27.112c1.731-2.341 3.194-4.657 4.364-6.997 1.17-2.316 2.609-4.949 4.364-7.875h-226.475l62.976 118.906 41.106-26.234 5.242-2.609zM406.406 586.825c22.723-28.574 39.351-34.085 49.835-16.603l-49.835 16.603zM491.227 571.075c5.242-16.92 13.702-11.362 25.356 16.603l-25.356-16.603zM724.675 72.704l13.117-47.226h-150.382c-2.926 4.072-5.681 8.021-8.314 11.8-2.609 3.803-5.12 7.436-7.436 10.923-4.681 8.168-9.045 16.457-13.117 24.917-4.096 8.436-7.582 17.042-10.508 25.795-2.926 7.558-5.559 15.311-7.875 23.162-2.341 7.875-4.364 15.579-6.12 23.162l79.579 27.989c12.239-23.333 28.111-43.715 47.64-61.221 19.554-17.457 40.667-30.574 63.415-39.302zM697.563 477.525c21.553 5.827 43.422 6.412 65.585 1.755 21.553-5.242 41.96-14.726 61.196-28.428s36.425-31.33 51.59-52.882c14.555-20.992 25.649-45.202 33.231-72.582 8.143-26.819 11.362-53.053 9.63-78.677-1.17-26.234-6.266-49.981-15.311-71.266s-21.723-39.79-38.034-55.515c-15.726-15.165-34.402-25.649-55.954-31.476-21.577-6.412-43.447-6.997-65.585-1.731-21.577 5.242-41.96 14.702-61.221 28.404-19.237 13.702-36.157 31.061-50.712 52.029-15.165 21.553-26.551 45.763-34.109 72.582-7.582 26.795-10.801 53.321-9.63 79.579 1.17 25.649 6.266 49.25 15.311 70.827 9.021 21.553 21.699 40.229 38.034 55.954 15.774 15.116 34.426 25.6 55.979 31.427zM779.752 418.060c19.822-10.508 37.303-23.601 52.468-39.351-26.234 37.303-53.346 60.026-81.31 68.194l28.843-28.843zM881.176 218.722c1.755 25.039-0.146 47.348-5.681 66.877-5.559 19.529-11.8 34.816-18.798 45.909l-11.362 17.481c17.481-52.443 14.287-99.377-9.63-140.776l17.481-66.438c17.506 26.234 26.819 51.858 27.989 76.946z" />
<glyph unicode="&#xe934;" glyph-name="effects-silence" d="M818.176 230.814l75.922 377.149-27.672 180.638-92.77 65.682-382.781-28.282-31.281-40.887 65.56-53.126 11.045 15.336 320.219 19.456 43.057-82.456-17.335-212.456-41.984-182.711-32.354-16.165-82.139 141.336-189.586 156.916-33.378 124.635-75.605 79.579-97.451 80.189 50.712-116.029 123.563-225.597 187.319-200.631 31.427-82.968-106.569-53.248-128.878-3.438-146.091 84.285 4.779 225.353 74.752 103.668-45.227 88.040-101.839-133.12-43.691-339.968c0 0 277.894-152.722 295.546-156.623 10.654-2.365 150.674 65.243 260.535 119.491l157.038-124.514-91.307 157.135c39.57 19.724 66.462 33.329 66.462 33.329z" />
<glyph unicode="&#xe935;" glyph-name="effects-slime" d="M280.917 299.252c31.354 33.694 50.371 35.669 59.392 16.116 19.237-41.667-75.41-125.928-87.381-179.249-12.824-57.222 24.235-115.029 82.481-114.517 59.928 0.512 94.574 53.224 88.186 174.056-6.29 119.15 63.317 132.827 95.793 103.473 33.061-29.891 44.276-139.069 111.348-139.483 69.218-0.414 87.235 59.904 32.085 113.859-53.541 52.419-110.982 97.036-65.073 124.952 46.811 28.453 183.198-71.387 247.93-26.697 66.389 45.812 64.463 117.687-19.846 125.952-81.213 7.948-154.185-56.101-171.325 21.626-16.872 76.605 95.915 114.152 122.831 141.483 30.915 31.378 24.235 71.095-23.357 64.902-36.352-4.73-66.56-101.547-123.148-119.686-55.223-17.701-72.436 7.119-63.171 52.029s75.8 120.247 53.76 156.062c-21.748 35.352-107.106 44.788-122.563-22.991-15.433-67.682 33.768-183.223-11.215-211.7-44.13-27.941-72.411-26.478-84.919 23.698-12.386 49.64-17.384 150.235-73.655 156.916-54.686 6.485-111.567-32.549-79.067-91.965 33.256-60.757 112.957-74.825 91.38-125.781-21.431-50.639-40.424-51.639-67.511-51.81-26.746-0.171-162.792 56.296-160.256-19.529 2.56-76.483 105.326-19.188 137.387-48.274 32.67-29.647 22.406-52.248-2.267-76.654-24.43-24.113 1.219-80.067 32.183-46.787zM175.47 289.28c29.915-2.877 42.74-21.065 27.477-41.765-15.604-21.187-13.653-51.688-42.715-37.742-26.843 12.873-30.622 27.892-29.086 37.937 2.365 15.238 17.603 44.13 44.325 41.57zM875.618 594.651c-9.46 20.553 33.304 41.813 48.591 31.232 15.409-10.654 34.304-11.995 23.771-30.769-10.533-18.7-60.392-26.502-72.363-0.463zM347.941 827.66c-11.435 16.798-3.389 47.689 12.117 50.2 15.604 2.536 42.813 9.996 50.42-13.483 7.656-23.625 0.756-49.64-18.091-52.151-18.651-2.462-32.914-1.487-44.446 15.433z" />
</font>
</defs>
</svg>
