<?xml version="1.0" standalone="no"?>
<!DOCTYPE svg PUBLIC "-//W3C//DTD SVG 1.1//EN" "http://www.w3.org/Graphics/SVG/1.1/DTD/svg11.dtd">
<svg xmlns="http://www.w3.org/2000/svg">
<metadata>Generated by Fontastic.me</metadata>
<defs>
<font id="cu-icons" horiz-adv-x="512">
<font-face font-family="cu-icons" units-per-em="512" ascent="480" descent="-32"/>
<missing-glyph horiz-adv-x="512" />

<glyph glyph-name="filter-heavy-face" unicode="&#57344;" d="M367 436c0 0-60 52-114 52-54 0-108-52-108-52 0 0-51-37-51-124 0-87 16-188 16-188l28-13 85-87 10 202-12 20-73 37-13-14 0 63 122-40 122 40 0-63-13 14-73-37-12-20 10-202 85 87 28 13c0 0 16 102 16 188 0 86-53 124-53 124z m-5 76l-362 0 0-512 512 0 0 512z m133-380l-115-115-248 0-115 115 0 248 115 115 248 0 115-115z"/>
<glyph glyph-name="damage-acid" unicode="&#57345;" d="M511 312l-178-55c0-2 1-4 1-6 0-29-27-51-61-51-33 0-58 21-59 48l-105 0c-24-5-31-14-23-26l-47-3c-39-7-14-41 4-39l119 5-146-41c-22-12-18-25 4-39l151 28-146-47c-8-19-3-33 27-30l190 49 64 0-3-36-44-12c-36-11-37-31-34-52l150 29 137 131z m-242-38c13 0 24 8 32 20 8 12 13 29 13 46 0 37-46 168-46 168 0 0-44-132-44-168 0-19 6-37 15-48 8-11 19-18 30-18z"/>
<glyph glyph-name="damage-air" unicode="&#57346;" d="M510 366c-1 7-3 14-6 21-16 36-49 62-87 68-23 3-45-1-65-12-9-4-18-11-25-18-8-8-14-16-19-26-6-13-20-54-3-65 18-11 22 23 27 32 5 8 23 26 40 30 16 4 46-1 60-17 14-16 19-38 12-58-6-21-26-36-49-36l-113-4-199-9-47-2c-9 0-30 2-34-8-1-4-1-8 2-11 3-4 9-5 14-5 69 0 139-5 206-8l170-8 5 0c33 0 65 17 85 41 21 25 31 62 26 95z m-486-67l5 0c57-3 114-1 172-1 33 0 65 17 80 50 23 53-19 118-79 111-16-2-30-9-41-20-7-7-22-26-16-37 7-10 12-7 17-4 22 17 61 10 60-24 0-6-2-12-5-17-3-5-35-11-50-13l-55-8-86-17c-5 0-9-5-10-10 0-5 3-9 8-10z m249-80c-22 3-48 0-70-1l-118 0c-10 0-41 5-43-10 0-4 1-7 3-9 3-3 7-3 12-4l214-28c19-2 29-20 24-37-3-12-13-21-25-24-12-3-26 2-39 11-12 9-19 0-18-11 10-58 89-62 125-26 36 36 31 72 9 102-21 31-45 39-74 37z"/>
<glyph glyph-name="damage-arcane" unicode="&#57347;" d="M511 340l-152-60-110 191-113-196-135 65 115-99-115-198 157 0-59 54 66 113 6-4 39-23c-27-19-52-41-76-64 34 10 65 24 95 39l0-17c3-33 9-66 18-100 9 34 13 67 17 100l0 14c32-15 64-29 97-38-25 25-53 47-81 68l48 28 67-116-64-54 167 0-118 201z m-244-17l42-73-39-25c0 5 0 11 0 16 0 27-1 54-3 82z m-38-1c-2-27-3-54-3-80 0-6 0-13 0-19l-32 21-8 4z"/>
<glyph glyph-name="damage-chaos" unicode="&#57348;" d="M395 99c-17-8-34-15-52-21 8 8 14 16 18 26l7 17c-16-10-33-19-51-25-24-8-44-13-69-7-26 6-43 20-55 40-46 75 17 159 99 164 13 1 41 21 46 25l4 4-2 4c-49 91-175 45-222-24-15-21-24-45-29-70-4-21-4-43 0-64 6-39 24-72 49-97 78-74 188-45 269 7 22 14 45 32 69 53l36 32-43-23z m-289-46c-27 42-48 87-49 138-1 52 25 130 74 169 17 18 34 25 34 26l13 6-14 2c-9 1-17 1-26-1l-24-8c-16-6-31-17-44-31-57-51-76-135-67-209 2-18 6-37 12-55 8-20 16-39 26-53l8-11 0 13c0 0 1 15 1 30l9-13c18-20 36-32 58-40l10-3-5 11c1 0-10 21-16 29z m328 392l9-30c21-72 25-164-28-225-6-7-13-15-21-21l-11-9 15 0c6 0 12 1 17 4 64 30 79 118 79 180-1 15-2 31-4 46-2 18-6 35-11 52l-7 24-2-25 0-12c-10 25-21 43-36 57l-15 13 5-17c0-1 7-27 10-37z m42-66z m-302 60c35 10 65 13 90 11l2 0-9-7c-14-11-25-24-31-40l-4-11 11 6 19 11 17 9c11 5 23 9 35 11 20 3 29 0 42-15 58-66 14-174-71-187-11-1-35-20-41-24l-3-2 2-3c1-1 9-15 16-20 7-5 41-12 60-7 33 9 63 32 82 58 11 15 19 31 25 49 5 15 8 31 9 47 7 96-59 172-158 168-31-1-64-9-101-23-37-14-68-30-105-53l-28-18 33 10z"/>
<glyph glyph-name="damage-crushing" unicode="&#57349;" d="M419 386l12 11-34 34-11-12-89 90-33 0-108-110 0-31 89-90-187-187-4 4-51-51 10-31 31-10 51 51-4 4 187 187 90-89 31 0 110 108 0 33z"/>
<glyph glyph-name="damage-death" unicode="&#57350;" d="M208 198c29 2 35 28 36 40 1 11 0 5 0 5 0 0-25 17-37 19-12 2-37-15-37-32 0-16 4-16 11-21 7-5 17-10 27-11z m95 0c10 0 20 4 27 10 7 6 11 13 11 21 0 9-16 31-37 32-20 1-37-19-37-19 0 0 0-2 0-5 0-4 6-37 36-39z m208-198l-88 101c0 0 17 94 2 199-22 150-144 189-144 189l-37 12c0 0-159-73-175-201-10-77 20-206 20-206l-88-94z m-368 293c17 76 107 107 172 71 34-19 56-56 56-94 0-18-1-37-5-54-5-17-11-30-23-39-5-4-10-6-16-8-1 0-1-8-1-8l-3-32-19-5c0 0-6 39-6 39l-7-43-26-8-3 0-7 43-7-43-3 0-26 8-7 43-6-39-19 5-3 32 0 8c-30 8-39 37-43 65 0 5-1 10-2 16 0 14 1 29 4 43z"/>
<glyph glyph-name="damage-disease" unicode="&#57351;" d="M455 335c7-5 12-14 22-13 10 1 16 10 16 19 0 9-15 29-30 23-16-7-35-11-46 0-11 10-9 19-14 27-4 8 19 37 32 35 6-1 11 2 15 6 5 6 5 17-1 25-7 8-21 13-29 6-8-7-3-19-12-26-10-7-22-24-34-15-12 7-25 12-38 13-18 2-27 22-23 37 1 4 3 8 4 12 1 4-11 27-23 26-12-1-16-10-15-21 1-10 14-16 17-28l4-17c3-12-5-21-13-29-8-8-36-46-44-35l-15 18c-7 9-19 20-21 30-2 10 0 10 1 15 2 17-17 29-32 24-6-2-11-7-14-14-2-6-2-13 2-19 5-8 12-9 19-14 7-5 19-22 28-33l18-23c11-14-44-43-57-30l-46 46c-6 7-14 14-18 23-5 10-4 14-12 17-8 3-19 2-26-3-8-5-16-28-4-39 11-11 17-6 24-10 7-4 31-20 43-33 12-13 8-14 12-20 4-4 4-10 0-14-6-7-13-16-18-25-5-8-31-15-44-7-13 9-10 11-17 14-8 3-20 3-27-2-7-6-14-14-16-23-3-9 1-19 8-26 7-6 26-3 40 2 13 6 39 10 40-13 0-6 0-13 2-19 3-17-8-31-21-40-13-9-34-2-49-11-15-10-25-31-18-48 6-16 18-17 30-14 13 3 22 17 29 31 7 13 21 19 33 27 11 9 16 5 22-1 6-5 32-25 45-29 14-4 15-25 12-37-3-12-19-28-21-44-2-17 5-32 21-36 15-4 35 16 36 35 1 18-4 19-8 28-4 10-4 20-3 32 1 13 7 19 16 21 8 2 16 5 24 9 7 4 17 0 20-9l22-37c7-12-2-29 4-41 6-12 21-20 34-14 13 5 17 23 14 37-3 15-5 15-11 19-6 4-16 5-21 14l-26 51c-3 9 2 18 6 25 4 7 10 18 16 21 7 4 20-5 26-9 6-4 36-22 47-37 11-14 2-15 4-23 2-8 23-29 37-16 14 14 11 29 3 41-8 13-12 8-19 12-7 4-9 7-14 10-18 16-36 33-53 50-16 18 36 45 51 35 16-10 35-20 41-37 7-17 28-31 39-8 5 12 2 25-9 35-11 9-27 5-38 13-11 8-18 16-22 28-4 11 1 34 7 43 6 8 25 14 36 7z"/>
<glyph glyph-name="damage-earth" unicode="&#57352;" d="M375 336l-32-27-105 105-238-246 0-168 512 0 0 168z m-113-65l-24-39-38 52-63-26 101 103 161-167z"/>
<glyph glyph-name="damage-fire" unicode="&#57353;" d="M78 319c0 0-128-239 111-319 0 0-79 96 49 176-32-48-34-97 0-111 33-15 63 0 63 63 48-65 0-128 0-128 0 0 208 32 160 256 0 0-17-65-48-80 0 0 31 80-32 176-64 97-143 160-143 160 0 0 8-55-64-128-72-73-63-176-63-176 0 0-33 48-33 111z"/>
<glyph glyph-name="damage-frost" unicode="&#57354;" d="M409 198l21 2 27 18-31 11-61-8-62 35 50 29 72-10 31 12-27 18-32 4 41 23 45 52-68-11-35-20 8 20-3 31-25-20-23-54-58-33 0 59 38 51 6 30-27-13-15-21 0 43-25 63-24-63 0-42-15 21-29 12 6-30 38-51 0-60-59 34-23 55-25 21-3-32 8-20-33 19-68 10 45-53 39-22-32-4-27-17 31-12 72 10 50-29-62-35-60 8-31-11 27-18 20-2-27-17-45-52 68 11 38 22-12-29 3-32 25 21 27 64 55 31 0-66-38-51-6-30 29 13 15 20 0-35 24-64 24 64 0 34 15-20 29-13-6 30-38 51 0 65 54-31 27-64 25-21 3 32-12 29 39-22 68-11-45 52-29 17z"/>
<glyph glyph-name="damage-life" unicode="&#57355;" d="M153 421c-75-64-92-161-33-225-5-10-9-21-11-31-4-12-6-25-7-38l-3 5c-22 34-68 63-68 63 0 0-17-64 16-126 18-34 72-43 81-44 5-9 10-18 15-26l57 0c-5 0-20 25-23 29-9 13-17 28-22 44-35 97 44 185 116 239 18 14 36 26 55 36-127-118-145-171-146-189 75-24 179 3 216 105 37 103 112 232 112 232 0 0-224 36-355-74z"/>
<glyph glyph-name="damage-lightning" unicode="&#57356;" d="M253 344l-46 161 150 0 31-309-122 44 55-233-197 370z"/>
<glyph glyph-name="damage-mind" unicode="&#57357;" d="M454 216l-7 40c-2 14-4 29-8 42-4 13-9 21-13 33l-13 107c-23 52-103 71-163 70-61-1-113-27-113-27 0 0-52-37-52-138 0-63 38-127 38-127l0-131c-30-23-45-49-64-85l328 0-46 98c0 0 45-12 69 11 23 22 13 107 13 107z m-110 120l-2 0c10-36-28-47-45-30 3-25-31-30-46-10-3-18-33-11-39 3-11-4-21-14-16-35-23 5-45 35-34 66-38 15-16 79 29 63-15 34 25 47 39 31 1 29 59 37 63 0 22 30 69 1 53-31 32 3 47-56-2-57z"/>
<glyph glyph-name="damage-physics-impact" unicode="&#57358;" d="M441 180l0 43-172-35 77 73-61 60 96-17-13 47 72-49-1 46-77 141-3-65-95 41 28-58-156 12 68-74-195-52 205-56-97-114 255 17 0-140z m23 332l48 0 0-512-48 0z"/>
<glyph glyph-name="damage-piercing" unicode="&#57359;" d="M504 4l-146 241-62 1-257 263-32-31 257-262 0-63z"/>
<glyph glyph-name="damage-poison" unicode="&#57360;" d="M290 239c7 0 13 3 18 8 7 7 10 18 6 28-4 10-13 16-23 17-8-2-26-17-26-17 0 0 0-2 0-4 0-2 5-31 25-32z m-65 0c20 1 24 24 25 33 1 10 0 4 0 4 0 0-18 15-26 17-10-1-19-7-23-17-4-10-1-21 6-28 5-6 11-9 18-9z m123 149c-11 12-21 25-21 39l0 41 15 0 0 44-173 0 0-44 15 0 0-40c0-14-11-26-20-35l-30-34c-42-54-82-115-82-186 0-104 91-165 195-170 117-5 214 59 214 176-1 79-62 155-113 209z m26-290c-13 1-24 10-27 23l-89 43-89-43c-3-12-13-21-25-22-12-1-23 6-28 18-4 11-1 24 9 31 9 8 23 8 33 2l65 31-66 32c-4-2-9-4-14-4-14 0-27 12-27 27-1 14 11 27 26 28 14 1 27-10 29-24l25-12c-1 0-2 17-3 19-7 22-9 48 4 68 23 38 85 43 115 13 11-11 18-26 20-41 2-20-5-39-7-59l24 12c2 14 15 25 30 24 14-1 26-14 25-28 0-15-12-27-27-27-5 0-9 2-13 4l-67-32 65-31c5 3 10 4 16 5 15 0 28-13 28-28 0-15-13-28-28-28z"/>
<glyph glyph-name="damage-radiant" unicode="&#57361;" d="M482 176l-99 60 103 20-109 22 131 87-147-33 62 92-99-68 29 156-77-126-20 99-22-111-91 132 34-141-88 58 66-97-153 31 128-79-103-22 109-22-131-87 146 33-62-91 99 68-29-157 77 126 20-99 22 112 91-132-35 140 89-59-66 96 153-30-29 21z m-141 17c-5-7-11-14-17-19-39-32-96-29-135 2-38 31-46 66-36 106 13 51 64 87 116 79 19-2 37-10 53-22 45-36 51-102 19-146z"/>
<glyph glyph-name="damage-shadow" unicode="&#57362;" d="M71 4c39 30 72 58 115 89-11-31-28-59-44-89l-2-4 68 0c16 15 24 27 40 40 15 13 23 19 35 36 20 30 42 58 68 88 27 30 18 57 65 84-1-7 2-15 2-22 0-7 5-5 5-7 0-2-6-6-6-9 0-3 0-19 3-27 3-8 15-11 11-18-4-7-55-29-12-29 43 0 47 31 54 44 7 14 16 32 26 48-17-3-13 38-13 48l10 0c19 25 21 46-22 50l-6-7c-42 10-27 13 0 36 27 24 33 44-5 44-38 0-73-28-84-44-11-15-6-26-66-36l6 7c-51-4-83-24-109-50l9 0c-18-10-89-52-99-48-25-20-53-41-78-61-10-9-31-23-23-29 9-6 40 0 50 8 9 9-4 12 17 25 22 13 39 15 54 25l43 24c18 9 36 18 53 27-4-28-62-57-86-84-25-28-57-59-91-88-14-14-22-22-29-33-7-11-5-10-14-20-8-11-10-14-15-21l66 0z"/>
<glyph glyph-name="damage-slashing" unicode="&#57363;" d="M509 509l-122-26-256-283-42 52-31-30 66-66-121-120 5-28 28-5 120 121 66-66 30 31-52 42 283 256z"/>
<glyph glyph-name="damage-spirit" unicode="&#57364;" d="M449 196l12 0c-4 63-27 115-93 126l0-17c-71 24-54 32-47 92 5 39-10 113-63 113-53 0-68-74-63-113 7-62 25-68-48-92l0 17c-66-11-89-63-93-126l14 0c-12-22-45-101-68-121l0-75 69 0c8 17 15 34 22 47 7 13 29 45 40 70 16-38 10-77 2-117l249 0c-9 40-15 80 2 117 9-20 20-36 31-55 3-6 13-13 16-18 3-5 0-16 3-24l10-20 67 0 0 79c-22 25-52 96-62 117z m-141-6l14-16c12-16 23-34 31-54-20 8-38 19-54 32l-15 12c-1-17-16-129-18-153-2 23-16 134-17 150l-28-22c-17-12-36-24-57-33 8 22 20 40 33 58l22 27-103 17 106 16-10 14c-12 16-24 33-32 54 21-8 38-20 54-32l15-11c0 5 15 90 15 90 7-25 16-91 16-91l6 4c17 12 36 24 57 33-8-22-20-40-33-58l-3-4c11-1 111-16 111-16 0 0-99-16-110-17z"/>
<glyph glyph-name="damage-system" unicode="&#57365;" d="M461 214l49 0 0 84-49 0c-35 0-55 48-30 73l35 35-60 59-35-34c-25-24-73-5-73 30l0 49-84 0 0-49c0-35-48-55-73-30l-35 34-59-59 35-35c24-25 5-73-30-73l-50 0 0-84 49 0c35 0 55-48 30-73l-34-35 59-59 35 35c25 24 73 5 73-31l0-49 84 0 0 49c0 35 48 55 73 31l35-35 59 59-35 35c-24 25-4 73 31 73z m-136 2l-69-40-69 40 0 80 69 40 69-40z"/>
<glyph glyph-name="damage-void" unicode="&#57366;" d="M412 424l22 46-76-51c-65 46-151 47-218 4-67-44-101-124-86-202l-39-95 51 55c6-13 22-40 22-40l-88-129 105 71-19-47 73 47c59-30 128-28 185 5 58 33 94 92 98 158l41 115-45-58c-4 18-11 35-20 51l94 146z m-165-313c-82 0-148 66-148 147 0 81 66 148 148 148 81 0 147-67 147-148 0-81-66-147-147-147z m-11 254c-45-5-81-36-94-79-12-43 3-88 37-116 35-28 83-32 122-10 39 21 60 64 55 108-7 60-61 103-120 97z"/>
<glyph glyph-name="damage-water" unicode="&#57367;" d="M434 453c0 1-1 3-3 3-2 0-3-2-3-3-1-2-19-50-81-50-61 0-81 48-81 50 0 1-1 3-3 3-2 0-3-2-3-3-1-2-19-50-81-50-61 0-82 48-83 50 0 1-1 3-3 3-2 0-3-2-3-3-1-2-19-50-81-50l-9 0 0-51 9 0c53 0 77 25 84 36 7-10 31-36 84-36 53 0 77 25 84 36 7-10 31-36 84-36 53 0 77 25 84 36 7-10 31-34 81-35l0 50c-56 3-76 48-76 50z m0-148c0 2-1 3-3 3-2 0-3-1-3-3-1-2-19-49-81-49-61 0-81 47-81 49 0 2-1 3-3 3-2 0-3-1-3-3-1-2-19-49-81-49-61 0-81 47-81 49 0 2-1 3-3 3-1 0-3-1-3-3-1-2-19-49-81-49l-11 0 0-51 9 0c53 0 77 24 84 36 7-11 31-36 84-36 53 0 77 24 84 36 7-11 31-36 84-36 53 0 77 24 84 36 7-11 31-34 81-35l0 50c-56 2-76 47-76 49z m0-146c0 1-1 3-3 3-2 0-3-2-3-3-1-2-19-49-81-49-61 0-81 47-81 49 0 1-1 3-3 3-2 0-3-2-3-3-1-2-19-49-81-49-61 0-81 47-81 49 0 1-1 3-3 3-1 0-3-2-3-3-1-2-19-49-81-49l-11 0 0-52 9 0c53 0 77 25 84 36 7-10 31-36 84-36 53 0 77 25 84 36 7-10 31-36 84-36 53 0 77 25 84 36 7-10 31-34 81-35l0 51c-56 1-76 47-76 49z"/>
<glyph glyph-name="filter-alloys" unicode="&#57368;" d="M339 45l65-5 28 306 58 80-53 39-63-87-6-17z m-298 312l55 69 13-11 17 23 82-38-4-100-28-21-106 6-19 40z m204-9l41 49 49-59-45-285-65-16-44 10 93 236-98-183-57 3-79 18c0 0 178 101 205 227z m250 147l0-478-478 0 0 478 478 0m17 17l-512 0 0-512 512 0z"/>
<glyph glyph-name="filter-armor" unicode="&#57369;" d="M131 60l0 50 15 104c2-4 7-36 14-47 7-11 5-98 5-98 0-33 178-33 178 0 0 0-5 82 5 98 10 16 14 49 14 49l0 6 20-117 0-49 40 0 16 69c0 0-5 54-10 79l0 23c0 91-76 88-76 88l-8 11-10 0-8 9-25 7 0 6c3 19 5 39 5 59 0 30-17 43-17 43 0 0-20 18-38 18-19 0-36-18-36-18 0 0-17-14-17-43 0-20 2-40 5-59l0-6-24-7-8-9-6 0-8-11c0 0-76 3-76-88l0-22c-5-24-9-75-9-75l16-69z m-131 452l0-512 512 0 0 512z m495-495l-478 0 0 478 478 0z"/>
<glyph glyph-name="filter-arrow" unicode="&#57370;" d="M495 495l0-478-478 0 0 478 478 0m17 17l-512 0 0-512 512 0z m-379-299l19 20 189 0 29-24 117 47-117 47-29-24-187 0-21 24-108 0 23-47-23-43z"/>
<glyph glyph-name="filter-axe" unicode="&#57371;" d="M495 495l0-478-478 0 0 478 478 0m17 17l-512 0 0-512 512 0z m-252-162l18 42-65 29-19-46-46 18-67-27 28-69 44-18-114-269 74-10 105 250c60-36 68-109 41-205 0 0 136 30 193 165 56 135-17 253-17 253-45-84-102-127-175-113z"/>
<glyph glyph-name="filter-bandages" unicode="&#57372;" d="M495 495l0-478-478 0 0 478 478 0m17 17l-512 0 0-512 512 0z m-292-418l202 164c38 37 42 98 8 139-34 42-94 51-138 21l-35-28 109-134-17-13-120 144-115-94 118-143-16-14-108 133-18-15c-38-37-42-98-8-139 34-42 94-51 138-21z"/>
<glyph glyph-name="filter-basalt-slab" unicode="&#57373;" d="M0 512l0-512 512 0 0 512z m495-495l-478 0 0 55 316 0 107 107 0 316 55 0z"/>
<glyph glyph-name="filter-black-board" unicode="&#57374;" d="M496 512l-496 0 0-512 512 0 0 512z m-1-495l-478 0 0 478 358 0-274-170-56-36 49-44 31-28 27-59 22-50 20 11 23-29 31-39 39 31 208 167z m0 405l0-110-239-190-25 32 202 162-235-138-31 69-39 35 341 213 27 0 0-30-286-180z"/>
<glyph glyph-name="filter-black-log" unicode="&#57375;" d="M355 428c-4 0-7-1-11-3l-166-97 0 39-24 24-9-83-74-44c-45-24 35-180 86-180l10 3 162 95 63-23 31 14-58 30 75 44c47 25-32 181-85 181z m-198-291c-7 7-20 21-31 42-11 22-17 40-18 50l248 147c8-7 20-21 32-42 12-22 18-40 19-50z m338 358l0-478-478 0 0 478 478 0m17 17l-512 0 0-512 512 0z"/>
<glyph glyph-name="filter-blocks" unicode="&#57376;" d="M495 495l0-478-478 0 0 478 478 0m17 17l-512 0 0-512 512 0z m-462-268l192 0 0-192-192 0z m220 0l192 0 0-192-192 0z m-107 217l191 0 0-192-191 0z"/>
<glyph glyph-name="filter-bolt" unicode="&#57377;" d="M495 495l0-478-478 0 0 478 478 0m17 17l-512 0 0-512 512 0z m-136-331l-155 155-3 63-187 80 80-187 63-3 157-157-1-16 83-83 14 50 54 18-83 83z"/>
<glyph glyph-name="filter-bow" unicode="&#57378;" d="M495 495l0-478-478 0 0 478 478 0m17 17l-512 0 0-512 512 0z m-459-130l22 6c20-29 42-56 65-83 24-26 53-58 80-86 28-28 55-54 85-80 27-23 54-45 83-65l-5-20-2-5 22-14 4 7c1 2 26 59 32 80 14 41 22 80 24 114 0 4-1 9-3 13-1 2-2 4-2 6 0 2 0 5 0 8l0 6c0 3 0 6-1 10-1 7-2 14-3 21-1 6-2 14-5 21-4 6-7 11-14 17l-8 5-1 0-8 4-12 5-5 2-13 8-29 29-8 13-2 5-5 12-4 8-6 9c-5 6-10 10-17 13-7 3-14 4-20 5l-22 3-21 0-6 2c-4 2-9 3-14 3-33-2-72-10-113-24-21-7-78-31-80-32l-7-4 14-22z m272-223c-26 29-52 58-80 86-28 28-57 54-85 80-26 22-52 44-81 64 36 9 73 14 109 17 74 2 107-32 107-33l2-2 3 0 19-2 8-2 16-15 6-6 2 0 15-16 2-7c1-5 2-14 2-20l0-3 2-2c0 0 35-33 32-107-3-46-11-87-16-112-19 26-41 54-63 80z"/>
<glyph glyph-name="filter-building" unicode="&#57379;" d="M495 495l0-478-478 0 0 478 478 0m17 17l-512 0 0-512 512 0z m-124-512l0 200 57 49 0 152-72 0 0-49-80 0 0 49-74 0 0-49-80 0 0 49-72 0 0-152 57-49 0-200z"/>
<glyph glyph-name="filter-cherry-board" unicode="&#57380;" d="M464 512l-464 0 0-512 512 0 0 512z m32-495l-479 0 0 478 417 0-265-156-17 44c45 50-6 100-6 100 0 0-52-40-34-79-28-1-43-29-43-29 0 0 39-29 62-8l16-41-80-47 65-99 7 5 46-50 265 177-244-211 38-47 251 225z"/>
<glyph glyph-name="filter-cherry-log" unicode="&#57381;" d="M360 384l-176-103-3 28c83 43 46 135 46 135 0 0-94-23-93-86-39 15-76-14-76-14 0 0 39-65 84-45l4-39-76-47c-34-19 49-164 83-144l291 172c36 20-47 165-84 143z m135 111l0-478-478 0 0 478 478 0m17 17l-512 0 0-512 512 0z"/>
<glyph glyph-name="filter-cloths" unicode="&#57382;" d="M214 440c0 0 57 52 152 26l60-76-4-324-70-32-69 12 67 339-94-285-67-7-105 31 34 59-76 26c62 62 124 114 172 231z m281 55l0-478-478 0 0 478 478 0m17 17l-512 0 0-512 512 0z"/>
<glyph glyph-name="filter-cloths-raw" unicode="&#57383;" d="M414 296c-24-1-47-6-68-16-21-10-40-24-56-40l-1 0c12 23 27 45 45 65 28 32 61 60 97 82l-11 25c-43-20-81-45-116-76-16-15-31-30-44-47l19 158-59-118c-7 23-18 45-36 64l-36-35c12-13 23-32 27-51 3-11 3-22 2-34l-146-273 176 0 120 193c38 18 83 21 83 21 0 0-40 12-78 7 9 9 19 19 32 26 16 10 34 16 53 18 18 3 39 1 58-3l7 25c-22 6-45 10-68 9z m81 199l0-478-478 0 0 478 478 0m17 17l-512 0 0-512 512 0z"/>
<glyph glyph-name="filter-consumables" unicode="&#57384;" d="M495 495l0-478-478 0 0 478 478 0m17 17l-512 0 0-512 512 0z m-225-326l-68 0c-30 0-58 13-77 36l-57 68 0-149c0-30 25-55 55-55l231 0c30 0 55 25 55 55l0 155-64-75c-19-22-46-35-75-35z m-202 241l0-71 90-106c11-13 27-21 44-21l68 0c17 0 33 8 44 21l96 114 0 63z"/>
<glyph glyph-name="filter-dagger" unicode="&#57385;" d="M495 495l0-478-478 0 0 478 478 0m17 17l-512 0 0-512 512 0z m-344-215l-24-23 25-42 30 31 152-183 87-18-13 92-171 164 29 29-39 26-24-24-72 78 9 23-61-22-22-61 22 8z"/>
<glyph glyph-name="filter-dark-board" unicode="&#57386;" d="M480 512l-480 0 0-512 512 0 0 512z m16-495l-479 0 0 478 432 0-364-198 61-61-28-16 66-79 145 90-11 52 141 59-93-85-2-35-145-125 38-47 238 212z m0 403l-236-125 235 170z"/>
<glyph glyph-name="filter-dark-log" unicode="&#57387;" d="M427 350l-81-47-27-65-177-60 152 73 27 73 92 48c-18 22-37 36-51 28l-154-91 0 67 73 59-99-40-40-125-77-45c-20-11-2-63 25-103l118 30-96-57c14-14 27-21 38-16l128 75 168 99c20 11 5 59-19 97z m68 145l0-478-478 0 0 478 478 0m17 17l-512 0 0-512 512 0z"/>
<glyph glyph-name="filter-decor" unicode="&#57388;" d="M495 495l0-478-478 0 0 478 478 0m17 17l-512 0 0-512 512 0z m-119-256c0 114-61 206-137 206-76 0-137-92-137-206 0-49 11-94 31-130l-31-24 0-52 274 0 0 52-31 24c19 36 31 81 31 130z m-137-134c-43 0-78 59-78 134 0 75 35 134 78 134 43 0 78-59 78-134 0-75-35-134-78-134z"/>
<glyph glyph-name="filter-deployables" unicode="&#57389;" d="M495 495l0-478-478 0 0 478 478 0m17 17l-512 0 0-512 512 0z m-340-157l168 0 0-60 87 0 0 148-342 0 0-148 87 0z m124-121l0 46-80 0 0-46-135 0 175-165 175 165z"/>
<glyph glyph-name="filter-focus" unicode="&#57390;" d="M495 495l0-478-478 0 0 478 478 0m17 17l-512 0 0-512 512 0z m-67-141l-206 93-166-236c0 0-24-32 0-84l210-96 167 241-18 8-152-220-193 87 0 54 192-81z"/>
<glyph glyph-name="filter-food" unicode="&#57391;" d="M495 495l0-478-478 0 0 478 478 0m17 17l-512 0 0-512 512 0z m-105-382l-57 72c58 107-107 268-107 268-82-6-194-144-188-211 65-81 170-133 225-113l20 10 51-59c0 0-25-35 1-49 41-21 55 22 55 22 0 0 50-7 50 27 0 49-50 33-50 33z m-225 219c-14-19-32-31-39-24-6 6-1 25 15 44 15 18 32 30 39 24 6-6 0-24-15-44z"/>
<glyph glyph-name="filter-gneiss-slab" unicode="&#57392;" d="M438 512l-438 0 0-512 512 0 0 512z m58-495l-479 0 0 478 57 0 0-335c0-31 24-56 55-56l253 0c30 0 55 25 55 56l0 335 58 0z"/>
<glyph glyph-name="filter-granite-slab" unicode="&#57393;" d="M0 512l0-512 512 0 0 512z m495-495l-285 0 200 205-2 69-199 204 286 0z"/>
<glyph glyph-name="filter-great-axe" unicode="&#57394;" d="M495 495l0-478-478 0 0 478 478 0m17 17l-512 0 0-512 512 0z m-182-306c36 18 60 18 99-35 0 0 44 92-8 186-52 95-155 106-155 106 27-60 20-92-16-122l-18 29-53-34 15-26c-46-16-79-7-117 46 0 0-43-93 10-186 53-93 157-102 157-102-27 64-12 85 27 107l99-173 80-2z"/>
<glyph glyph-name="filter-great-hammer" unicode="&#57395;" d="M495 495l0-478-478 0 0 478 478 0m17 17l-512 0 0-512 512 0z m-296-360l10 48 19 15 174-215 68 5-199 245 20 16 1-1 49 0 51 41-121 149-49-40-11-47-21-18-12 16-42-37 11-14-19-15-50 0-50-40 121-149z"/>
<glyph glyph-name="filter-great-mace" unicode="&#57396;" d="M495 495l0-478-478 0 0 478 478 0m17 17l-512 0 0-512 512 0z m-300-370l100-8 77-134 57 9-90 157 40 82-25 44-12-24-30 54 14 58-59 103-56-89-11 22-56-32 13-23-108-3 59-103 57-16 31-55-26 2z"/>
<glyph glyph-name="filter-great-sword" unicode="&#57397;" d="M495 495l0-478-478 0 0 478 478 0m17 17l-512 0 0-512 512 0z m-293-251l-5-7c-6-10-11-22-13-37 15 0 27 4 38 9l6 3 89-111-20-6-26-3-14-7-14-6 14-8 16-6 31 4c10 2 20 6 30 10l15 8 61-70 26 22-63 71 9 13c6 9 10 19 14 29 3 10 6 20 8 30-1 5-2 11-3 16-1 5-3 10-5 15l-18-26c-2-9-4-18-7-27-2-5-4-10-7-15l-5 0-93 97 9 12c6 11 11 22 13 37-15 0-27-4-38-9l-15-8-111 117-82 70 62-93z"/>
<glyph glyph-name="filter-hammer" unicode="&#57398;" d="M495 495l0-478-478 0 0 478 478 0m17 17l-512 0 0-512 512 0z m-253-282l40-27 16-47-1-2 56-36 108 162-54 36-2-2-49-2-41 27 19 29-59 36-18-26-57 39-10-17-153 20-11-20 113-75-2-3 6-25 41-29-173-260 81-2z"/>
<glyph glyph-name="filter-hardmetal-bar" unicode="&#57399;" d="M63 282l177 24 13 149-171-32z m299 230l-362 0 0-512 512 0 0 512z m-103-101l-3-116 155-247-2-2-169 238-164-24 162-243-106 0-115 115 0 248 115 115 248 0 115-115 0-248-39-39-203 362z"/>
<glyph glyph-name="filter-heavy-back" unicode="&#57400;" d="M358 267c-9 43-9 137-9 137 0 0 0 35 27 43l0 27c26 0-23 13-53-17-31-31-36-61-36-61l-61-19-73-24c0 0-18 26 17 61l9 8 0 27-17 8c0 0-89-35-89-95l0-181c0 0 0-94 26-111 27-18 63-35 116-35 53 0 53 25 53 25l0 77-58 0c-108 3-77 192-77 192l9-24c3-60 6-102 35-123 29-20 115-14 115-14l0-59c40 20 49 29 102 29l27 0 17 18 0 94c0 0-70-26-80 17z m4 245l-362 0 0-512 512 0 0 512z m133-380l-115-115-248 0-115 115 0 248 115 115 248 0 115-115z"/>
<glyph glyph-name="filter-heavy-chest" unicode="&#57401;" d="M174 465l-46 0-22-22c0 0 44-141-44-158l0-43c-87 0 9-18 26-43 17-26 26-43 26-78 0-35-18-35-18-35 0-51 319-51 319 0 0 0-18 0-18 35 0 35 9 51 26 78 17 26 26 43 26 43l0 42c-87 18-45 158-45 158l-20 23-46 0c0-63-164-63-164 0z m137-334c-23 0-40 3-40 3l-16-38-16 38c0 0-17-3-40-3-24 0-40 28-40 28 11-9 25-14 40-14 45 0 55 56 55 56 0 0 7-56 55-56 15 0 29 5 40 14 88 13-13-28-38-28z m121 130c0 0-16-62-67-62-52 0-59 35-110 35-51 0-58-35-110-35-51 0-67 62-67 62 42-72 76-45 109-28l51 27 8 80 8 32 8-32 8-80 51-27c35-17 69-44 111 28z m-70 251l-362 0 0-512 512 0 0 512z m133-380l-115-115-248 0-115 115 0 248 115 115 248 0 115-115z"/>
<glyph glyph-name="filter-heavy-cloak" unicode="&#57402;" d="M362 512l-362 0 0-512 512 0 0 512z m133-380l-88-88c-26 49-66 147-48 265 19 118 74 99 74 99l0 11c0 0-56 30-120-23-42-35-92-21-92-21 36 62 69 53 69 53l0 9c0 0-29 3-66-11-55-22-69-52-83-85-22-52-53-94-53-94 0 0 35-19 60-6-29-70-38-154-42-198l-89 89 0 248 115 115 248 0 115-115z"/>
<glyph glyph-name="filter-heavy-feet" unicode="&#57403;" d="M287 263l0 56-31 141-110 0 29-90c0 0-18-51-50-69-32-18-81-44-87-62l0-31c-6 0-6-19 56-19 63 0 101 7 144 38 43 32 49 36 49 36z m75 249l-362 0 0-512 512 0 0 512z m133-380l-115-115-248 0-115 115 0 248 115 115 248 0 36-36-124 0 37-183c0 0-24-62-63-85-39-22-100-54-108-77l0-39c-8 0-8-24 69-24 78 0 124 8 179 46 54 38 62 46 62 46l0 72-8 24 0 39 10 126 25-24z"/>
<glyph glyph-name="filter-heavy-forearm" unicode="&#57404;" d="M468 319c0 0-47 19-89 41l3 17c0 0-29 64-97 100l-24-22-116-203-76-149c26-16 54-25 89-25l4 10 51-34c0 0 45 52 90 99l5-5 5 0 32 31 0 6-4 5c14 14 27 24 37 31 49 33 99 91 99 91z m-261-223l-34 23 74 82 32-28c-28-28-55-57-72-77z m152 151c-11-7-24-20-40-33l-30 35 75 83c21-11 43-22 60-29-17-18-41-41-65-56z m3 265l-362 0 0-512 512 0 0 512z m133-380l-115-115-248 0-115 115 0 248 115 115 248 0 115-115z"/>
<glyph glyph-name="filter-heavy-hand" unicode="&#57405;" d="M351 465c0 0-64-29-101-52-37-24-99-91-99-91 0 0-68-105-73-139l-6-38 8 0-6-37c-2-13 5-23 14-16l14 36 14 28 30 33-30-67-13-45c-4-11 2-25 15-16 12 10 24 52 24 52l32 42 9 7-16-48 0-56c0 0-2-12 15-11 18 1 13 24 13 24l6 42 24 47c0 0 35 62 70 65 35 3 52 9 66-10 15-19 18-54 18-54 0 0-14-36-8-55 6-18 22-16 22-16l27 64c0 0 21 82 16 108-5 27-7 61-7 61 0 0-8 56 1 63 0 37-20 70-79 79z m11 47l-362 0 0-512 512 0 0 512z m133-380l-115-115-248 0-115 115 0 248 115 115 248 0 115-115z"/>
<glyph glyph-name="filter-heavy-neck" unicode="&#57406;" d="M401 312l0 82c0 0-12 41-142 41-130 0-148-35-148-35l0-89-81-44c0 0 21-140 226-190 205 51 226 190 226 190z m-147 95c88 0 105-17 105-22 0-5-103-35-103-35 0 0-103 30-103 35 0 5 13 22 101 22z m108 105l-362 0 0-512 512 0 0 512z m133-380l-115-115-248 0-115 115 0 248 115 115 248 0 115-115z"/>
<glyph glyph-name="filter-heavy-shins" unicode="&#57407;" d="M362 512l-362 0 0-512 512 0 0 512z m-216-299c0 0-59 40-59 110l59 70 60-70c0-74-60-110-60-110z m160 110l60 70 59-70c0-71-59-111-59-111 0 0-60 37-60 111z m189-191l-74-74 6 62 20 92 0 38 7 18 0 71-86 97-94-104-3-59 11-17-4-27 6-49 15-48 20-71 4-45-134 0 4 45 20 71 15 48 6 49-4 27 11 17-3 59-94 104-88-97 0-71 6-18 0-37 21-92 6-62-72 73 0 248 115 115 248 0 115-115z"/>
<glyph glyph-name="filter-heavy-shoulder" unicode="&#57408;" d="M422 436l-39 0-25-29c0 0-238 10-238-264l-21-9-19-58 313 0 39 341z m-189-285l-64 0c6 154 85 209 175 209-137-73-111-209-111-209z m129 361l-362 0 0-512 512 0 0 512z m133-380l-115-115-248 0-115 115 0 248 115 115 248 0 115-115z"/>
<glyph glyph-name="filter-heavy-skull" unicode="&#57409;" d="M443 272c-18 78-79 140-156 153l0 26-62 0 0-26c-77-13-138-75-156-153-20-3-32-6-32-9l0-39c0-14 98-25 218-25 120 0 218 11 218 25l0 38c1 4-10 7-30 10z m-81 240l-362 0 0-512 512 0 0 512z m133-380l-115-115-248 0-115 115 0 248 115 115 248 0 115-115z"/>
<glyph glyph-name="filter-heavy-thighs" unicode="&#57410;" d="M54 406l-9-10c0 0 6-251 32-278 9-10 26-17 47-20-18 95-27 191-31 287-14 4-27 11-39 21z m159 9c0 0-44-33-94-33-4-94-3-188 6-284 42-5 93 5 103 28 11 22 0 280 0 280z m109-204c-1 61 2 124 8 185-11 5-21 11-31 18l-15-8c0 0-16-247 0-280 15-33 120-41 151-8 31 33 32 278 32 278l-9 10c-33-28-70-27-101-19-15-58-27-117-35-176z m40 301l-362 0 0-512 512 0 0 512z m133-380l-115-115-248 0-115 115 0 248 115 115 248 0 115-115z"/>
<glyph glyph-name="filter-heavy-waist" unicode="&#57411;" d="M474 315l-120 0-25 21-146 0-25-21-120 0c-13 0-13-118 0-118l120 0 25-21 146 0 25 21 120 0c13 0 13 118 0 118z m-146-88l-12-11-120 0-12 11 0 58 12 11 120 0 12-11z m34 285l-362 0 0-512 512 0 0 512z m133-380l-115-115-248 0-115 115 0 248 115 115 248 0 115-115z"/>
<glyph glyph-name="filter-igneous-ore" unicode="&#57412;" d="M37 156l55 206 39-12 15 69 233 0 35-81-140 8 169-78 32-74-78-101-46 107 6-107-220 0 13 119-63-87z m458 339l0-478-478 0 0 478 478 0m17 17l-512 0 0-512 512 0z"/>
<glyph glyph-name="filter-interactive" unicode="&#57413;" d="M495 495l0-478-478 0 0 478 478 0m17 17l-512 0 0-512 512 0z m-201-140l8-17-57-29c-13 16-32 26-52 29l0 108-165 0 0-414 164 0 0 140c23 4 44 16 58 36 13 20 17 44 12 67l58 30 8-16 84 43-35 66z"/>
<glyph glyph-name="filter-leathers" unicode="&#57414;" d="M430 286c-47 70-73 117-89 202l-240-68c10-33 19-63 29-90l-42-16-9-21 110-269 235 116-27 64-176-84-106 139-10 24 118-129 193 90 15 7c0 0 3 29-1 35z m65 209l0-478-478 0 0 478 478 0m17 17l-512 0 0-512 512 0z"/>
<glyph glyph-name="filter-leathers-raw" unicode="&#57415;" d="M304 478l-44-22c-14-26 4-87-102-68l-20 5c-5 2-11 2-16-1-5-3-8-8-9-13l-10-49c36-9 64-23 54-84-11-62-46-88-83-84l-8-47c-3-14 6-27 20-30l22-4c15 15 35 24 61 19 26-5 26-5 35-24l4 0 48-9 4 0c15 15 16 15 41 11 25-4 41-20 50-40l22-4c14-3 27 6 29 20l9 47c-36 10-60 47-49 108 12 60 42 63 79 59l10 49c0 6-1 12-5 16-3 4-8 7-14 7l-19 2c-107 19-68 71-72 99l-37 37m191 17l0-478-478 0 0 478 478 0m17 17l-512 0 0-512 512 0z"/>
<glyph glyph-name="filter-light-back" unicode="&#57416;" d="M495 495l0-478-478 0 0 478 478 0m17 17l-512 0 0-512 512 0z m-154-245c-9 43-9 137-9 137 0 0 0 35 27 43l0 27c26 0-23 13-53-17-31-31-36-61-36-61l-61-19-73-24c0 0-18 26 17 61l9 8 0 27-17 8c0 0-89-35-89-95l0-181c0 0 0-94 26-111 27-18 63-35 116-35 53 0 53 25 53 25l0 77-58 0c-108 3-77 192-77 192l9-24c3-60 6-102 35-123 29-20 115-14 115-14l0-59c40 20 49 29 102 29l27 0 17 18 0 94c0 0-70-26-80 17z"/>
<glyph glyph-name="filter-light-board" unicode="&#57417;" d="M503 512l-503 0 0-512 512 0 0 512z m-8-495l-478 0 0 478 454 0-404-221 80-102 37-50 281 175-246-212 38-47 238 212z m0 406l-171-113 171 134z"/>
<glyph glyph-name="filter-light-chest" unicode="&#57418;" d="M495 495l0-478-478 0 0 478 478 0m17 17l-512 0 0-512 512 0z m-106-69l-22 22-46 0c0-63-164-63-164 0l-46 0-22-22c0 0 44-141-44-158l0-43c-87 0 9-18 26-43 17-26 26-43 26-78 0-35-18-35-18-35 0-51 319-51 319 0 0 0-18 0-18 35 0 35 9 51 26 78 17 26 26 43 26 43l0 42c-85 18-43 159-43 159z m-95-312c-23 0-40 3-40 3l-16-38-16 38c0 0-17-3-40-3-24 0-40 28-40 28 11-9 25-14 40-14 45 0 55 56 55 56 0 0 7-56 55-56 15 0 29 5 40 14 88 13-13-28-38-28z m54 67c-51 0-59 35-110 35-51 0-58-35-110-35-51 0-67 62-67 62 42-72 76-45 109-28l51 27 8 80 8 32 8-32 8-80 51-27c33-17 67-44 109 28 2 1-14-62-64-62z"/>
<glyph glyph-name="filter-light-cloak" unicode="&#57419;" d="M0 512l0-512 512 0 0 512z m495-495l-72 0c-15 24-86 144-64 293 18 118 74 99 74 99l0 10c0 0-56 30-120-23-42-35-92-21-92-21 36 62 69 53 69 53l0 9c0 0-29 3-66-11-55-22-69-52-83-85-22-52-53-94-53-94 0 0 35-19 60-6-37-90-43-201-44-225l-87 0 0 479 478 0z"/>
<glyph glyph-name="filter-light-face" unicode="&#57420;" d="M0 512l0-512 512 0 0 512z m495-495l-478 0 0 478 478 0z m-358 93l85-87 10 202-12 20-73 37-13-14 0 64 122-40 122 40 0-63-13 14-73-37-12-20 10-202 85 87 28 13c0 0 16 102 16 188 0 86-52 124-52 124 0 0-60 52-114 52-54 0-108-52-108-52 0 0-51-37-51-124 0-87 16-188 16-188z"/>
<glyph glyph-name="filter-light-feet" unicode="&#57421;" d="M495 495l0-478-478 0 0 478 478 0m17 17l-512 0 0-512 512 0z m-37-52l-183 0 37-182c0 0-24-63-63-85-39-23-100-55-108-78l0-39c-8 0-8-24 69-24 78 0 124 8 179 46 54 38 62 46 62 46l0 71-8 24 0 39z m-300-90c0 0-18-51-50-69-32-18-81-44-87-62l0-31c-6 0-6-19 56-19 63 0 101 7 144 38 43 32 50 38 50 38l0 54-32 141-110 0z"/>
<glyph glyph-name="filter-light-forearm" unicode="&#57422;" d="M0 512l0-512 512 0 0 512z m495-495l-478 0 0 478 478 0z m-351 61l52-34c0 0 45 52 90 98l5-4 5 0 32 31 0 6-4 5c14 14 26 24 36 31 50 33 100 91 100 91l-8 8c0 0-48 19-90 41l4 17c0 0-29 64-98 100l-23-23-116-203-77-149c27-16 54-25 89-25z m203 245c22-12 43-22 61-29-18-19-42-40-65-56-11-8-25-20-40-33l-31 35z m-117-132l32-27c-28-29-54-58-72-77l-33 23z"/>
<glyph glyph-name="filter-light-hand" unicode="&#57423;" d="M495 495l0-478-478 0 0 478 478 0m17 17l-512 0 0-512 512 0z m-161-47c0 0-64-29-101-52-37-24-99-91-99-91 0 0-68-105-73-139l-6-38 8 0-6-37c-2-13 5-23 14-16l14 36 14 28 30 33-30-67-13-45c-4-11 2-25 15-16 12 10 24 52 24 52l32 42 9 7-16-48 0-56c0 0-2-12 15-11 18 1 13 24 13 24l6 42 24 47c0 0 35 62 70 65 35 3 52 9 66-10 15-19 18-54 18-54 0 0-14-36-8-55 6-18 22-16 22-16l27 64c0 0 21 82 16 108-5 27-7 61-7 61 0 0-8 56 1 63 0 37-20 70-79 79z"/>
<glyph glyph-name="filter-light-log" unicode="&#57424;" d="M362 418l-144-85-3 46-34 15 0-82-118-70c-34-21 51-168 87-148l297 175c38 23-48 170-85 149z m133 77l0-478-478 0 0 478 478 0m17 17l-512 0 0-512 512 0z"/>
<glyph glyph-name="filter-light-neck" unicode="&#57425;" d="M495 495l0-478-478 0 0 478 478 0m17 17l-512 0 0-512 512 0z m-111-200l0 82c0 0-12 41-142 41-130 0-148-35-148-35l0-89-81-44c0 0 21-140 226-190 205 51 226 190 226 190z m-147 95c88 0 105-17 105-22 0-5-103-35-103-35 0 0-103 30-103 35 0 5 13 22 101 22z"/>
<glyph glyph-name="filter-light-shins" unicode="&#57426;" d="M0 512l0-512 512 0 0 512z m495-495l-478 0 0 478 478 0z m-217 212l6-49 15-48 20-71 4-47 94 0 11 106 21 92 0 38 6 18 0 71-87 97-94-104-3-59 11-17z m88 164l59-70c0-71-59-111-59-111 0 0-60 36-60 111z m-303-180l21-92 11-107 94 0 4 47 20 71 15 48 6 49-4 27 11 17-3 59-94 104-88-97 0-71 6-18z m83 180l60-70c0-75-60-111-60-111 0 0-59 41-59 111z"/>
<glyph glyph-name="filter-light-shoulder" unicode="&#57427;" d="M0 512l0-512 512 0 0 512z m495-495l-478 0 0 478 478 0z m-63 400l-10 19-39 0-25-29c0 0-238 10-238-264l-21-9-19-58 313 0z m-199-266l-64 0c6 154 85 209 175 209-137-73-111-209-111-209z"/>
<glyph glyph-name="filter-light-skull" unicode="&#57428;" d="M495 495l0-478-478 0 0 478 478 0m17 17l-512 0 0-512 512 0z m-69-240c-18 78-79 140-156 153l0 26-62 0 0-26c-77-13-138-75-156-153-20-3-32-6-32-9l0-39c0-14 98-25 218-25 120 0 218 11 218 25l0 38c1 4-10 7-30 10z"/>
<glyph glyph-name="filter-light-thighs" unicode="&#57429;" d="M0 512l0-512 512 0 0 512z m495-495l-478 0 0 478 478 0z m-371 82c-18 95-27 191-31 287-14 4-27 11-39 21l-9-10c0 0 6-251 32-278 10-11 27-18 47-20z m104 28c16 33 0 280 0 280l-15 8c0 0-44-33-94-33-4-94-3-188 6-284 42-5 93 6 103 29z m207-8c26 27 32 278 32 278l-9 10c-33-28-70-27-101-19-15-57-27-117-35-176-1 61 2 124 8 185-11 5-21 11-31 18l-15-8c0 0-16-247 0-280 15-33 120-42 151-8z"/>
<glyph glyph-name="filter-light-waist" unicode="&#57430;" d="M495 495l0-478-478 0 0 478 478 0m17 17l-512 0 0-512 512 0z m-38-197l-120 0-25 21-146 0-25-21-120 0c-13 0-13-118 0-118l120 0 25-21 146 0 25 21 120 0c13 0 13 118 0 118z m-146-88l-12-11-120 0-12 11 0 58 12 11 120 0 12-11z"/>
<glyph glyph-name="filter-long-sword" unicode="&#57431;" d="M495 495l0-478-478 0 0 478 478 0m17 17l-512 0 0-512 512 0z m-98-382l6 9c4 7 8 14 11 22 3 7 6 15 8 22 0 4-1 9-2 13l0 6-2 6-4-5-4-5-8-10c-2-6-5-12-7-18l-59 31-190 198-129 71 74-125 206-188 27-57-18-6-20-15 12-4 14 0 22 8 22 12 15 13 67-63 22 28z"/>
<glyph glyph-name="filter-mace" unicode="&#57432;" d="M495 495l0-478-478 0 0 478 478 0m17 17l-512 0 0-512 512 0z m-212-39c-75-86-139-101-139-101 23-107-16-197-18-201l-3-6 28-15-81-149 71 0 66 121 21-11 4 8c9 13 63 85 159 121 0 0-22 62 10 171z"/>
<glyph glyph-name="filter-marble-slab" unicode="&#57433;" d="M0 512l0-512 512 0 0 512z m495-495l-478 0 0 279 243-216 235 210z"/>
<glyph glyph-name="filter-medium-back" unicode="&#57434;" d="M358 267c-9 43-9 137-9 137 0 0 0 35 27 43l0 27c26 0-23 13-53-17-31-31-36-61-36-61l-61-19-73-24c0 0-18 26 17 61l9 8 0 27-17 8c0 0-89-35-89-95l0-181c0 0 0-94 26-111 27-18 63-35 116-35 53 0 53 25 53 25l0 77-58 0c-108 3-77 192-77 192l9-24c3-60 6-102 35-123 29-20 115-14 115-14l0-59c40 20 49 29 102 29l27 0 17 18 0 94c0 0-70-26-80 17z m4 245l-362 0 0-512 512 0 0 512z m-230-495l-115 115 0 363 363 0 115-115 0-363z"/>
<glyph glyph-name="filter-medium-chest" unicode="&#57435;" d="M406 443l-22 22-46 0c0-63-164-63-164 0l-46 0-22-22c0 0 44-141-44-158l0-43c-87 0 9-18 26-43 17-26 26-43 26-78 0-35-18-35-18-35 0-51 319-51 319 0 0 0-18 0-18 35 0 35 9 51 26 78 17 26 26 43 26 43l0 42c-85 18-43 159-43 159z m-95-312c-23 0-40 3-40 3l-16-38-16 38c0 0-17-3-40-3-24 0-40 28-40 28 11-9 25-14 40-14 45 0 55 56 55 56 0 0 7-56 55-56 15 0 29 5 40 14 88 13-13-28-38-28z m54 67c-51 0-59 35-110 35-51 0-58-35-110-35-51 0-67 62-67 62 42-72 76-45 109-28l51 27 8 80 8 32 8-32 8-80 51-27c33-17 67-44 109 28 2 1-14-62-64-62z m-3 314l-362 0 0-512 512 0 0 512z m-230-495l-115 115 0 363 363 0 115-115 0-363z"/>
<glyph glyph-name="filter-medium-cloak" unicode="&#57436;" d="M362 512l-362 0 0-512 512 0 0 512z m133-495l-72 0c-15 24-86 144-64 293 18 118 74 99 74 99l0 10c0 0-56 30-120-23-42-35-92-21-92-21 36 62 69 53 69 53l0 9c0 0-29 3-66-11-55-22-69-52-83-85-22-52-53-94-53-94 0 0 35-19 60-6-29-70-38-154-42-198l-89 89 0 363 363 0 115-115z"/>
<glyph glyph-name="filter-medium-face" unicode="&#57437;" d="M367 436c0 0-60 52-114 52-54 0-108-52-108-52 0 0-51-37-51-124 0-87 16-188 16-188l28-13 85-87 10 202-12 20-73 37-13-14 0 63 122-40 122 40 0-63-13 14-73-37-12-20 10-202 85 87 28 13c0 0 16 102 16 188 0 86-53 124-53 124z m-5 76l-362 0 0-512 512 0 0 512z m-230-495l-115 115 0 363 363 0 115-115 0-363z"/>
<glyph glyph-name="filter-medium-feet" unicode="&#57438;" d="M287 263l0 56-31 141-110 0 29-90c0 0-18-51-50-69-32-18-81-44-87-62l0-31c-6 0-6-19 56-19 63 0 101 7 144 38 43 32 49 36 49 36z m75 249l-362 0 0-512 512 0 0 512z m133-495l-363 0-115 115 0 363 363 0 36-36-124 0 37-183c0 0-24-62-63-85-39-22-100-54-108-77l0-39c-8 0-8-24 69-24 78 0 124 8 179 46 54 38 62 46 62 46l0 72-8 24 0 39 10 126 25-24z"/>
<glyph glyph-name="filter-medium-forearm" unicode="&#57439;" d="M286 477l-25-22-116-203-76-149c26-16 54-25 89-25l4 10 51-34c0 0 45 52 90 99l5-5 5 0 32 31 0 6-4 5c14 14 27 24 37 31 49 33 99 91 99 91l-8 9c0 0-47 18-89 40l3 17c0 0-30 63-97 99z m-79-381l-34 23 74 82 32-28c-28-28-55-57-72-77z m218 207c-17-18-42-40-65-56-11-7-24-20-39-33l-31 35 75 83c20-11 43-22 60-29z m-63 209l-362 0 0-512 512 0 0 512z m133-495l-363 0-115 115 0 363 363 0 115-115z"/>
<glyph glyph-name="filter-medium-hand" unicode="&#57440;" d="M250 413c-38-24-99-91-99-91 0 0-68-105-73-139l-6-38 8 0-6-37c-2-13 5-23 14-16l14 36 14 28 30 33-30-67-13-45c-4-11 2-25 15-16 12 10 24 52 24 52l32 42 9 7-16-48 0-56c0 0-2-12 15-11 18 1 13 24 13 24l6 42 24 47c0 0 35 62 70 65 35 3 52 9 66-10 15-19 18-54 18-54 0 0-14-36-8-55 6-18 22-16 22-16l27 64c0 0 21 82 16 108-5 27-7 61-7 61 0 0-8 56 1 63-3 35-23 68-82 77 3 2-60-27-98-50z m112 99l-362 0 0-512 512 0 0 512z m133-495l-363 0-115 115 0 363 363 0 115-115z"/>
<glyph glyph-name="filter-medium-neck" unicode="&#57441;" d="M401 312l0 82c0 0-12 41-142 41-130 0-148-35-148-35l0-89-81-44c0 0 21-140 226-190 205 51 226 190 226 190z m-147 95c88 0 105-17 105-22 0-5-103-35-103-35 0 0-103 30-103 35 0 5 13 22 101 22z m108 105l-362 0 0-512 512 0 0 512z m-230-495l-115 115 0 363 363 0 115-115 0-363z"/>
<glyph glyph-name="filter-medium-shins" unicode="&#57442;" d="M362 512l-362 0 0-512 512 0 0 512z m-216-299c0 0-59 40-59 110l59 70 60-70c0-74-60-110-60-110z m349-196l-78 0 11 104 21 92 0 37 6 18 0 71-87 97-94-104-3-59 11-17-4-27 6-49 15-48 20-71 4-45-134 0 4 45 20 71 15 48 6 49-4 27 11 17-3 59-94 104-88-97 0-71 6-18 0-37 21-92 6-62-72 73 0 363 363 0 115-115z m-189 306l60 70 59-70c0-71-59-111-59-111 0 0-60 37-60 111z"/>
<glyph glyph-name="filter-medium-shoulder" unicode="&#57443;" d="M120 143l-21-9-19-58 313 0 39 341-10 19-39 0-25-29c0 0-238 10-238-264z m113 8l-64 0c6 154 85 209 175 209-137-73-111-209-111-209z m129 361l-362 0 0-512 512 0 0 512z m133-495l-363 0-115 115 0 363 363 0 115-115z"/>
<glyph glyph-name="filter-medium-skull" unicode="&#57444;" d="M443 272c-18 78-79 140-156 153l0 26-62 0 0-26c-77-13-138-75-156-153-20-3-32-6-32-9l0-39c0-14 98-25 218-25 120 0 218 11 218 25l0 38c1 4-10 7-30 10z m-81 240l-362 0 0-512 512 0 0 512z m-230-495l-115 115 0 363 363 0 115-115 0-363z"/>
<glyph glyph-name="filter-medium-thighs" unicode="&#57445;" d="M54 406l-9-10c0 0 6-251 32-278 9-10 26-17 47-20-18 95-27 191-31 287-14 4-27 11-39 21z m159 9c0 0-44-33-94-33-4-94-3-188 6-284 42-5 93 5 103 28 11 22 0 280 0 280z m109-204c-1 61 2 124 8 185-11 5-21 11-31 18l-15-8c0 0-16-247 0-280 15-33 120-41 151-8 31 33 32 278 32 278l-9 10c-33-28-70-27-101-19-15-58-27-117-35-176z m40 301l-362 0 0-512 512 0 0 512z m133-495l-363 0-115 115 0 363 363 0 115-115z"/>
<glyph glyph-name="filter-medium-waist" unicode="&#57446;" d="M474 315l-120 0-25 21-146 0-25-21-120 0c-13 0-13-118 0-118l120 0 25-21 146 0 25 21 120 0c13 0 13 118 0 118z m-146-88l-12-11-120 0-12 11 0 58 12 11 120 0 12-11z m34 285l-362 0 0-512 512 0 0 512z m-230-495l-115 115 0 363 363 0 115-115 0-363z"/>
<glyph glyph-name="filter-metal-bar" unicode="&#57447;" d="M86 351l154 22 14 66-149-29z m276 161l-362 0 0-512 512 0 0 512z m-108-73l7-48-3-32 204-314-222 304-141-21 224-311-191 0-115 115 0 363 363 0 115-115 0-308z"/>
<glyph glyph-name="filter-metals" unicode="&#57448;" d="M160 297l139 18 10 118-129-23z m-160 215l0-512 512 0 0 512z m495-408l-186 329 5-35-2-91 115-234-128 225-129-18 175-263-37 0-132 195-95-18 0-83 72-93-136 0 0 477 478 0z"/>
<glyph glyph-name="filter-metals-raw" unicode="&#57449;" d="M83 56l7 408 71-69-17-293-20-47z m176 353l59-139 5-76-47 17-59 176-4 39z m-75-356l19 205 41-48-1-99-14-63z m159 355l69 42 17-337-46-65z m152 87l0-478-478 0 0 478 478 0m17 17l-512 0 0-512 512 0z"/>
<glyph glyph-name="filter-metamorphic-ore" unicode="&#57450;" d="M427 288l-7 30-2 21-7 10-14 17-11 6-11 2-22 17-63 43-123 15 0 5-51-5-23-26-23-15-2-322 120-18 66-7 21 0 13 20 38-13-19 308 31-17 41-301 32 33 34 5z m-215-195l-41 60-3 255 49-20z m283 402l0-478-478 0 0 478 478 0m17 17l-512 0 0-512 512 0z"/>
<glyph glyph-name="filter-munitions" unicode="&#57451;" d="M495 495l0-478-478 0 0 478 478 0m17 17l-512 0 0-512 512 0z m-375-154l26 15 0 74-47-16-42 16 0-74 21-14 0-161-25-20 46-82 47 82-26 20z m77 37l0-74 22-14 0-162-27-19 47-82 47 82-27 19 0 161 27 15 0 74-47-16z m228-22l0 74-46-16-42 16 0-74 21-14 0-161-26-20 47-82 46 82-25 20 0 160z"/>
<glyph glyph-name="filter-outerlayer" unicode="&#57452;" d="M0 512l0-512 512 0 0 512z m495-495l-478 0 0 478 478 0z m-374 110c0-33-17-33-17-33 0-49 304-49 304 0 0 0-17 0-17 33 0 33 8 49 25 74 16 24 24 41 24 41l0 41c-82 17-42 151-42 151l-20 21-44 0c0-60-156-60-156 0l-44 0-20-21c0 0 41-134-42-151l0-41c-83 0 8-17 24-41 17-25 25-41 25-74z"/>
<glyph glyph-name="filter-polearm" unicode="&#57453;" d="M495 495l0-478-478 0 0 478 478 0m17 17l-512 0 0-512 512 0z m-108-362l-8 31-64 95 23 15 21 26 46 10 7 4-46 80-8-7-20-48-38-8-26-13-40 58-13-6-32 47-51 40 22-56 32-46-15-7 39-58-9-4-44-7-70 49c-52 7-79 17-79 17l112-177c99-153 158-104 158-104-93 72-50 134-23 160l60-88 33-25 89-128 43 8z"/>
<glyph glyph-name="filter-potion" unicode="&#57454;" d="M495 495l0-478-478 0 0 478 478 0m17 17l-512 0 0-512 512 0z m-246-56l-20 0c-18-1-42-3-44-5-2-2 13-40 13-40l-27-3 0-21 14-13c0 0 14-8-50-83-51-56-48-141 6-194 54-52 140-52 194 0 54 53 57 138 6 194-64 75-50 83-50 83l14 13 0 19-27 3c0 0 16 36 13 40-3 3-25 4-44 5z"/>
<glyph glyph-name="filter-quartzite-slab" unicode="&#57455;" d="M410 512l-410 0 0-512 512 0 0 512z m85-495l-478 0 0 81 39-39 232 0 164 164 0 233-40 39 83 0z"/>
<glyph glyph-name="filter-reagents" unicode="&#57456;" d="M495 495l0-478-478 0 0 478 478 0m17 17l-512 0 0-512 512 0z m-201-200l0 95 23 34c0 13-137 13-137 0l0-135-92-149c-12-16-19-35-19-56l0-16c0-32 341-32 341 0l0 17c0 21-7 40-19 56z"/>
<glyph glyph-name="filter-sandstone-slab" unicode="&#57457;" d="M0 512l0-512 512 0 0 512z m495-495l-478 0 0 64 383 0 0 123-383 4 0 13 371 5-371 196 0 73 478 0z"/>
<glyph glyph-name="filter-sedimentary-ore" unicode="&#57458;" d="M163 136l-37 34-69 48-9-44 17-43 0-32 20-11 30 5 29 0 26-5 10 17z m238 77l37 20 0 1-18 41-26 36-25 5-40 19-16 3 22-46-35-95-13-25-14 46 25 71-32 65-5 17-12 21-56-4-21-10-36 21-40-41-20-10 6-32-26-42 10-27 68-41 76-63 39-56 4-13 68-5 44 18-8 34 15 64z m57-27l-17 4-39-28-7-65 11-8 14-16 34 10-5 33 15 22-6 31z m-187 210l36-30 20 6 44-30 20 18-5 22-20 9-26 42-27 10-15-14-28-14z m224 99l0-478-478 0 0 478 478 0m17 17l-512 0 0-512 512 0z"/>
<glyph glyph-name="filter-shield" unicode="&#57459;" d="M495 495l0-478-478 0 0 478 478 0m17 17l-512 0 0-512 512 0z m-428-331l155-130 36 0 153 130 0 280-344 0z"/>
<glyph glyph-name="filter-siege" unicode="&#57460;" d="M495 495l0-478-478 0 0 478 478 0m17 17l-512 0 0-512 512 0z m-431-178l-2-94 26 4 0-49 75 1 0 58 59 9 0-119-29-36-53-2 1-51 232 2-1 52-58-1-30 36 0 127 157 23-1 107-277-2 0 58-74-1 0-58-52 0z"/>
<glyph glyph-name="filter-slate-slab" unicode="&#57461;" d="M443 512l-443 0 0-512 512 0 0 512z m52-495l-478 0 0 52 178 0c138 0 249 111 249 249l0 177 52 0z"/>
<glyph glyph-name="filter-softmetal-bar" unicode="&#57462;" d="M133 356l65 10c6 1 12 6 12 13l4 47c1 5-1 10-5 14-3 3-8 5-13 4l-19-2c-31-3-55-27-58-58l0-12c-1-4 0-8 3-11 3-3 7-5 11-5z m-133 156l0-512 512 0 0 512z m495-495l-35 0-241 420 4-14-2-47c0-6 1-12 3-18l91-167-112 154c-3 5-8 8-14 7l-52-7c-7-1-16 5-18 5l205-333-307 0 0 478 478 0z"/>
<glyph glyph-name="filter-spear" unicode="&#57463;" d="M495 495l0-478-478 0 0 478 478 0m17 17l-512 0 0-512 512 0z m-260-331l2-2 48 19 0 11 45 15 2 14 119 134 7 92-90-18-119-133-13-4-11-46-11-1-14-50 2-1-182-203 51-8z"/>
<glyph glyph-name="filter-staff" unicode="&#57464;" d="M495 495l0-478-478 0 0 478 478 0m17 17l-512 0 0-512 512 0z m-366-301l129-82 107-123 75 1-153 179-71 159-74 95-96 19 58-89-13-76z"/>
<glyph glyph-name="filter-stones" unicode="&#57465;" d="M385 112l73 87-85 198-215 3-16-60-36 11-52-180 52-56z m-385 400l0-512 512 0 0 512z m495-495l-478 0 0 478 478 0z"/>
<glyph glyph-name="filter-stones-raw" unicode="&#57466;" d="M76 357l-16-38 58-41 10-22 78-43 15 2 54 39 4 25 0 23-25 32-21 51-27 17-12 2-11 22-31-4z m177-175l72 58 12-16 23 20 90-64-19-104-54-14-101 71z m26 242l79 29 19-21 53-18 32-73-65-48-63 1-19 63z m-146-270l36 23 13-15 41-15 25-55-49-38-33 31-60 33z m362 341l0-478-478 0 0 478 478 0m17 17l-512 0 0-512 512 0z"/>
<glyph glyph-name="filter-substances" unicode="&#57467;" d="M252 446l92-59-7-34 22-69-49-89-99 28-49 66 50 68z m-193-343l-19 252 33 124 63-51 2-313-15-64z m352 179l61-49-172-200-39 20z m-238-143l54 31 18-75-35-22-43 19z m210 253l55 7 27-42-26-31-47 5z m112 103l0-478-478 0 0 478 478 0m17 17l-512 0 0-512 512 0z"/>
<glyph glyph-name="filter-sword" unicode="&#57468;" d="M495 495l0-478-478 0 0 478 478 0m17 17l-512 0 0-512 512 0z m-435-460l81 76c11-9 22-18 35-26l29-17 20 0 19 2-21 30-28 16-10 7 209 225 58 95-99-53-238-198-7 11c-5 9-10 18-14 28l-28 23c-1-3-2-6-2-9l0-9c-1-7-1-13-1-20 5-10 10-21 16-30 9-14 18-28 29-40l-81-75z"/>
<glyph glyph-name="filter-thrown" unicode="&#57469;" d="M495 495l0-478-478 0 0 478 478 0m17 17l-512 0 0-512 512 0z m-135-57c-33 10-68 8-98-6-90-39-94-23-94-23l-9 16-19 7-11-26c0 0-29 27-33 24-4-2-13-23-19-39l-1 0-2-10-3-9 1 0c-4-17-9-40-7-43 2-3 42 1 42 1l-5-26 19-7 17 10c0 0 12 11 64-72 32-54 95-80 155-64 60 16 102 70 103 132 0 62-41 117-100 135z m-183-227c-9 16-22 35-29 42-7 8-81-28-119-168 53 81 121 112 148 126z m-156-177c0 0 71 63 268 99 0 0-49 7-92 41-53-13-130-73-176-140z"/>
<glyph glyph-name="filter-torch" unicode="&#57470;" d="M495 495l0-478-478 0 0 478 478 0m17 17l-512 0 0-512 512 0z m-200-295c17 25 22 54 14 90l-17 65-17-22-3 5c-27 40-64 71-65 72l-54 45c0 0 23-75-3-101l-1 0-10 22-33-53c-1-2-30-56-10-107 11-27 34-48 69-60l28-6 14-14 161-113 15 4 7 18-113 135c7 6 13 12 18 20z m-114 10c-63 21-29 83-29 83 0-10 3-20 8-28 8-29-4 24 17 46 20 21 16 33 16 33 0 0 19-20 38-42 42-53-2-106-50-92z"/>
<glyph glyph-name="filter-trap" unicode="&#57471;" d="M495 495l0-478-478 0 0 478 478 0m17 17l-512 0 0-512 512 0z m-63-361l-49 192-47-192-1 0-47 192-47-192-1 0-47 192-47-192-1 0-47 192-48-192-18 0 0-103 414 0 0 103z"/>
<glyph glyph-name="filter-underlayer" unicode="&#57472;" d="M0 512l0-512 512 0 0 512z m495-495l-478 0 0 478 478 0z m-379 46c-17 124 8 240 8 240 0 0 13-73 16-91 8-41 8-124 8-124 0 0 56-29 108-29 52 0 108 29 108 29 0 0 0 83 8 124 4 18 16 91 16 91 0 0 25-116 8-240 23-4 44-2 67 9 8 66 8 165-8 247-13 60-26 116-107 124l-45 9c0 0-6-25-47-25-41 0-47 25-47 25l-45-9c-81-8-94-64-107-122-16-83-16-182-8-248 22-12 44-14 67-10z"/>
<glyph glyph-name="filter-vial" unicode="&#57473;" d="M495 495l0-478-478 0 0 478 478 0m17 17l-512 0 0-512 512 0z m-333-293c-18-28-41-52-41-92 0-40 32-94 118-94 86 0 118 54 118 94 0 40-23 64-41 92-54 84-35 167-35 167l15 15 0 23-29 4c0 0 18 41 15 45-3 4-27 4-47 6-21 2-34-4-36-6-2-2 15-45 15-45l-29-4 0-23 15-15c0 0 20-83-35-167z"/>
<glyph glyph-name="filter-weapons" unicode="&#57474;" d="M495 495l0-478-478 0 0 478 478 0m17 17l-512 0 0-512 512 0z m-203-268l86 78c2-5 4-10 5-15l20-18c5 9 7 18 9 27-3 9-6 17-9 25-4 8-8 15-13 23l-5 5 65 67-30 29-65-69-27 15-23 9c-10-2-19-4-28-8l18-21 15-5-71-81-71 81 15 5 18 21c-9 4-18 6-28 8l-23-9-27-15-65 69-31-30 65-67-5-6c-5-7-9-14-13-22-3-8-7-16-9-25 2-9 4-18 9-27l20 18c1 5 3 10 5 15l86-78-86-100-57-96 99 59 99 90 99-90 99-59-58 97z"/>
<glyph glyph-name="filter-woods" unicode="&#57475;" d="M390 426l0 1-34 25-5 4-21 14-292-270 24-27 193 182-173-204 35-38 214 245-195-266 29-32 261 341z m78-94l-4 2-10 7-119-202 94 216-17 12-156-264 52-27 0 1 21-10 17 37 2-33 78 168-68-191 21-7 105 281z m27 163l0-478-478 0 0 478 478 0m17 17l-512 0 0-512 512 0z"/>
<glyph glyph-name="filter-woods-raw" unicode="&#57476;" d="M90 331l0-65-52 8 52-56 0-113c0-22 125-22 125 0l-2 226c3 14-123 14-123 0z m383-16l-32 38-49-64 0 131c0 14-155 14-155 0l2-322c0-23 155-23 155 0l0 74z m22 180l0-478-478 0 0 478 478 0m17 17l-512 0 0-512 512 0z"/>
<glyph glyph-name="health-arm" unicode="&#57477;" d="M231 485l-91-51-68-206-19-75 0-69c0 0 69-57 178-57l145 0c0 0 32 14 75 57 20 20 11 149-126 149-75 0-115-63-115-63 0 0-5 64-13 105-12 58-2 98-2 98l26-14 40 12 0 11 24 14 11 29z"/>
<glyph glyph-name="health-head" unicode="&#57478;" d="M366 434c0 0-59 52-113 52-54 0-107-52-107-52 0 0-51-37-51-123 0-86 15-186 15-186l28-13 84-86 10 200-12 20-72 37-13-14 0 62 121-39 121 39 0-62-13 14-73-37-12-20 10-200 84 86 28 13c0 0 15 101 15 186 0 85-50 123-50 123z"/>
<glyph glyph-name="health-leg" unicode="&#57479;" d="M457 512l-215 0 43-204c0 0-28-72-73-100-45-28-120-65-129-92l0-46c-9 0-9-28 82-28 91 0 146 9 210 55 63 46 72 56 72 56l0 81-9 28 0 46z"/>
<glyph glyph-name="health-torso" unicode="&#57480;" d="M364 466l-40 6c0 0-12-51-68-51-56 0-68 51-68 51l-40-6c-101-28-130-129-130-129l75-61 9-8 0-157c0-95 306-95 306 0l0 157 85 68c0 0-28 102-129 130z"/>
<glyph glyph-name="slot-back" unicode="&#57481;" d="M370 268c-11 48-11 153-11 153 0 0 0 38 30 48l0 29c30 0-23 14-58-20-35-34-40-66-40-66l-67-22-82-26c0 0-19 28 20 66l10 9 0 30-19 9c0 0-100-38-100-104l0-201c0 0 0-104 30-124 30-19 70-38 129-38 59 0 59 29 59 29l0 84-66 0c-119 3-85 212-85 212l10-26c4-66 7-113 39-136 32-22 127-15 127-15l0-67c45 24 54 33 114 33l29 0 20 19 0 106c0 0-79-29-89 18z"/>
<glyph glyph-name="slot-chest" unicode="&#57482;" d="M429 472l-25 25-54 0c0-72-188-72-188 0l-54 0-25-25c0 0 49-163-50-183l0-49c-100 0 10-20 29-50 20-29 30-49 30-89 0-40-19-40-19-40 0-59 367-59 367 0 0 0-19 0-19 40 0 40 10 60 30 89 19 30 29 50 29 50l0 48c-100 21-51 184-51 184z m-108-359c-28 0-47 4-47 4l-18-44-18 44c0 0-19-4-47-4-27 0-46 31-46 31 13-10 30-16 46-16 53 0 65 63 65 63 0 0 8-63 65-63 16 0 33 6 46 16 102 17-20-31-46-31z m61 76c-58 0-68 41-126 41-58 0-68-41-126-41-58 0-78 73-78 73 48-82 87-52 126-32l59 31 9 92 9 37 9-37 9-92 59-31c39-20 78-50 126 32 2-1-18-73-76-73z"/>
<glyph glyph-name="slot-cloak" unicode="&#57483;" d="M436 0l-350 0c0 0 1 139 47 249-28-13-66 6-66 6 0 0 32 45 57 102 15 35 30 70 90 93 40 15 72 12 72 12l0-10c0 0-35 10-75-58 0 0 55-13 101 24 70 57 131 24 131 24l0-11c0 0-61 22-79-106-27-183 72-325 72-325z"/>
<glyph glyph-name="slot-face" unicode="&#57484;" d="M375 451c0 0-62 50-120 50-58 0-118-50-118-50 0 0-56-40-56-134 0-93 36-198 36-198l103-114 73 0 103 113c0 0 35 106 35 199 0 94-56 134-56 134z m-171-206l-50 8-9 35 75-25z m55-108l-26 21 24 87 0-83 21-5z m99 116l-50-8-17 18 75 25z"/>
<glyph glyph-name="slot-feet" unicode="&#57485;" d="M502 512l-206 0 41-205c0 0-27-69-70-96-43-27-113-61-122-87l0-44c-8 0-9-27 79-27 88 0 140 9 201 52 61 43 70 53 70 53l0 79-10 26 0 44z m-337-101c0 0-22-57-56-78-35-22-92-49-99-71l0-35c-7 0-7-21 64-21 70 0 112 7 162 42 49 35 56 42 56 42l0 64-36 158-124 0z"/>
<glyph glyph-name="slot-forearmleft" unicode="&#57486;" d="M483 319c0 0-54 22-103 48l4 19c0 0-34 75-114 117l-27-27-135-236-90-173c32-20 63-30 104-30l4 11 60-40c0 0 53 61 106 115l6-5 6 0 37 35 0 7-5 6c16 15 31 28 42 36 57 39 115 106 115 106z m-303-261l-40 27 86 95 38-32c-33-32-64-66-84-90z m177 176c-13-8-28-22-46-37l-35 41 88 97c24-13 50-25 69-34-20-22-49-48-76-67z"/>
<glyph glyph-name="slot-hand" unicode="&#57487;" d="M366 499c0 0-75-33-119-62-44-28-116-105-116-105 0 0-78-122-84-160l-7-44 9 0-7-44c-2-14 6-26 17-17l17 42 15 32 36 39-36-80-13-52c-4-12 2-28 17-17 16 10 29 59 29 59l37 49 11 8-18-56 0-64c0 0-2-15 17-13 19 2 14 28 14 28l8 48 28 55c0 0 41 73 81 77 40 4 62 10 78-12 16-23 20-63 20-63 0 0-16-42-10-62 6-20 27-19 27-19l32 74c0 0 24 96 19 126-5 31-9 71-9 71 0 0-9 65 2 74-4 39-28 77-95 88z"/>
<glyph glyph-name="slot-neck" unicode="&#57488;" d="M414 267l0 88c0 0-14 45-154 45-140 0-162-36-162-36l0-97-87-48c0 0 24-151 245-206 221 56 245 206 245 206z m-160 103c95 0 115-18 115-24 0-6-112-38-112-38 0 0-112 32-112 38 0 6 14 24 109 24z"/>
<glyph glyph-name="slot-shin" unicode="&#57489;" d="M380 468l-104-116-3-64 12-20-4-29 6-55 17-53 23-79 3-52 104 0 12 118 24 102 0 41 7 21 0 78z m-2-248c0 0-66 40-66 123l66 78 65-78c0-79-65-123-65-123z m-142 132l-104 116-98-108 0-78 7-21 0-41 24-102 13-118 104 0 3 52 23 79 17 53 6 55-4 29 12 20z m-102-132c0 0-65 44-65 122l65 78 66-78c0-82-66-122-66-122z"/>
<glyph glyph-name="slot-shoulder" unicode="&#57490;" d="M451 468l-47 0-28-35c0 0-280 12-280-309l-23-11-23-69 367 0 45 401z m-222-335l-75 0c7 181 100 247 205 247-161-88-130-247-130-247z"/>
<glyph glyph-name="slot-skull" unicode="&#57491;" d="M471 292c-20 90-91 161-180 175l0 30-70 0 0-30c-89-14-160-85-180-175-23-3-36-7-36-11l0-44c0-17 113-30 252-30 139 0 252 13 252 30l0 44c-1 4-14 8-38 11z"/>
<glyph glyph-name="slot-thighs" unicode="&#57492;" d="M25 438l-12-11c0 0 7-305 39-339 11-12 33-20 57-23-21 115-32 231-37 349-18 4-34 13-47 24z m193 11c0 0-54-40-115-40-5-115-3-230 9-344 51-7 113 7 126 33 18 40 0 340 0 340z m269-11c-40-34-85-32-121-22-19-71-34-142-43-214-2 74 2 150 10 226-13 6-26 13-38 22l-20-11c0 0-18-300 0-340 19-40 148-50 185-10 37 40 39 338 39 338z"/>
<glyph glyph-name="slot-waist" unicode="&#57493;" d="M492 239l-130 0-27 21-157 0-27-21-131 0c-13 0-13-129 0-129l130 0 27-22 157 0 27 22 131 0c13 0 13 129 0 129z m-158-96l-12-12-132 0-12 12 0 62 12 12 132 0 12-12z"/>
<glyph glyph-name="ui-bag" unicode="&#57494;" d="M444 417l-223 90-105-50c-53-27-56-102-56-102l218-116c20 105 94 148 166 178z m-147-235l-104 57-3-62-52 27 2 63-82 45-2-185 173-104c42-27 97-24 135 9l99 85-12 265c-126-30-154-198-154-200z"/>
<glyph glyph-name="ui-gold" unicode="&#57495;" d="M28 178c0 0-1-62-2-88-1-25 91-63 205-66l15 0c107 0 192 24 193 57 1 33 1 56 2 75l-6-2c-32-11-74-17-116-19-23-3-47-4-71-4l-14 0c-120 2-182 34-185 45-3 11 7 8 18 13-6 7-9 13-11 19-13-6-22-14-26-23-1-2-2-4-2-7z m437 117c-3-10-59-38-173-38l-14 0c-38 1-70 4-97 9-40 4-77 13-105 23l-5 2-2-76c-1-34 91-63 205-67l15 0c107 0 192 25 193 58 1 33 2 88 2 88 0 5-2 9-6 14-4 5-11 11-20 17-2-7-6-13-12-18 13-4 18-9 19-12z m-430 136c0 0-1-62-2-88-1-26 91-63 206-67l14 0c107 0 192 25 193 58 1 33 3 88 3 88 0 5-3 9-7 14-21 28-102 49-199 51l-15 0c-91 1-167-17-187-43-4-4-6-9-6-13z m193 36l15 0c121-2 182-34 185-45 3-11-59-38-173-38l-14 0c-121 3-183 35-186 45-3 10 60 38 173 38z"/>
<glyph glyph-name="ui-weight" unicode="&#57496;" d="M504 312l-6 0-78 156c-3 6-9 9-16 9-6 0-12-3-15-9l0-3-103-44 0 17-57 0 0-41-112-47c-3 2-6 3-9 3-7 1-13-3-16-9l-78-156-6 0c0 0 0-70 101-70 100 0 98 70 98 70l-6 0-56 109 83 35 0-251-85-81 231 0-88 82 0 274 61 26-35-69-6 0c0 0 0-70 101-70 100 0 97 69 97 69z m-342-125l-110 0 56 109 0-2 4-11 1 0z m188 125l46 90 15 7 48-97z"/>
<glyph glyph-name="alt" unicode="&#57497;" d="M389 256l0-145c1-11 3-19 5-24 3-5 9-8 18-9l-3-71c-24 0-43 2-58 5-14 4-28 10-43 20-33-17-68-25-103-25-72-1-108 38-108 115 0 37 11 64 31 80 20 15 52 25 93 27l75 5 0 22c0 14-3 24-10 30-7 5-18 8-32 8l-132-5-3 65c50 14 97 21 143 21 46 0 78-9 97-28 20-19 30-49 30-91z m-158-92c-26-2-38-16-38-42 0-26 11-39 34-39 18 0 38 3 59 8l10 3 0 75z"/>
<glyph glyph-name="ctrl" unicode="&#57498;" d="M274 375c25 0 56-4 94-11l19-5-3-74c-37 3-64 5-82 5-32 0-54-7-64-21-11-13-16-40-16-79 0-38 5-64 16-78 10-15 32-22 65-22l82 5 3-75c-50-9-88-14-115-14-51 0-89 15-112 44-23 30-35 77-35 141 0 65 12 112 35 141 23 28 61 43 113 43z"/>
<glyph glyph-name="mouse1" unicode="&#57499;" d="M113 85c0-46 37-84 84-84l118 0c47 0 84 38 84 84l0 114-286 0z m1 343l76 0 0-76-76 0z m160 3l-14 0 0-198 139 0 0 72c1 33-12 65-36 89-23 24-55 37-89 37z"/>
<glyph glyph-name="mouse2" unicode="&#57500;" d="M113 199l0-114c0-46 37-84 84-84l118 0c47 0 84 38 84 84l0 114z m210 229l76 0 0-76-76 0z m-71-24l0 27-14 0c-34 0-66-13-89-37-24-24-37-56-36-89l0-72 139 0z"/>
<glyph glyph-name="mouse3" unicode="&#57501;" d="M282 429l-52 0c-68 0-124-56-124-124l0-215c0-49 40-89 90-89l120 0c50 0 90 40 90 89l0 215c0 68-56 124-124 124z m51-369c-17-16-44-24-81-24-27 0-56 4-87 12l-15 4 3 50c35-6 65-9 89-9 32 0 49 14 49 42 0 12-4 21-12 28-9 7-20 10-33 10l-63 0 0 53 63 0c10 0 19 5 27 14 9 8 13 18 13 29 0 23-16 34-47 34-24 0-47-2-70-6l-12-2-4 48c29 12 61 17 97 17 35 0 62-6 79-20 16-14 24-36 24-67 0-30-12-54-37-69 15-8 26-17 33-26 7-9 10-23 9-42 0-34-8-59-24-76z"/>
<glyph glyph-name="mouse4" unicode="&#57502;" d="M282 429l-52 0c-68 0-124-56-124-124l0-215c0-49 40-89 90-89l120 0c50 0 90 40 90 89l0 215c0 68-56 124-124 124z m88-336l-30 0 0-51-66 0 0 51-132 0 0 49 77 211 72 0-83-203 67 0 0 88 66 0 0-88 30 0z"/>
<glyph glyph-name="mouse5" unicode="&#57503;" d="M282 429l-52 0c-68 0-124-56-124-124l0-215c0-49 40-89 90-89l120 0c50 0 90 40 90 89l0 215c0 68-56 124-124 124z m55-364c-19-20-45-29-79-29-16 0-33 1-49 4l-44 9-18 4 8 48c38-6 70-9 95-9 16 0 28 4 36 12 8 9 12 20 12 35 0 15-3 27-10 34-7 8-17 11-30 10-21 0-40-2-56-6l-7-2-39 9 8 169 191 0 0-56-139 0-8-68c20 8 38 12 56 12 68 0 102-32 102-95-1-35-11-62-29-81z"/>
<glyph glyph-name="shift" unicode="&#57504;" d="M386 279c-58 7-99 11-122 11-23 0-38-2-45-6-7-4-10-11-10-21 0-9 4-15 13-19 9-4 33-10 71-16 37-6 64-18 81-33 16-16 24-41 23-75 0-76-47-114-141-114-31 0-68 4-113 12l-22 5 3 78c58-7 98-11 121-11 22 0 38 2 46 7 8 5 12 12 12 21 0 9-4 15-13 19-9 4-32 9-68 16-36 6-63 16-80 30-17 15-26 41-26 78 0 38 12 66 38 84 25 19 57 29 97 29 28 0 66-5 114-14l23-4z"/>
<glyph glyph-name="space" unicode="&#57505;" d="M444 26l-376 0 0 137 102 0 0-50 172 0 0 50 102 0z"/>
<glyph glyph-name="rank-1" unicode="&#57506;" d="M34 337l0-73 146-48 76-41 76 41 146 48 0 73-222-74z"/>
<glyph glyph-name="rank-2" unicode="&#57507;" d="M34 298l0-72 146-49 76-60 76 60 146 49 0 72-222-73z m0 97l0-72 222-73 222 73 0 72-222-73z"/>
<glyph glyph-name="rank-3" unicode="&#57508;" d="M34 443l0-71 222-74 222 74 0 71-222-72z m0-96l0-73 222-73 222 73 0 73-222-74z m0-97l0-73 146-48 76-60 76 60 146 48 0 73-222-74z"/>
<glyph glyph-name="rank-4" unicode="&#57509;" d="M395 365l-139 46-139-46 139-47z m-361-15l0-71 139-47 0-97 83-34 83 34 0 97 139 47 0 71-222-72z"/>
<glyph glyph-name="rank-5" unicode="&#57510;" d="M34 299l0-72 139-46 0-97 83-34 83 34 0 97 139 46 0 72-222-73z m369 115l-147 48-147-48 147-49z m-369-18l0-72 222-73 222 73 0 72-222-73z"/>
<glyph glyph-name="rank-6" unicode="&#57511;" d="M298 393l-49 80-48-80 48-81z m16-173l-5 13-58 62-58-62-4-10-155 51 0-106 125-42 95-87 1 1 1-1 94 87 128 42 0 106z"/>
<glyph glyph-name="rank-7" unicode="&#57512;" d="M309 259l-58 62-58-62-4-10-155 51 0-106 125-42 95-87 1 1 1-1 94 87 128 42 0 106-164-54z m-143 188l-48-72 48-72 48 72z m222-72l-49 72-48-72 48-72z"/>
<glyph glyph-name="rank-8" unicode="&#57513;" d="M309 233l-58 62-58-62-4-10-155 51 0-106 125-42 95-87 1 1 1-1 94 87 128 42 0 106-164-54z m-226 228l-49-72 49-73 48 73z m339 0l-48-72 48-73 49 73z m-173 12l-48-80 48-81 49 81z"/>
<glyph glyph-name="rank-9" unicode="&#57514;" d="M388 311l-132-56-132 56 0 136-90-100 0 2 0-136 148-69 74-79 74 79 148 69 0 136 0-2-90 100z"/>
<glyph glyph-name="rank-10" unicode="&#57515;" d="M388 280l-78-26 0 108-54 105-54-105 0-108-78 26 0 129-90-101 0 1 0-115 148-68 74-81 74 81 148 68 0 115 0-1-90 101z"/>
<glyph glyph-name="permissions-drop-in" unicode="&#57516;" d="M434 252c-18 19-42 7-42 7l-83-51c-10-7-22-10-35-7l-1 0c-23 5-62 41-138 41l-62 0 0-106c69-6 123-19 192-51 0 0 185 151 169 167z m-259 90l45 0 0-55-45 0z m164 0l45 0 0-55-45 0z m-87-41l55 0 0-55-55 0z m0 95l55 0 0-55-55 0z"/>
<glyph glyph-name="permissions-pick-up" unicode="&#57517;" d="M286 394c-70-32-123-45-193-51l0-106 64 0c37 0 97-68 133-68 17 0 24 22 12 35l-22 22c-18 18-10 47 14 53l1 0c12 2 25-1 35-8l83-51c0 0 23-12 42 7 18 20-169 167-169 167z m13-264l45 0 0-55-45 0z m45 78l55 0 0-55-55 0z"/>
</font>
</defs>
</svg>
