<svg xmlns="http://www.w3.org/2000/svg">

<symbol id="add-block" viewBox="0 0 52.2 52.9">
<g>
	<polygon class="st0" points="47.9,45.3 34.4,45.3 34.4,48.3 50.9,48.3 50.9,31.8 47.9,31.8 	"/>
	<polygon class="st0" points="4.2,31.8 1.2,31.8 1.2,48.3 17.7,48.3 17.7,45.3 4.2,45.3 	"/>
	<polygon class="st0" points="4.2,7.5 17.7,7.5 17.7,4.5 1.2,4.5 1.2,21 4.2,21 	"/>
	<polygon class="st0" points="34.4,4.5 34.4,7.5 47.9,7.5 47.9,21 50.9,21 50.9,4.5 	"/>
	<polygon class="st0" points="40.2,24.3 28.9,24.3 28.9,13 23.2,13 23.2,24.3 11.9,24.3 11.9,30.1 23.2,30.1 23.2,41.3 28.9,41.3 
		28.9,30.1 40.2,30.1 	"/>
</g>
</symbol>

<symbol id="del-block" viewBox="0 0 52.2 52.9">
<g>
	<polygon class="st0" points="47.9,45.3 34.4,45.3 34.4,48.3 50.9,48.3 50.9,31.8 47.9,31.8 	"/>
	<polygon class="st0" points="4.2,31.8 1.2,31.8 1.2,48.3 17.7,48.3 17.7,45.3 4.2,45.3 	"/>
	<polygon class="st0" points="4.2,7.5 17.7,7.5 17.7,4.5 1.2,4.5 1.2,21 4.2,21 	"/>
	<polygon class="st0" points="34.4,4.5 34.4,7.5 47.9,7.5 47.9,21 50.9,21 50.9,4.5 	"/>
	<rect x="11.9" y="24.3" class="st0" width="28.3" height="5.8"/>
</g>
</symbol>

<symbol id="flip-x" viewBox="0 0 52.2 52.9">
<g>
	<polygon points="36.3,14.4 30.2,14.4 26.2,22.3 22.2,14.4 15.8,14.4 22.8,26.9 15.8,38.5 21.8,38.5 25.9,31 29.9,38.5 36.3,38.5 
		29.3,26.7 	"/>
	<polygon points="0,26.3 11.2,34.1 15.7,26.9 11.1,18.5 	"/>
	<polygon points="40.9,18.6 36.4,26.9 40.9,34.3 52.2,26.4 	"/>
</g>
</symbol>

<symbol id="flip-y" viewBox="0 0 52.2 52.9">
<g>
	<polygon points="29.1,38.5 29.1,28.8 36.5,14.4 30.1,14.4 26.2,22.9 22.3,14.4 15.9,14.4 23.4,28.8 23.4,38.5 	"/>
	<polygon points="9.8,40.2 26.1,52.9 42.4,40.2 26.1,43.8 	"/>
	<polygon points="42.4,12.7 26.1,0 9.8,12.7 26.1,9.1 	"/>
</g>
</symbol>

<symbol id="flip-z" viewBox="0 0 52.2 52.9">
<g>
	<polygon class="st0" points="17.6,19.4 27.2,19.4 17.6,33.7 17.6,38.4 33.9,38.4 33.9,33.3 24.2,33.3 33.9,19 33.9,14.3 17.6,14.3 
			"/>
	<polygon class="st0" points="9,33 3.1,49.4 20.8,47.5 12.5,42.7 	"/>
	<polygon class="st0" points="29.9,6 38.9,10.4 42.7,21.2 49,3.5 	"/>
</g>
</symbol>

<symbol id="return-block" viewBox="0 0 52.2 52.9">
<g>
	<polygon class="st0" points="22.9,19.4 41.5,25.2 41.5,1.7 1.6,1.7 1.6,41.6 25.4,41.6 	"/>
	<polygon class="st1" points="50.5,35.8 29.1,26.9 33.9,49.1 40.3,43.6 46.6,51.2 50.5,47.9 44.2,40.7 	"/>
</g>
</symbol>

<symbol id="select" viewBox="0 0 52.2 52.9">
<g>
	<path class="st0" d="M11.5,40.8v3H0l0-11.5h3l0,8.5L11.5,40.8L11.5,40.8z M31.5,43.8H18.2v-3h13.4V43.8z M49.7,27.1h-3V16.7h3V27.1
		z M38.2,3V0h11.5l0,11.5h-3l0-8.5H38.2L38.2,3L38.2,3z M38.2,40.8l8.5,0v-8.5h0h3v11.5l-11.5,0V40.8z"/>
	<polygon class="st1" points="49.7,32.3 46.7,32.3 46.7,32.3 46.7,40.8 38.2,40.8 38.2,43.8 49.7,43.8 	"/>
	<rect x="18.2" y="40.8" class="st1" width="13.4" height="3"/>
	<polygon class="st1" points="3,32.3 0,32.3 0,43.8 11.5,43.8 11.5,40.8 11.5,40.8 3,40.8 	"/>
	<polygon class="st1" points="3,22.7 0,14.6 0,27.1 3,27.1 	"/>
	<polygon class="st1" points="16.1,0 31.5,0 31.5,3 24.5,3 	"/>
	<line class="st2" x1="38.2" y1="3" x2="38.2" y2="3"/>
	<polygon class="st1" points="46.7,11.5 49.7,11.5 49.7,0 38.2,0 38.2,3 46.7,3 	"/>
	<rect x="46.7" y="16.7" class="st1" width="3" height="10.4"/>
	<polygon class="st1" points="7.6,21.8 13.6,15.7 20.5,22.7 24.1,19.1 17.2,12.4 23,7 0.9,0.1 	"/>
</g>
</symbol>

<symbol id="undo" viewBox="0 0 52.2 52.9">
<g>
	<path class="st0" d="M42.8,10.2c-3.7-3.5-9-5.6-15-5.6H15.6v6h12.2c4.7,0,8.3,1.6,10.8,3.9c2.5,2.4,3.9,5.5,3.9,9.2
	c0,3.6-1.4,6.8-3.9,9.2c-2.5,2.3-6.2,3.9-10.8,3.9h-6.6l2.3-5.4l-20,8.4l20,8.4l-2.3-5.4h6.6c6,0,11.3-2,14.9-5.5
	c3.8-3.5,5.9-8.3,5.9-13.6C48.6,18.5,46.5,13.6,42.8,10.2z"/>
</g>
</symbol>

<symbol id="redo" viewBox="0 0 52.2 52.9">
<g>
	<path class="st0" d="M9.3,42.7c3.7,3.5,8.9,5.5,14.9,5.5h12.2v-6H24.2c-4.7,0-8.3-1.6-10.8-3.9c-2.5-2.4-3.9-5.5-3.9-9.2
	c0-3.6,1.4-6.8,3.9-9.2c2.5-2.3,6.2-3.9,10.8-3.9h6.6l-2.2,5.5l20-8.4l-20-8.5l2.3,5.4h-6.6c-6,0-11.3,2-14.9,5.5
	c-3.8,3.6-5.9,8.4-5.9,13.7C3.5,34.4,5.6,39.3,9.3,42.7z"/>
</g>
</symbol>

<symbol id="rotate-x" viewBox="0 0 52.2 52.9">
<g>
  <path d="M4,26.5c0-0.3,0-0.6,0-0.9l-3-0.1c0,0.3,0,0.7,0,1c0,12.2,9,23,21.4,24.8c1.2,0.2,2.4,0.3,3.6,0.3l0-3
		c-1.1,0-2.1-0.1-3.2-0.2C11.8,46.7,4,37.2,4,26.5z"/>
	<path d="M48.6,15.3L46,16.7l0,0c1.5,3,2.3,6.3,2.3,9.7c0,1.1-0.1,2.2-0.2,3.3c-1.2,7.8-6.2,14-12.9,16.9l1.2,2.7
		c7.6-3.4,13.3-10.4,14.6-19.2c0.2-1.3,0.3-2.5,0.3-3.7C51.2,22.5,50.3,18.7,48.6,15.3z"/>
	<path d="M11.1,10.1c4-3.7,9.3-5.8,14.9-5.8c1.1,0,2.2,0.1,3.3,0.2c4.1,0.6,7.8,2.3,10.8,4.8l1.9-2.3c-3.4-2.8-7.6-4.8-12.3-5.5
		c-1.3-0.2-2.5-0.3-3.7-0.3c-7,0-13.5,2.9-18.1,7.8l-4.4-5L2.7,22.9l14.1-12.6L11.1,10.1z"/>
	<polygon points="29.9,26.7 36.8,14.4 30.8,14.4 26.7,22.3 22.8,14.4 16.4,14.4 23.3,26.9 16.4,38.5 22.4,38.5 26.5,31 30.5,38.5 
		36.9,38.5 	"/>
</g>
</symbol>

<symbol id="rotate-y" viewBox="0 0 52.2 52.9">
<g>
	<path d="M26.1,4.3c0.2,0,0.4,0,0.6,0h0C34.5,4.5,41.3,8.8,45.1,15l2.6-1.5c-4.3-7.1-12-11.9-20.9-12.2h0c-0.2,0-0.5,0-0.7,0
		c-5,0-9.8,1.5-13.7,4.1L14,7.9C17.5,5.6,21.6,4.3,26.1,4.3z"/>
	<path d="M51,23.5l-3,0.3c0.1,0.9,0.2,1.7,0.2,2.6c0,0.2,0,0.4,0,0.6C47.9,38.5,39,47.6,27.9,48.5l0.2,3c12.6-1,22.7-11.4,23.1-24.4
		l0,0c0-0.2,0-0.5,0-0.7C51.2,25.4,51.2,24.5,51,23.5z"/>
	<path d="M11.7,43.3C7,39.2,4,33.2,4,26.5c0-0.2,0-0.4,0-0.6v0c0.1-4.2,1.4-8.1,3.5-11.3l-2.5-1.6C2.5,16.6,1.1,21,1,25.7v0
		c0,0.2,0,0.5,0,0.7C1,34.6,4.9,42,11,46.6l-4.4,5l18.8-1.5L11.3,37.6L11.7,43.3z"/>
	<polygon points="28.8,38.5 28.8,28.8 36.2,14.4 29.8,14.4 25.9,22.9 22,14.4 15.6,14.4 23.1,28.8 23.1,38.5 	"/>
</g>
</symbol>

<symbol id="rotate-z" viewBox="0 0 52.2 52.9">
<g>
	<path d="M26.1,4.3c0.6,0,1.2,0,1.8,0.1c11.4,0.9,20,10.3,20.4,21.4l3-0.1C50.9,13,41,2.4,28.1,1.4c-0.7-0.1-1.4-0.1-2-0.1
		c-0.5,0-1.1,0-1.6,0.1l0.2,3C25.1,4.3,25.6,4.3,26.1,4.3z"/>
	<path d="M15.7,6.9l-1.4-2.6C7,8.1,1.8,15.5,1,24.4C1,25.1,1,25.8,1,26.5C1,31,2.2,35.3,4.3,39l2.6-1.5h0C5,34.2,4,30.5,4,26.5
		c0-0.6,0-1.2,0.1-1.8C4.7,16.8,9.3,10.3,15.7,6.9z"/>
	<path d="M49.7,28.3L36.5,41.8l5.6-0.2c-4.1,4.3-9.8,6.9-16,6.9c-0.6,0-1.2,0-1.8-0.1c-4.2-0.3-8-1.8-11.1-4.1l-1.8,2.4
		c3.6,2.6,7.9,4.3,12.7,4.6c0.7,0.1,1.4,0.1,2,0.1c7.7,0,14.6-3.5,19.3-9l4.8,4.7L49.7,28.3z"/>
	<polygon points="33.4,33.4 23.8,33.4 33.4,19.1 33.4,14.4 17.1,14.4 17.1,19.4 26.7,19.4 17.1,33.8 17.1,38.5 33.4,38.5 	"/>
</g>
</symbol>


</svg>
