<svg xmlns="http://www.w3.org/2000/svg">
<symbol id="expand-side" viewBox="0 0 52.2 52.9">
<g>
	<polygon class="st0" points="27.3,31.4 14.8,31.4 14.8,22.7 3.2,34.3 14.8,45.9 14.8,37.2 27.3,37.2 	"/>
	<polygon class="st0" points="64.5,34.3 52.9,22.7 52.9,31.4 40.4,31.4 40.4,37.2 52.9,37.2 52.9,45.9 	"/>
</g>
</symbol>

<symbol id="options" viewBox="0 0 52.2 52.9">
<g>
<rect y="24.6" class="st0" width="19.4" height="19.4"/>
<rect x="24.1" y="24.6" class="st0" width="19.4" height="19.4"/>
<rect x="48.2" y="24.6" class="st0" width="19.4" height="19.4"/>
</g>
</symbol>

<symbol id="expand-size" viewBox="0 0 52.2 52.9">
<g>
	<path class="st0" d="M33.8,58.8c-13.5,0-24.5-11-24.5-24.5c0-13.5,11-24.5,24.5-24.5c13.5,0,24.5,11,24.5,24.5
		C58.4,47.8,47.4,58.8,33.8,58.8z M33.8,15.7c-10.2,0-18.5,8.3-18.5,18.5c0,10.2,8.3,18.5,18.5,18.5c10.2,0,18.5-8.3,18.5-18.5
		C52.4,24.1,44.1,15.7,33.8,15.7z"/>
</g>
</symbol>

<symbol id="edit" viewBox="0 0 52.2 52.9">
<g>
	<path class="st0" d="M36.8,33l17.1-3.3c0.8-1.6,1.5-3.1,2.2-4.6l-8.2-1.2l9.8-2.5c3.5-8.8,4.8-15.7,4.8-15.7s-16.3,6-31,20.9
		c-2.7,2.8-6.2,6.4-8.1,10.1c-1,2-1.9,4.3-2.5,6c-0.6-1.2-1.1-2.9-1.1-2.9l-1.1,7.1l-7.5,7.5l-2.7,7.9l7.9-2.7l7.8-7.8
		c5,0.2,8.6-1.4,16.5-2.1l-12-2.7l15.6-3c2.7-3,5.1-6.2,7.1-9.6L36.8,33z"/>
</g>
</symbol>

<symbol id="expand-corner" viewBox="0 0 52.2 52.9">
<g>
	<polygon class="st0" points="27.1,36.9 18.3,45.7 12.1,39.6 12.1,56 28.6,56 22.4,49.8 31.3,41 	"/>
	<polygon class="st0" points="55.5,12.6 39.1,12.6 45.3,18.7 36.4,27.6 40.5,31.7 49.4,22.9 55.5,29 	"/>
</g>
</symbol>

<symbol id="hide-show" viewBox="0 0 52.2 52.9">
<g>
	<polygon class="st0" points="27,15.2 20.8,15.2 8.3,26.4 20.8,37.6 27,37.6 14.5,26.4 	"/>
	<polygon class="st0" points="43.9,15.2 37.7,15.2 25.2,26.4 37.7,37.6 43.9,37.6 31.4,26.4 	"/>
</g>
</symbol>

<symbol id="trash" viewBox="0 0 52.2 52.9">
<g>
	<path class="st0" d="M56.1,16.4H44.8V9.1H23.3v7.3H11.6v5h2.9v38.1h39.7V21.4h2V16.4z M28.3,14.1h11.5v2.3H28.3V14.1z M49.1,54.5
		H19.5V21.4h29.7V54.5z"/>
	<rect x="23.3" y="29.6" class="st0" width="5" height="17.5"/>
	<rect x="31.8" y="29.6" class="st0" width="5" height="17.5"/>
	<rect x="40.3" y="29.6" class="st0" width="5" height="17.5"/>
</g>
</symbol>

</svg>
