<svg xmlns="http://www.w3.org/2000/svg">
<symbol id="heavy-class-icon" viewBox="0.3 -0.2 49 49">
<g>
	<path d="M24.8,48.8c-13.5,0-24.5-11-24.5-24.5s11-24.5,24.5-24.5s24.5,11,24.5,24.5C49.4,37.8,38.4,48.8,24.8,48.8z M24.8,5.7
		C14.6,5.7,6.3,14,6.3,24.2s8.3,18.5,18.5,18.5s18.5-8.3,18.5-18.5C43.4,14.1,35.1,5.7,24.8,5.7z"/>
</g>
</symbol>

<symbol id="archer-class-icon" viewBox="0 0 89.3 87.8">
<g>
	<path d="M77.9,20l2.3-2l9.1-18l-18,9.1l-2,2.2C47.9-5.4,17-1.7,0,19.5l3.6,3.4c0.6-0.5,1.3-1.1,1.9-1.6l12.1,48l-1.3,1.5l2.1,2.1
		l1.5-1.3l48.4,12.2c-0.1,0.2-0.2,0.3-0.3,0.5l3.6,3.4C90.8,70.8,94,42,78.9,21.3C78.6,20.8,78.2,20.4,77.9,20z M8.2,19.5
		c16-10.8,37.2-10.1,52.4,1.8L20,66.7L8.2,19.5z M22.6,69.3l45.5-40.6C80.2,43.9,81,65.1,70.2,81.2L22.6,69.3z"/>
</g>
</symbol>

<symbol id="heal-class-icon" viewBox="0 0 87.5 87.5">
<g>
	<path d="M87.5,30.2H57.3V0H30.2v30.9L0,37.6v19.7h30.2v30.2h27.1V56.6l30.3-6.7V30.2z M50.3,7v23.2H37.2V7H50.3L50.3,7z M50.3,50.3
		H37.2V37.2h13.1L50.3,50.3L50.3,50.3z M7,50.3v-7.1l23.2-5.1v12.2L7,50.3L7,50.3z M37.2,80.5V57.3h13.1v23.2H37.2L37.2,80.5z
		 M80.5,44.3l-23.2,5.1V37.2h23.2V44.3z"/>
</g>
</symbol>
</svg>