<?xml version="1.0" encoding="utf-8"?>
<!-- Generator: Adobe Illustrator 23.0.0, SVG Export Plug-In . SVG Version: 6.00 Build 0)  -->
<svg fill="#6A6767" version="1.1" id="Layer_1" xmlns="http://www.w3.org/2000/svg" xmlns:xlink="http://www.w3.org/1999/xlink" x="0px" y="0px"
	 viewBox="0 0 68.59 87.74" style="enable-background:new 0 0 68.59 87.74;" xml:space="preserve">
<style type="text/css">
	.st0{fill:#7E5422;}
	.st1{fill:#FFFFFF;}
	.st2{fill:#77C043;}
	.st3{fill:none;stroke:#000000;stroke-miterlimit:10;}
	.st4{fill:none;stroke:#000000;stroke-width:0.75;stroke-miterlimit:10;}
</style>
<g>
	<path d="M68.59,47.1h-0.5H51.06c-5.67-0.03-11.35,0.05-17.02,0.12L0,47.6l34.04,0.38c5.67,0.07,11.35,0.14,17.02,0.12h10.67
		l5.84,5.84l0,3.69c-0.01,3.35,0.1,6.69,0.15,10.04l0.36,20.07l0.36-20.07c0.04-3.35,0.15-6.69,0.15-10.04l0-10.04L68.59,47.1z
		 M63.15,48.1h4.43l0,4.43L63.15,48.1z"/>
	<path d="M51.06,40.64h17.02h0.5l0-0.5l0-10.04c0.01-3.35-0.1-6.69-0.15-10.04L68.09,0l-0.36,20.07c-0.04,3.35-0.15,6.69-0.15,10.04
		l0,3.69l-5.84,5.84H51.06c-5.67-0.03-11.35,0.05-17.02,0.12L0,40.14l34.04,0.38C39.72,40.59,45.39,40.67,51.06,40.64z M67.58,35.21
		l0,4.43h-4.43L67.58,35.21z"/>
</g>
</svg>
