<?xml version="1.0" encoding="utf-8"?>
<!-- Generator: Adobe Illustrator 21.1.0, SVG Export Plug-In . SVG Version: 6.00 Build 0)  -->
<svg version="1.1" id="Layer_1" xmlns="http://www.w3.org/2000/svg" xmlns:xlink="http://www.w3.org/1999/xlink" x="0px" y="0px"
	viewBox="0 0 206 62.9" style="enable-background:new 0 0 206 62.9;" xml:space="preserve">
	<defs>
		<pattern id="linear" patternUnits="userSpaceOnUse" width="100" height="100">
			<image xlink:href="bg-pattern.jpg" x="0" y="0" width="100" height="100" />
		</pattern>
	</defs>
	<g>
		<path d="M33.7,30.6C33.7,30.6,33.7,30.6,33.7,30.6C33.8,30.7,33.8,30.7,33.7,30.6z"/>
		<path d="M206,50c0-18.8,0-43.6,0-50c-1.4,0.2-0.6,2.4-2.3,1.9c-0.5,1.6-2.5,1.7-3.1,3c-0.8,1.5-1.6,3.3-1.5,4.8
			c0.5,7.6-1.2,15-1.1,22.6c0,0.8,0.8,2.1-0.7,2.6c-3.5-1.7-3.5-1.7-4.8-4c-0.8-0.2-1.7,0.3-2.4-0.3c-0.3-3.5-0.3-3.5-2.8-4.6
			c-0.5,1.4-1.3,2.8-1.6,4.4c-0.4,2.3-3.1,1-4.6,1.8c-0.4,0.2-0.8,0.6-1,1.1c-0.5,0.9-1.6,0.4-2.2,1.2c0.4,1.9-0.2,3.7-1.6,5.3
			c-0.9-0.7,0.3-2-0.8-2.8c-0.3,0.3-0.7,0.6-1,0.9c-1-0.2,0.1-2.2-2.1-1.9c-0.9,1-2.4,2-2.9,4.1c-1.4-1.9-3-2.4-4.6-3.2
			c-1.9,1-3.8,1.9-5.7,2.9c-1-1.7-2.8-0.3-4.1-1.1c-0.2-0.6-0.4-1.2-0.8-2.3c-1.6,1.6-2.9,2.9-4.2,4.2c-0.1-0.4-0.4-1-0.6-1.6
			c-0.7,0-1.4,0-2.1,0c-2.6,2.6-5.2,5.3-8,8.1c-1.1-1.7-0.1-3.4-0.7-4.8c-1.2-1.3-2.2-2.5-4.1-2.9c1.3-2.1,1.8-4.2,0.9-6.5
			c-0.4,0.4-0.8,0.7-1.2,1c-0.9-1.5-1.8-3-1.5-4.9c0.4-2.5-0.4-4.9-1.5-6.8c-1.1-1.8,0.7-2.3,0.5-3.4c-0.5-1-1-1.9-1.9-3.4
			c0,7.2,0,13.8,0,20.1c-2.9,2-1.9,5.8-4.7,7.4c-1-0.6-1.4-1.8-1.9-2.9c-1.1,0.8,0.1,2.1-0.8,2.8c-0.8,0-1.1-1.2-2-0.8
			c-1.3,0.6-1.6,1.9-2.4,3.1c0.3-2.1-1.1-3.5-1.9-5.3c-3.4,1.3-2.8,4.8-4.2,8.3c-1.1-2.6-2.2-4.1-3.6-5.1c-1.1,0-2.1,0-3,0
			c-1.4,3.2-2.8,6.4-2.8,10c-0.2-3.1-1.6-5.6-3.2-8c-1,0.8-1.8,1.6-1.4,2.9c0.4,1.3-1,2-1,3.1c1.3,2.1,1.3,2.1,0.5,2.8
			c-1.3-0.6-1.3-2.1-2.1-2.9c-1.2-0.3-2.1,0.4-3,0.8c-1.9-6.5-1.8-13.3-4-19.7c0.4,4.9-1.9,9.6-1.3,14.6c-1.9,0.3-1.4,3.2-3.6,3.5
			c-1.2-1.9,0.2-4.3-0.9-6.1c-0.6,0-1.1-0.1-1.8,1c0,2.2,0,5.1,0,8.8c-2.7-6.7-9.1-10-10-16.7c-2.3,0.5-1.3,2.7-2.2,3.9
			c-0.5-0.1-1.1,0.2-1.6-0.7c0-1.5,0-3.3,0-5.2c0-0.5-0.1-0.9-0.5-1.1c-0.9,0.8-1.7,1.6-2.5,2.4c-0.2,1.2,0.4,2.4-0.4,3.5
			c-0.4,0-0.9-0.1-1.3-0.1c-0.2-1.8-0.9-3.4-1.8-4.9c-1.3,1.1,0.4,2.9-1.1,4c-1.3-1.5,0.5-3.6-1.1-5c-2.2-0.1-1.1,1.6-1.5,2.8
			c-1.3-0.2-2.2,1.1-3.6,1.5c-1.4,0.4-1.1,3-3.1,3c-0.5,1.8,0.3,3.8-0.5,5.7c-2.5-1.5-1.8-5.4-5-6.1c-1,0.9-0.7,2.9-2.1,2.7
			c-1.9-1.3,0.9-1.4,0.1-2.5c-0.8-0.1-1.6-0.2-2.7-0.3c0.8-2-1.7-2.1-1.9-3.6c-0.2-1.5,0.4-3.3-1.6-4.2c-1.1,0.6-1.5,2.8-3.3,1.5
			c-0.7-1.4,1.2-1.7,0.6-3.9c-0.2-0.1-0.5-0.2-0.8-0.5c-0.8-0.6-1.6-0.1-2.1-0.2c-1.4,1.2-2.6,2.4-3.8,3.4c0,1.1,0,2.1,0,3
			c-0.6,0.6-1.2,1.2-1.8,1.8c-0.6,1.2,0.5,2.6-0.8,3.8c-2.8-0.5-2.4-4.4-4.8-4.9c-2.6-0.6-3.2-3.7-5.9-4.2c-0.9,0.8-0.8,2.4-2.1,3
			c-2.1-2.4-1.2-6.5-4.6-8.1c-0.7,0.4-1.2,0.7-2.2,1.4c0.8-4.2-1.1-7.6-1-11.2c-1,0-1.7,0-2.2,0c-1.2,1.3-1.6,2.9-1.6,4.4v21.6v3v2.9
			v13h204.9h1.1h0v0V54v-2.4v-1C206,50.4,206,50.2,206,50z"/>
		<path d="M155.9,34.9c0.9-0.4,1.3-0.7,1.8-0.9c0.2,0.2,0.5,0.5,0.7,0.7c0.8-0.9,1.5-1.8,2.3-2.7c-0.4-0.4-1-1-1.6-1.6
			c0.3-0.4,0.6-0.7,1.2-1.3c-1.8-1.6-1-3.8-1.3-5.8c-0.6-0.4-0.9-1.3-2-1.2c0,2.2,0,4.3,0,6.3c-0.7,0.3-1.3,0.5-2.2,0.9
			C155.8,31,156.2,32.8,155.9,34.9z"/>
	</g>
</svg>
